VelekaWorld-BoldItalic.ufo
<glyph name="quotedbl" format="2">
  <advance width="375"/>
  <unicode hex="0022"/>
  <outline>
    <contour>
      <point x="421" y="669" type="curve" smooth="yes" name="n00"/>
      <point x="421" y="650"/>
      <point x="348" y="459"/>
      <point x="333" y="417" type="curve" name="n03"/>
      <point x="296" y="417" type="line"/>
      <point x="304" y="651" type="line" smooth="yes" name="n05"/>
      <point x="305" y="687"/>
      <point x="339" y="714" name="n07"/>
      <point x="373" y="714" type="curve" smooth="yes"/>
      <point x="402" y="714"/>
      <point x="421" y="700"/>
    </contour>
    <contour>
      <point x="225" y="669" type="curve" smooth="yes" name="n11"/>
      <point x="225" y="650"/>
      <point x="152" y="459"/>
      <point x="137" y="417" type="curve"/>
      <point x="100" y="417" type="line"/>
      <point x="107" y="651" type="line" name="n16"/>
      <point x="109" y="687"/>
      <point x="143" y="714"/>
      <point x="177" y="714" type="curve" smooth="yes"/>
      <point x="206" y="714"/>
      <point x="225" y="700"/>
    </contour>
  </outline>
</glyph>
<glyph name="numbersign" format="2">
  <advance width="741"/>
  <unicode hex="0023"/>
  <outline>
    <contour>
      <point x="679" y="414" type="line" name="n00"/>
      <point x="527" y="414" type="line"/>
      <point x="484" y="282" type="line"/>
      <point x="639" y="282" type="line" name="n03"/>
      <point x="639" y="219" type="line" name="n04"/>
      <point x="462" y="219" type="line"/>
      <point x="386" y="-24" type="line"/>
      <point x="317" y="-7" type="line"/>
      <point x="391" y="219" type="line"/>
      <point x="266" y="219" type="line"/>
      <point x="188" y="-24" type="line"/>
      <point x="121" y="-6" type="line"/>
      <point x="196" y="219" type="line"/>
      <point x="62" y="219" type="line"/>
      <point x="62" y="282" type="line"/>
      <point x="216" y="282" type="line"/>
      <point x="259" y="414" type="line"/>
      <point x="111" y="414" type="line"/>
      <point x="111" y="480" type="line"/>
      <point x="280" y="480" type="line"/>
      <point x="357" y="710" type="line"/>
      <point x="424" y="692" type="line"/>
      <point x="350" y="480" type="line"/>
      <point x="480" y="480" type="line"/>
      <point x="554" y="710" type="line"/>
      <point x="623" y="691" type="line"/>
      <point x="548" y="480" type="line"/>
      <point x="679" y="480" type="line" name="n27"/>
    </contour>
    <contour>
      <point x="457" y="414" type="line"/>
      <point x="331" y="414" type="line"/>
      <point x="287" y="282" type="line"/>
      <point x="411" y="282" type="line"/>
    </contour>
  </outline>
</glyph>
<glyph name="dollar" format="2">
  <advance width="598"/>
  <unicode hex="0024"/>
  <outline>
    <contour>
      <point x="586" y="639" type="curve"/>
      <point x="553" y="472" type="line"/>
      <point x="484" y="472" type="line"/>
      <point x="486" y="577" type="line"/>
      <point x="487" y="585"/>
      <point x="483" y="587"/>
      <point x="478" y="589" type="curve"/>
      <point x="458" y="598"/>
      <point x="411" y="607"/>
      <point x="399" y="607" type="curve"/>
      <point x="358" y="401" type="line"/>
      <point x="420" y="383"/>
      <point x="563" y="345"/>
      <point x="535" y="205" type="curve" smooth="yes" name="n13"/>
      <point x="513" y="91"/>
      <point x="409" y="19"/>
      <point x="279" y="1" type="curve"/>
      <point x="259" y="-102" type="line" name="n17"/>
      <point x="200" y="-102" type="line"/>
      <point x="220" y="0" type="line" name="n19"/>
      <point x="220" y="0"/>
      <point x="101" y="5"/>
      <point x="21" y="33" type="curve"/>
      <point x="55" y="206" type="line"/>
      <point x="127" y="206" type="line"/>
      <point x="124" y="98" type="line"/>
      <point x="124" y="86"/>
      <point x="123" y="89"/>
      <point x="132" y="84" type="curve" smooth="yes"/>
      <point x="170" y="63"/>
      <point x="232" y="62"/>
      <point x="232" y="62" type="curve" name="n31"/>
      <point x="275" y="282" type="line"/>
      <point x="205" y="304"/>
      <point x="88" y="342"/>
      <point x="115" y="477" type="curve" smooth="yes" name="n35"/>
      <point x="151" y="660"/>
      <point x="352" y="668"/>
      <point x="352" y="668" type="curve"/>
      <point x="367" y="742" type="line" name="n39"/>
      <point x="426" y="742" type="line"/>
      <point x="411" y="668" type="line"/>
      <point x="493" y="668"/>
      <point x="586" y="639"/>
    </contour>
    <contour>
      <point x="339" y="604" type="line"/>
      <point x="339" y="604"/>
      <point x="266" y="599"/>
      <point x="249" y="513" type="curve" smooth="yes" name="n47"/>
      <point x="233" y="432"/>
      <point x="302" y="415"/>
      <point x="302" y="415" type="curve"/>
    </contour>
    <contour>
      <point x="401" y="169" type="curve" smooth="yes" name="n51"/>
      <point x="414" y="235"/>
      <point x="364" y="258"/>
      <point x="332" y="267" type="curve"/>
      <point x="292" y="65" type="line"/>
      <point x="292" y="65"/>
      <point x="382" y="72"/>
    </contour>
  </outline>
</glyph>
<glyph name="percent" format="2">
  <advance width="899"/>
  <unicode hex="0025"/>
  <outline>
    <contour>
      <point x="861" y="261" type="curve" smooth="yes" name="n00"/>
      <point x="861" y="128"/>
      <point x="790" y="-16"/>
      <point x="641" y="-16" type="curve" smooth="yes" name="n03"/>
      <point x="550" y="-16"/>
      <point x="505" y="34"/>
      <point x="505" y="124" type="curve" smooth="yes" name="n06"/>
      <point x="505" y="256"/>
      <point x="574" y="402"/>
      <point x="724" y="402" type="curve" smooth="yes" name="n09"/>
      <point x="815" y="402"/>
      <point x="861" y="351"/>
    </contour>
    <contour>
      <point x="775" y="671" type="line" name="n12"/>
      <point x="226" y="0" type="line" name="n13"/>
      <point x="154" y="0" type="line" name="hr01"/>
      <point x="702" y="671" type="line"/>
    </contour>
    <contour>
      <point x="424" y="546" type="curve" smooth="yes" name="n16"/>
      <point x="424" y="414"/>
      <point x="354" y="268"/>
      <point x="205" y="268" type="curve" smooth="yes" name="n19"/>
      <point x="113" y="268"/>
      <point x="67" y="320"/>
      <point x="67" y="410" type="curve" smooth="yes" name="n22"/>
      <point x="67" y="542"/>
      <point x="138" y="687"/>
      <point x="287" y="687" type="curve" smooth="yes" name="n25"/>
      <point x="378" y="687"/>
      <point x="424" y="636"/>
    </contour>
    <contour>
      <point x="756" y="285" type="curve" smooth="yes" name="n28"/>
      <point x="756" y="313"/>
      <point x="751" y="355"/>
      <point x="714" y="355" type="curve" smooth="yes" name="n31"/>
      <point x="633" y="355"/>
      <point x="604" y="169"/>
      <point x="604" y="109" type="curve" smooth="yes" name="n34"/>
      <point x="604" y="78"/>
      <point x="610" y="31"/>
      <point x="650" y="31" type="curve" smooth="yes" name="n37"/>
      <point x="728" y="31"/>
      <point x="756" y="228"/>
    </contour>
    <contour>
      <point x="320" y="569" type="curve" smooth="yes" name="n40"/>
      <point x="320" y="598"/>
      <point x="315" y="640"/>
      <point x="278" y="640" type="curve" smooth="yes" name="n43"/>
      <point x="196" y="640"/>
      <point x="167" y="455"/>
      <point x="167" y="396" type="curve" smooth="yes" name="n46"/>
      <point x="167" y="364"/>
      <point x="173" y="315"/>
      <point x="214" y="315" type="curve" smooth="yes" name="n49"/>
      <point x="291" y="315"/>
      <point x="320" y="513"/>
    </contour>
  </outline>
</glyph>
<glyph name="ampersand" format="2">
  <advance width="745"/>
  <unicode hex="0026"/>
  <outline>
    <contour>
      <point x="713" y="313" type="line"/>
      <point x="639" y="305" type="line"/>
      <point x="611" y="248"/>
      <point x="567" y="184"/>
      <point x="517" y="132" type="curve"/>
      <point x="565" y="69"/>
      <point x="602" y="54"/>
      <point x="679" y="54" type="curve" name="n07"/>
      <point x="679" y="2" type="line"/>
      <point x="631" y="0"/>
      <point x="608" y="-2"/>
      <point x="589" y="-3" type="curve" name="n11"/>
      <point x="564" y="-5"/>
      <point x="538" y="-4"/>
      <point x="513" y="0" type="curve"/>
      <point x="480" y="7"/>
      <point x="454" y="22"/>
      <point x="425" y="53" type="curve"/>
      <point x="373" y="18"/>
      <point x="307" y="-11" name="hr01"/>
      <point x="211" y="-11" type="curve" smooth="yes" name="n20"/>
      <point x="86" y="-11"/>
      <point x="12" y="58"/>
      <point x="12" y="157" type="curve" smooth="yes" name="n23"/>
      <point x="12" y="255"/>
      <point x="88" y="319"/>
      <point x="183" y="368" type="curve"/>
      <point x="153" y="409"/>
      <point x="130" y="448" name="hr02"/>
      <point x="130" y="495" type="curve" smooth="yes" name="n29"/>
      <point x="130" y="598"/>
      <point x="221" y="684"/>
      <point x="373" y="684" type="curve" smooth="yes" name="n32"/>
      <point x="487" y="684"/>
      <point x="546" y="617"/>
      <point x="546" y="549" type="curve" smooth="yes" name="n35"/>
      <point x="546" y="455"/>
      <point x="464" y="398"/>
      <point x="345" y="357" type="curve"/>
      <point x="465" y="202" type="line"/>
      <point x="489" y="233"/>
      <point x="508" y="268"/>
      <point x="521" y="294" type="curve" smooth="yes"/>
      <point x="522" y="296"/>
      <point x="520" y="303"/>
      <point x="519" y="303" type="curve"/>
      <point x="460" y="313" type="line"/>
      <point x="460" y="367" type="line"/>
      <point x="713" y="367" type="line"/>
    </contour>
    <contour>
      <point x="408" y="541" type="curve" smooth="yes" name="n49"/>
      <point x="408" y="584"/>
      <point x="399" y="625"/>
      <point x="353" y="625" type="curve" smooth="yes" name="n52"/>
      <point x="330" y="625"/>
      <point x="261" y="598"/>
      <point x="261" y="521" type="curve" smooth="yes" name="n55"/>
      <point x="261" y="480"/>
      <point x="282" y="438"/>
      <point x="306" y="406" type="curve"/>
      <point x="367" y="435"/>
      <point x="408" y="475"/>
    </contour>
    <contour>
      <point x="376" y="111" type="curve"/>
      <point x="226" y="309" type="line"/>
      <point x="184" y="276"/>
      <point x="159" y="236"/>
      <point x="159" y="186" type="curve" smooth="yes" name="n65"/>
      <point x="159" y="104"/>
      <point x="222" y="62"/>
      <point x="262" y="62" type="curve" smooth="yes" name="n68"/>
      <point x="304" y="62"/>
      <point x="329" y="77"/>
    </contour>
  </outline>
</glyph>
<glyph name="asterisk" format="2">
  <advance width="500"/>
  <unicode hex="002A"/>
  <outline>
    <contour>
      <point x="510" y="571" type="line"/>
      <point x="466" y="506" type="line"/>
      <point x="337" y="507" type="line"/>
      <point x="331" y="522" type="line"/>
      <point x="437" y="600" type="line"/>
    </contour>
    <contour>
      <point x="363" y="658" type="line"/>
      <point x="321" y="533" type="line"/>
      <point x="305" y="533" type="line"/>
      <point x="264" y="658" type="line"/>
      <point x="313" y="718" type="line"/>
    </contour>
    <contour>
      <point x="438" y="416" type="line"/>
      <point x="436" y="338" type="line"/>
      <point x="359" y="358" type="line"/>
      <point x="319" y="482" type="line"/>
      <point x="332" y="494" type="line"/>
    </contour>
    <contour>
      <point x="295" y="521" type="line"/>
      <point x="290" y="507" type="line"/>
      <point x="160" y="506" type="line"/>
      <point x="117" y="571" type="line"/>
      <point x="188" y="600" type="line"/>
    </contour>
    <contour>
      <point x="308" y="482" type="line"/>
      <point x="268" y="358" type="line"/>
      <point x="191" y="338" type="line"/>
      <point x="188" y="416" type="line"/>
      <point x="295" y="494" type="line"/>
    </contour>
  </outline>
</glyph>
<glyph name="comma" format="2">
  <advance width="320"/>
  <unicode hex="002C"/>
  <outline>
    <contour>
      <point x="200" y="84" type="curve" smooth="yes" name="n00"/>
      <point x="200" y="-32"/>
      <point x="58" y="-168"/>
      <point x="-55" y="-176" type="curve"/>
      <point x="-46" y="-127" type="line"/>
      <point x="28" y="-116"/>
      <point x="89" y="-70"/>
      <point x="101" y="7" type="curve" name="n07"/>
      <point x="40" y="7" type="line"/>
      <point x="27" y="19"/>
      <point x="20" y="36"/>
      <point x="20" y="54" type="curve" smooth="yes" name="n11"/>
      <point x="20" y="108"/>
      <point x="69" y="155"/>
      <point x="123" y="155" type="curve" smooth="yes" name="n14"/>
      <point x="168" y="155"/>
      <point x="200" y="132"/>
    </contour>
  </outline>
</glyph>
<glyph name="three" format="2">
  <advance width="598"/>
  <unicode hex="0033"/>
  <outline>
    <contour>
      <point x="575" y="542" type="curve" smooth="yes" name="n00"/>
      <point x="575" y="475"/>
      <point x="522" y="400"/>
      <point x="399" y="359" type="curve"/>
      <point x="486" y="342"/>
      <point x="534" y="302" name="hr01"/>
      <point x="534" y="230" type="curve" smooth="yes" name="n06"/>
      <point x="534" y="108"/>
      <point x="409" y="-16"/>
      <point x="211" y="-16" type="curve" smooth="yes" name="n09"/>
      <point x="67" y="-16"/>
      <point x="11" y="52"/>
      <point x="11" y="98" type="curve" smooth="yes"/>
      <point x="11" y="118"/>
      <point x="37" y="170" name="hr02"/>
      <point x="89" y="170" type="curve" smooth="yes" name="n15"/>
      <point x="120" y="170"/>
      <point x="135" y="153"/>
      <point x="148" y="147" type="curve"/>
      <point x="164" y="63" type="line"/>
      <point x="172" y="58"/>
      <point x="202" y="45" name="hr03"/>
      <point x="223" y="45" type="curve" smooth="yes" name="n22"/>
      <point x="293" y="45"/>
      <point x="380" y="114"/>
      <point x="380" y="216" type="curve" smooth="yes" name="n25"/>
      <point x="380" y="310"/>
      <point x="301" y="317"/>
      <point x="290" y="317" type="curve" smooth="yes" name="n28"/>
      <point x="271" y="317"/>
      <point x="254" y="314"/>
      <point x="197" y="305" type="curve"/>
      <point x="208" y="383" type="line" name="n32"/>
      <point x="330" y="377"/>
      <point x="419" y="434" name="hr04"/>
      <point x="419" y="529" type="curve" smooth="yes" name="n35"/>
      <point x="419" y="609"/>
      <point x="353" y="626"/>
      <point x="340" y="626" type="curve" smooth="yes" name="n38"/>
      <point x="304" y="626"/>
      <point x="278" y="609"/>
      <point x="267" y="601" type="curve"/>
      <point x="251" y="506" type="line"/>
      <point x="237" y="500"/>
      <point x="204" y="485"/>
      <point x="181" y="485" type="curve" smooth="yes"/>
      <point x="152" y="485"/>
      <point x="113" y="516"/>
      <point x="113" y="553" type="curve" smooth="yes"/>
      <point x="113" y="631"/>
      <point x="229" y="687"/>
      <point x="373" y="687" type="curve" smooth="yes" name="n51"/>
      <point x="513" y="687"/>
      <point x="575" y="630"/>
    </contour>
  </outline>
</glyph>
<glyph name="five" format="2">
  <advance width="598"/>
  <unicode hex="0035"/>
  <outline>
    <contour>
      <point x="585" y="671" type="line" name="n00"/>
      <point x="568" y="581" type="line" name="n01"/>
      <point x="277" y="581" type="line"/>
      <point x="242" y="408" type="line"/>
      <point x="263" y="412"/>
      <point x="290" y="415"/>
      <point x="321" y="415" type="curve" smooth="yes" name="n06"/>
      <point x="437" y="415"/>
      <point x="531" y="368"/>
      <point x="531" y="250" type="curve" smooth="yes" name="n09"/>
      <point x="531" y="112"/>
      <point x="395" y="-16"/>
      <point x="198" y="-16" type="curve" smooth="yes" name="n12"/>
      <point x="69" y="-16"/>
      <point x="10" y="26"/>
      <point x="10" y="81" type="curve" smooth="yes"/>
      <point x="10" y="116"/>
      <point x="45" y="156" name="hr01"/>
      <point x="93" y="156" type="curve" smooth="yes" name="n18"/>
      <point x="113" y="156"/>
      <point x="124" y="143"/>
      <point x="140" y="140" type="curve"/>
      <point x="167" y="55" type="line"/>
      <point x="175" y="53"/>
      <point x="208" y="45" name="hr02"/>
      <point x="221" y="45" type="curve" smooth="yes" name="n25"/>
      <point x="295" y="45"/>
      <point x="383" y="124"/>
      <point x="383" y="225" type="curve" smooth="yes" name="n28"/>
      <point x="383" y="326"/>
      <point x="297" y="345"/>
      <point x="238" y="345" type="curve" smooth="yes" name="n31"/>
      <point x="210" y="345"/>
      <point x="132" y="337"/>
      <point x="107" y="334" type="curve"/>
      <point x="177" y="671" type="line"/>
    </contour>
  </outline>
</glyph>
<glyph name="seven" format="2">
  <advance width="598"/>
  <unicode hex="0037"/>
  <outline>
    <contour>
      <point x="647" y="671" type="line"/>
      <point x="638" y="623" type="line"/>
      <point x="183" y="-9" type="line"/>
      <point x="176" y="-37" type="line" name="n03"/>
      <point x="32" y="-37" type="line"/>
      <point x="478" y="581" type="line"/>
      <point x="206" y="581" type="line" name="n06"/>
      <point x="174" y="492" type="line" name="n07"/>
      <point x="93" y="492" type="line"/>
      <point x="129" y="671" type="line" name="n09"/>
    </contour>
  </outline>
</glyph>
<glyph name="nine" format="2">
  <advance width="598"/>
  <unicode hex="0039"/>
  <outline>
    <contour>
      <point x="599" y="475" type="curve" smooth="yes" name="n00"/>
      <point x="599" y="184"/>
      <point x="332" y="17"/>
      <point x="73" y="-63" type="curve"/>
      <point x="46" y="-2" type="line"/>
      <point x="181" y="50"/>
      <point x="290" y="108"/>
      <point x="384" y="245" type="curve"/>
      <point x="347" y="232"/>
      <point x="306" y="224"/>
      <point x="268" y="224" type="curve" smooth="yes" name="n10"/>
      <point x="159" y="224"/>
      <point x="65" y="279"/>
      <point x="65" y="404" type="curve" smooth="yes" name="n13"/>
      <point x="65" y="553"/>
      <point x="185" y="687"/>
      <point x="374" y="687" type="curve" smooth="yes" name="n16"/>
      <point x="468" y="687"/>
      <point x="599" y="657"/>
    </contour>
    <contour>
      <point x="451" y="474" type="curve" smooth="yes" name="n19"/>
      <point x="451" y="607"/>
      <point x="379" y="629"/>
      <point x="357" y="629" type="curve" smooth="yes" name="n22"/>
      <point x="296" y="629"/>
      <point x="216" y="539"/>
      <point x="216" y="424" type="curve" smooth="yes" name="n25"/>
      <point x="216" y="323"/>
      <point x="287" y="293"/>
      <point x="313" y="293" type="curve" smooth="yes" name="n28"/>
      <point x="378" y="293"/>
      <point x="422" y="339"/>
      <point x="432" y="349" type="curve"/>
      <point x="440" y="391"/>
      <point x="451" y="432"/>
    </contour>
  </outline>
</glyph>
<glyph name="B" format="2">
  <advance width="648"/>
  <unicode hex="0042"/>
  <outline>
    <contour>
      <point x="616" y="533.629" type="curve" smooth="yes" name="n00"/>
      <point x="616" y="453.876"/>
      <point x="563.168" y="395.256"/>
      <point x="457.444" y="357.704" type="curve"/>
      <point x="552.388" y="340.032"/>
      <point x="596" y="298.374" name="hr01"/>
      <point x="596" y="225.355" type="curve" smooth="yes" name="n06"/>
      <point x="596" y="77.4145"/>
      <point x="486.76" y="0"/>
      <point x="278" y="0" type="curve" smooth="yes" name="n09"/>
      <point x="-17" y="0" type="line"/>
      <point x="-17" y="50" type="line"/>
      <point x="46" y="55" type="line" smooth="yes"/>
      <point x="59.0798" y="56.0381"/>
      <point x="62.6568" y="59.0389"/>
      <point x="65" y="70.9396" type="curve" smooth="yes"/>
      <point x="169" y="599.139" type="line"/>
      <point x="168.627" y="608.429"/>
      <point x="163.555" y="613.12"/>
      <point x="153" y="614.016" type="curve" smooth="yes"/>
      <point x="93" y="619.113" type="line"/>
      <point x="93" y="671" type="line"/>
      <point x="395" y="671" type="line" smooth="yes" name="n22"/>
      <point x="543.27" y="671"/>
      <point x="616" y="625.792" name="hr02"/>
    </contour>
    <contour>
      <point x="463" y="520.641" type="curve" smooth="yes" name="n25"/>
      <point x="463" y="582.702"/>
      <point x="421.53" y="616"/>
      <point x="346" y="616" type="curve" smooth="yes" name="n28"/>
      <point x="335" y="616"/>
      <point x="330.213" y="616"/>
      <point x="314.787" y="614.008" type="curve"/>
      <point x="268" y="374.992" type="line"/>
      <point x="279" y="374"/>
      <point x="288" y="374"/>
      <point x="289" y="374" type="curve" name="n35"/>
      <point x="388.452" y="374"/>
      <point x="463" y="437.432"/>
    </contour>
    <contour>
      <point x="443" y="208.931" type="curve" smooth="yes" name="n38"/>
      <point x="443" y="282.192"/>
      <point x="398.858" y="319" name="hr03"/>
      <point x="311" y="319" type="curve" smooth="yes" name="n41"/>
      <point x="294" y="319"/>
      <point x="277.213" y="319"/>
      <point x="256" y="316.011" type="curve"/>
      <point x="205.213" y="56.9962" type="line"/>
      <point x="224" y="55"/>
      <point x="235" y="55"/>
      <point x="245" y="55" type="curve" smooth="yes" name="n48"/>
      <point x="368.401" y="55"/>
      <point x="443" y="112.995"/>
    </contour>
  </outline>
</glyph>
<glyph name="C" format="2">
  <advance width="671"/>
  <unicode hex="0043"/>
  <outline>
    <contour>
      <point x="687" y="645" type="curve"/>
      <point x="656" y="469" type="line"/>
      <point x="582" y="469" type="line"/>
      <point x="583" y="581" type="line"/>
      <point x="584" y="589"/>
      <point x="578" y="601"/>
      <point x="568" y="604" type="curve"/>
      <point x="557" y="610"/>
      <point x="506" y="626"/>
      <point x="476" y="626" type="curve" smooth="yes" name="n09"/>
      <point x="349" y="626"/>
      <point x="196" y="489"/>
      <point x="196" y="257" type="curve" smooth="yes" name="n12"/>
      <point x="196" y="105"/>
      <point x="294" y="45"/>
      <point x="380" y="45" type="curve" smooth="yes" name="n15"/>
      <point x="408" y="45"/>
      <point x="451" y="54"/>
      <point x="463" y="60" type="curve"/>
      <point x="473" y="61"/>
      <point x="478" y="69"/>
      <point x="481" y="76" type="curve"/>
      <point x="529" y="208" type="line"/>
      <point x="604" y="208" type="line"/>
      <point x="573" y="27" type="line"/>
      <point x="522" y="9"/>
      <point x="441" y="-16"/>
      <point x="347" y="-16" type="curve" smooth="yes" name="n27"/>
      <point x="122" y="-16"/>
      <point x="48" y="132"/>
      <point x="48" y="268" type="curve" smooth="yes" name="n30"/>
      <point x="48" y="474"/>
      <point x="206" y="687"/>
      <point x="471" y="687" type="curve" smooth="yes" name="n33"/>
      <point x="548" y="687"/>
      <point x="608" y="670"/>
    </contour>
  </outline>
</glyph>
<glyph name="J" format="2">
  <advance width="509"/>
  <unicode hex="004A"/>
  <outline>
    <contour>
      <point x="549" y="621" type="line"/>
      <point x="481" y="615" type="line"/>
      <point x="472" y="615"/>
      <point x="469" y="609"/>
      <point x="467" y="600" type="curve"/>
      <point x="403" y="257" type="line" smooth="yes"/>
      <point x="374" y="99"/>
      <point x="330" y="-16"/>
      <point x="133" y="-16" type="curve" smooth="yes" name="n08"/>
      <point x="44" y="-16"/>
      <point x="-6" y="11"/>
      <point x="-20" y="18" type="curve"/>
      <point x="14" y="192" type="line" name="hr01"/>
      <point x="96" y="192" type="line" name="n13"/>
      <point x="96" y="66" type="line" smooth="yes"/>
      <point x="96" y="55"/>
      <point x="125" y="46" name="hr02"/>
      <point x="140" y="46" type="curve" smooth="yes" name="n17"/>
      <point x="198" y="46"/>
      <point x="233" y="112"/>
      <point x="258" y="249" type="curve" smooth="yes"/>
      <point x="324" y="601" type="line" smooth="yes"/>
      <point x="326" y="613"/>
      <point x="319" y="615"/>
      <point x="306" y="616" type="curve"/>
      <point x="306" y="616"/>
      <point x="275" y="618"/>
      <point x="247" y="621" type="curve"/>
      <point x="247" y="671" type="line" name="n28"/>
      <point x="549" y="671" type="line"/>
    </contour>
  </outline>
</glyph>
<glyph name="P" format="2">
  <advance width="607"/>
  <unicode hex="0050"/>
  <outline>
    <contour>
      <point x="613" y="509.309" type="curve" smooth="yes" name="n00"/>
      <point x="613" y="350.338"/>
      <point x="484.57" y="247"/>
      <point x="282.929" y="247" type="curve" smooth="yes" name="n03"/>
      <point x="269.5" y="247"/>
      <point x="257.699" y="246.542"/>
      <point x="244.213" y="249" type="curve"/>
      <point x="208" y="70" type="line"/>
      <point x="207.594" y="60.08"/>
      <point x="212.55" y="56.1399"/>
      <point x="226" y="55" type="curve" smooth="yes"/>
      <point x="285" y="50" type="line"/>
      <point x="285" y="0" type="line" name="n12"/>
      <point x="-17" y="0" type="line"/>
      <point x="-17" y="50" type="line"/>
      <point x="41" y="55" type="line" smooth="yes"/>
      <point x="57.1182" y="56.3895"/>
      <point x="62.8361" y="60.0382"/>
      <point x="65" y="71" type="curve" smooth="yes"/>
      <point x="170" y="602.915" type="line"/>
      <point x="170.2" y="611.742"/>
      <point x="163.654" y="616.859"/>
      <point x="151" y="617.93" type="curve" smooth="yes"/>
      <point x="94" y="622.754" type="line"/>
      <point x="94" y="671" type="line"/>
      <point x="364" y="671" type="line" smooth="yes" name="n25"/>
      <point x="527.475" y="671"/>
      <point x="613" y="615.464"/>
    </contour>
    <contour>
      <point x="467" y="489.822" type="curve" smooth="yes" name="n28"/>
      <point x="467" y="572.702"/>
      <point x="421.018" y="616"/>
      <point x="333" y="616" type="curve" smooth="yes" name="n31"/>
      <point x="329.853" y="616"/>
      <point x="319.352" y="616"/>
      <point x="316" y="616" type="curve"/>
      <point x="255" y="308.007" type="line"/>
      <point x="261.575" y="307.475"/>
      <point x="268.109" y="307.2"/>
      <point x="274.589" y="307.183" type="curve" smooth="yes" name="n38"/>
      <point x="387.44" y="306.878"/>
      <point x="467" y="382.397"/>
    </contour>
  </outline>
</glyph>
<glyph name="S" format="2">
  <advance width="562"/>
  <unicode hex="0053"/>
  <outline>
    <contour>
      <point x="556" y="647" type="curve"/>
      <point x="522" y="491" type="line"/>
      <point x="446" y="491" type="line"/>
      <point x="450" y="595" type="line"/>
      <point x="441.643" y="608.186"/>
      <point x="385.856" y="628"/>
      <point x="352.1" y="628" type="curve" smooth="yes" name="n06"/>
      <point x="293.583" y="628"/>
      <point x="230.125" y="568.46"/>
      <point x="230" y="507.236" type="curve" smooth="yes" name="n09"/>
      <point x="229.897" y="456.408"/>
      <point x="273.461" y="412.602"/>
      <point x="363.098" y="372.735" type="curve" smooth="yes"/>
      <point x="465.217" y="327.317"/>
      <point x="509" y="276.135"/>
      <point x="509" y="201.553" type="curve" smooth="yes" name="n15"/>
      <point x="509" y="75.8456"/>
      <point x="384.623" y="-16"/>
      <point x="209.722" y="-16" type="curve" smooth="yes" name="n18"/>
      <point x="141.87" y="-16"/>
      <point x="45.5157" y="9.12927"/>
      <point x="-5" y="40" type="curve"/>
      <point x="30" y="204" type="line"/>
      <point x="115.431" y="204" type="line"/>
      <point x="104.278" y="85" type="line"/>
      <point x="112.725" y="71.6188"/>
      <point x="195.663" y="46"/>
      <point x="236.354" y="46" type="curve" smooth="yes" name="n27"/>
      <point x="301.067" y="46"/>
      <point x="362.818" y="110.798"/>
      <point x="363" y="185" type="curve" smooth="yes" name="n30"/>
      <point x="363.15" y="246"/>
      <point x="274.758" y="287"/>
      <point x="225.944" y="310" type="curve" smooth="yes"/>
      <point x="125.83" y="357.172"/>
      <point x="84" y="403.144"/>
      <point x="84" y="466" type="curve" smooth="yes" name="n36"/>
      <point x="84" y="598.797"/>
      <point x="197.653" y="687"/>
      <point x="367.611" y="687" type="curve" smooth="yes" name="n39"/>
      <point x="434.011" y="687"/>
      <point x="497.029" y="673.537"/>
    </contour>
  </outline>
</glyph>
<glyph name="T" format="2">
  <advance width="627"/>
  <unicode hex="0054"/>
  <outline>
    <contour>
      <point x="692" y="671" type="line"/>
      <point x="656" y="496" type="line"/>
      <point x="578" y="496" type="line"/>
      <point x="583" y="603" type="line"/>
      <point x="584" y="612"/>
      <point x="571" y="616" name="hr01"/>
      <point x="561" y="616" type="curve" smooth="yes"/>
      <point x="452" y="616" type="line"/>
      <point x="349" y="70" type="line" smooth="yes"/>
      <point x="347" y="58"/>
      <point x="356" y="56"/>
      <point x="368" y="55" type="curve"/>
      <point x="368" y="55"/>
      <point x="399" y="53"/>
      <point x="426" y="50" type="curve"/>
      <point x="426" y="0" type="line" name="n15"/>
      <point x="124" y="0" type="line"/>
      <point x="124" y="50" type="line"/>
      <point x="150" y="52"/>
      <point x="179" y="54"/>
      <point x="179" y="54" type="curve"/>
      <point x="193" y="55"/>
      <point x="204" y="58"/>
      <point x="206" y="71" type="curve"/>
      <point x="309" y="616" type="line"/>
      <point x="206" y="616" type="line" smooth="yes" name="n25"/>
      <point x="197" y="616"/>
      <point x="181" y="611"/>
      <point x="178" y="602" type="curve" smooth="yes"/>
      <point x="140" y="496" type="line" name="hr02"/>
      <point x="62" y="496" type="line" name="n30"/>
      <point x="96" y="671" type="line" name="n31"/>
    </contour>
  </outline>
</glyph>
<glyph name="W" format="2">
  <advance width="969"/>
  <unicode hex="0057"/>
  <outline>
    <contour>
      <point x="1042" y="621" type="line" name="n00"/>
      <point x="981" y="615" type="line"/>
      <point x="680" y="-16" type="line" name="n02"/>
      <point x="578" y="-16" type="line"/>
      <point x="527" y="443" type="line"/>
      <point x="309" y="-16" type="line"/>
      <point x="200" y="-16" type="line"/>
      <point x="149" y="603" type="line" smooth="yes"/>
      <point x="148" y="616"/>
      <point x="142" y="617"/>
      <point x="125" y="618" type="curve"/>
      <point x="125" y="618"/>
      <point x="102" y="619"/>
      <point x="83" y="620" type="curve"/>
      <point x="83" y="671" type="line"/>
      <point x="356" y="671" type="line"/>
      <point x="356" y="620" type="line"/>
      <point x="333" y="619"/>
      <point x="308" y="618"/>
      <point x="308" y="618" type="curve"/>
      <point x="300" y="618"/>
      <point x="291" y="616"/>
      <point x="292" y="604" type="curve" smooth="yes"/>
      <point x="321" y="251" type="line"/>
      <point x="522" y="671" type="line"/>
      <point x="642" y="671" type="line"/>
      <point x="686" y="242" type="line"/>
      <point x="855" y="604" type="line" smooth="yes"/>
      <point x="861" y="617"/>
      <point x="851" y="618"/>
      <point x="836" y="619" type="curve"/>
      <point x="836" y="619"/>
      <point x="811" y="619"/>
      <point x="791" y="620" type="curve"/>
      <point x="791" y="671" type="line"/>
      <point x="1042" y="671" type="line" name="n35"/>
    </contour>
  </outline>
</glyph>
<glyph name="Y" format="2">
  <advance width="681"/>
  <unicode hex="0059"/>
  <outline>
    <contour>
      <point x="753" y="621" type="line"/>
      <point x="689" y="616" type="line"/>
      <point x="682" y="615"/>
      <point x="674" y="608"/>
      <point x="671" y="604" type="curve" smooth="yes"/>
      <point x="417" y="281" type="line"/>
      <point x="375" y="70" type="line"/>
      <point x="372" y="58"/>
      <point x="379" y="56"/>
      <point x="393" y="55" type="curve"/>
      <point x="393" y="55"/>
      <point x="422" y="53"/>
      <point x="450" y="50" type="curve"/>
      <point x="450" y="0" type="line" name="n13"/>
      <point x="148" y="0" type="line"/>
      <point x="148" y="50" type="line"/>
      <point x="175" y="53"/>
      <point x="205" y="55"/>
      <point x="205" y="55" type="curve"/>
      <point x="218" y="56"/>
      <point x="227" y="58"/>
      <point x="230" y="71" type="curve"/>
      <point x="271" y="273" type="line"/>
      <point x="159" y="605" type="line"/>
      <point x="156" y="616"/>
      <point x="146" y="616"/>
      <point x="134" y="617" type="curve"/>
      <point x="134" y="617"/>
      <point x="107" y="619"/>
      <point x="84" y="621" type="curve"/>
      <point x="84" y="671" type="line"/>
      <point x="385" y="671" type="line"/>
      <point x="385" y="621" type="line"/>
      <point x="355" y="619"/>
      <point x="323" y="617"/>
      <point x="323" y="617" type="curve"/>
      <point x="312" y="617"/>
      <point x="302" y="614"/>
      <point x="307" y="601" type="curve"/>
      <point x="376" y="384" type="line"/>
      <point x="541" y="602" type="line"/>
      <point x="545" y="607"/>
      <point x="544" y="616"/>
      <point x="529" y="617" type="curve" smooth="yes"/>
      <point x="470" y="621" type="line"/>
      <point x="470" y="671" type="line"/>
      <point x="753" y="671" type="line"/>
    </contour>
  </outline>
</glyph>
<glyph name="grave" format="2">
  <advance width="423"/>
  <unicode hex="0060"/>
  <outline>
    <contour>
      <point x="342" y="551" type="line" name="n00"/>
      <point x="272" y="551" type="line"/>
      <point x="110" y="639" type="line" smooth="yes"/>
      <point x="96" y="647"/>
      <point x="85" y="668"/>
      <point x="85" y="681" type="curve" smooth="yes"/>
      <point x="85" y="705"/>
      <point x="99" y="734" name="n07"/>
      <point x="142" y="734" type="curve" smooth="yes"/>
      <point x="169" y="734"/>
      <point x="182" y="727"/>
      <point x="205" y="702" type="curve" smooth="yes"/>
    </contour>
  </outline>
</glyph>
<glyph name="f" format="2">
  <advance width="361"/>
  <unicode hex="0066"/>
  <outline>
    <contour>
      <point x="482" y="661.608" type="curve" smooth="yes"/>
      <point x="482" y="640"/>
      <point x="467" y="610"/>
      <point x="396" y="600" type="curve"/>
      <point x="334" y="659" type="line"/>
      <point x="279" y="611"/>
      <point x="268" y="507"/>
      <point x="264" y="459" type="curve"/>
      <point x="386" y="459" type="line" name="n08"/>
      <point x="386" y="399" type="line" name="n09"/>
      <point x="254" y="399" type="line"/>
      <point x="248" y="343"/>
      <point x="212" y="94"/>
      <point x="194.817" y="23.2701" type="curve" smooth="yes"/>
      <point x="169" y="-83"/>
      <point x="78" y="-230" name="n15"/>
      <point x="-38.7118" y="-230" type="curve" smooth="yes"/>
      <point x="-104" y="-230"/>
      <point x="-130" y="-184"/>
      <point x="-130" y="-157.044" type="curve" smooth="yes"/>
      <point x="-130" y="-134"/>
      <point x="-111" y="-105"/>
      <point x="-84" y="-86" type="curve"/>
      <point x="6" y="-143" type="line"/>
      <point x="37" y="-99"/>
      <point x="57" y="-22"/>
      <point x="71.0552" y="53.3867" type="curve" smooth="yes"/>
      <point x="90" y="155"/>
      <point x="105" y="269"/>
      <point x="120" y="396" type="curve"/>
      <point x="44" y="388" type="line"/>
      <point x="46" y="435.61" type="line"/>
      <point x="132" y="466" type="line"/>
      <point x="152" y="565"/>
      <point x="208" y="737" name="n34"/>
      <point x="366.577" y="737" type="curve" smooth="yes"/>
      <point x="444" y="737"/>
      <point x="482" y="696"/>
    </contour>
  </outline>
</glyph>
<glyph name="n" format="2">
  <advance width="578"/>
  <unicode hex="006E"/>
  <anchor x="320" y="560" name="top"/>
  <outline>
    <contour>
      <point x="574" y="23" type="line"/>
      <point x="539" y="6"/>
      <point x="464" y="-12" name="n02"/>
      <point x="412.435" y="-12" type="curve" smooth="yes"/>
      <point x="376.818" y="-12"/>
      <point x="315.814" y="-3.41282"/>
      <point x="315.812" y="40.0212" type="curve" smooth="yes"/>
      <point x="315.811" y="43.4583"/>
      <point x="316.193" y="47.1135"/>
      <point x="317" y="51" type="curve" smooth="yes"/>
      <point x="378" y="356" type="line" smooth="yes"/>
      <point x="380.355" y="367.538"/>
      <point x="381.434" y="377.246"/>
      <point x="381.434" y="385.347" type="curve" smooth="yes" name="n13"/>
      <point x="381.434" y="411.648"/>
      <point x="370.055" y="421"/>
      <point x="354" y="421" type="curve" smooth="yes" name="n16"/>
      <point x="323" y="421"/>
      <point x="270" y="382"/>
      <point x="228" y="339" type="curve"/>
      <point x="157" y="0" type="line" name="n20"/>
      <point x="24" y="0" type="line"/>
      <point x="112" y="425" type="line"/>
      <point x="28" y="433" type="line"/>
      <point x="28" y="467" type="line"/>
      <point x="192" y="500" type="line"/>
      <point x="261" y="500" type="line"/>
      <point x="249" y="442" type="line"/>
      <point x="298" y="475"/>
      <point x="358" y="500"/>
      <point x="410" y="500" type="curve" smooth="yes" name="n30"/>
      <point x="491.853" y="500"/>
      <point x="523.457" y="469.18"/>
      <point x="523.457" y="411.38" type="curve" smooth="yes" name="n33"/>
      <point x="523.457" y="398.565"/>
      <point x="521.904" y="384.425"/>
      <point x="519" y="369" type="curve" smooth="yes"/>
      <point x="465" y="88" type="line" smooth="yes"/>
      <point x="464.25" y="83.875"/>
      <point x="463.906" y="80.1719"/>
      <point x="463.906" y="76.8496" type="curve"/>
      <point x="463.905" y="53.5938"/>
      <point x="480.742" y="49"/>
      <point x="492.934" y="49" type="curve" smooth="yes"/>
      <point x="510" y="49"/>
      <point x="542" y="58"/>
      <point x="572" y="71" type="curve"/>
    </contour>
  </outline>
</glyph>
<glyph name="o" format="2">
  <advance width="553"/>
  <unicode hex="006F"/>
  <anchor x="320" y="570" name="top"/>
  <outline>
    <contour>
      <point x="522" y="300.695" type="curve" smooth="yes" name="n00"/>
      <point x="522" y="146"/>
      <point x="414" y="-12"/>
      <point x="228.579" y="-12" type="curve" smooth="yes" name="n03"/>
      <point x="95" y="-12"/>
      <point x="32" y="70"/>
      <point x="32" y="187.614" type="curve" smooth="yes" name="n06"/>
      <point x="32" y="338"/>
      <point x="135" y="500"/>
      <point x="322.45" y="500" type="curve" smooth="yes" name="n09"/>
      <point x="443" y="500"/>
      <point x="522" y="433"/>
    </contour>
    <contour>
      <point x="378" y="304.821" type="curve" smooth="yes" name="n12"/>
      <point x="378" y="405"/>
      <point x="334" y="447"/>
      <point x="302.601" y="447" type="curve" smooth="yes" name="n15"/>
      <point x="248" y="447"/>
      <point x="175" y="320"/>
      <point x="175" y="187.322" type="curve" smooth="yes" name="n18"/>
      <point x="175" y="82"/>
      <point x="221" y="43"/>
      <point x="253.053" y="43" type="curve" smooth="yes" name="n21"/>
      <point x="314" y="43"/>
      <point x="378" y="184"/>
    </contour>
  </outline>
</glyph>
<glyph name="q" format="2">
  <advance width="569"/>
  <unicode hex="0071"/>
  <outline>
    <contour>
      <point x="538" y="500" type="line"/>
      <point x="408" y="-152" type="line"/>
      <point x="407.594" y="-159.454"/>
      <point x="410.42" y="-167.285"/>
      <point x="419" y="-168" type="curve" smooth="yes"/>
      <point x="491" y="-174" type="line"/>
      <point x="491" y="-219" type="line" name="n06"/>
      <point x="197" y="-219" type="line"/>
      <point x="197" y="-174" type="line"/>
      <point x="258" y="-168" type="line" smooth="yes"/>
      <point x="267.232" y="-167.092"/>
      <point x="273.017" y="-161.86"/>
      <point x="275" y="-152" type="curve" smooth="yes"/>
      <point x="310" y="22" type="line"/>
      <point x="268.064" y="-2.11345"/>
      <point x="227.099" y="-14"/>
      <point x="185.934" y="-14" type="curve" smooth="yes" name="n16"/>
      <point x="89.7817" y="-14"/>
      <point x="34" y="51.5556"/>
      <point x="34" y="168.606" type="curve" smooth="yes" name="n19"/>
      <point x="34" y="349.518"/>
      <point x="167.252" y="500"/>
      <point x="332.244" y="500" type="curve" smooth="yes" name="n22"/>
      <point x="365.619" y="500"/>
      <point x="397.762" y="493.843"/>
      <point x="425" y="482" type="curve"/>
      <point x="441" y="500" type="line"/>
    </contour>
    <contour>
      <point x="383" y="390" type="line"/>
      <point x="383.153" y="410.35"/>
      <point x="362.993" y="445"/>
      <point x="351" y="445" type="curve" smooth="yes" name="n30"/>
      <point x="253.939" y="445"/>
      <point x="171" y="316.282"/>
      <point x="171" y="165.647" type="curve" smooth="yes" name="n33"/>
      <point x="171" y="90.9953"/>
      <point x="190.788" y="56"/>
      <point x="233" y="56" type="curve" smooth="yes" name="n36"/>
      <point x="264.354" y="56"/>
      <point x="296.52" y="75.9765"/>
      <point x="328" y="115" type="curve"/>
    </contour>
  </outline>
</glyph>
<glyph name="u" format="2">
  <advance width="574"/>
  <unicode hex="0075"/>
  <anchor x="320" y="570" name="top"/>
  <outline>
    <contour>
      <point x="572" y="28" type="line"/>
      <point x="545" y="13"/>
      <point x="471" y="-12"/>
      <point x="414" y="-12" type="curve" smooth="yes"/>
      <point x="345" y="-12"/>
      <point x="332" y="21"/>
      <point x="329" y="35" type="curve"/>
      <point x="285" y="5"/>
      <point x="235" y="-12"/>
      <point x="170" y="-12" type="curve" smooth="yes" name="n09"/>
      <point x="71" y="-12"/>
      <point x="35" y="63"/>
      <point x="47" y="117" type="curve" smooth="yes"/>
      <point x="112" y="424" type="line"/>
      <point x="28" y="433" type="line"/>
      <point x="28" y="467" type="line"/>
      <point x="193" y="500" type="line" name="n16"/>
      <point x="262" y="500" type="line"/>
      <point x="180" y="117" type="line" smooth="yes"/>
      <point x="174" y="86"/>
      <point x="188" y="58"/>
      <point x="213" y="58" type="curve" smooth="yes" name="n21"/>
      <point x="258" y="58"/>
      <point x="297" y="85"/>
      <point x="333" y="118" type="curve"/>
      <point x="411" y="488" type="line"/>
      <point x="544" y="488" type="line"/>
      <point x="462" y="100" type="line" smooth="yes"/>
      <point x="454" y="63"/>
      <point x="467" y="48"/>
      <point x="488" y="48" type="curve" smooth="yes"/>
      <point x="498" y="48"/>
      <point x="511" y="52"/>
      <point x="572" y="84" type="curve"/>
    </contour>
  </outline>
</glyph>
<glyph name="y" format="2">
  <advance width="542"/>
  <unicode hex="0079"/>
  <outline>
    <contour>
      <point x="572" y="444" type="line"/>
      <point x="520" y="412" type="line"/>
      <point x="504" y="397"/>
      <point x="456" y="322"/>
      <point x="438" y="281" type="curve" smooth="yes"/>
      <point x="409" y="217"/>
      <point x="358" y="94"/>
      <point x="295" y="-14" type="curve" smooth="yes"/>
      <point x="228" y="-130"/>
      <point x="145" y="-229"/>
      <point x="24" y="-229" type="curve" smooth="yes" name="n10"/>
      <point x="-57" y="-229"/>
      <point x="-81" y="-181"/>
      <point x="-81" y="-153" type="curve" smooth="yes"/>
      <point x="-81" y="-120"/>
      <point x="-62" y="-72"/>
      <point x="0" y="-70" type="curve" name="n16"/>
      <point x="43" y="-146" type="line"/>
      <point x="88" y="-136"/>
      <point x="138" y="-81"/>
      <point x="194" y="21" type="curve"/>
      <point x="191" y="37"/>
      <point x="173" y="135"/>
      <point x="152" y="230" type="curve" smooth="yes"/>
      <point x="132" y="322"/>
      <point x="118" y="424"/>
      <point x="109" y="424" type="curve"/>
      <point x="3" y="432" type="line"/>
      <point x="3" y="463" type="line"/>
      <point x="26" y="471"/>
      <point x="124" y="500" name="n30"/>
      <point x="145" y="500" type="curve" smooth="yes"/>
      <point x="190" y="500"/>
      <point x="217" y="496"/>
      <point x="245" y="402" type="curve" smooth="yes"/>
      <point x="259" y="356"/>
      <point x="276" y="276"/>
      <point x="292" y="198" type="curve"/>
      <point x="429" y="500" type="line"/>
      <point x="477" y="500" type="line"/>
      <point x="572" y="470" type="line"/>
    </contour>
  </outline>
</glyph>
<glyph name="z" format="2">
  <advance width="491"/>
  <unicode hex="007A"/>
  <outline>
    <contour>
      <point x="498" y="470" type="line"/>
      <point x="168" y="92.4791" type="line"/>
      <point x="231" y="105.54" type="line"/>
      <point x="267.855" y="82.2444"/>
      <point x="288.278" y="73.3907"/>
      <point x="305.157" y="73.3907" type="curve" smooth="yes" name="n05"/>
      <point x="327.883" y="73.3907"/>
      <point x="366.313" y="89.6549"/>
      <point x="374" y="102.526" type="curve"/>
      <point x="314" y="166.823" type="line"/>
      <point x="326.208" y="184.345"/>
      <point x="367.868" y="205"/>
      <point x="392.401" y="205" type="curve" smooth="yes"/>
      <point x="424.533" y="205"/>
      <point x="453" y="169.566"/>
      <point x="453" y="129.757" type="curve" smooth="yes"/>
      <point x="453" y="59.5474"/>
      <point x="364.451" y="-11"/>
      <point x="278.751" y="-11" type="curve" smooth="yes" name="n18"/>
      <point x="243.538" y="-11"/>
      <point x="200.303" y="1.43231"/>
      <point x="167.282" y="21.053" type="curve" smooth="yes"/>
      <point x="156.512" y="27.4523"/>
      <point x="147.551" y="31.1953"/>
      <point x="143" y="31.1953" type="curve" smooth="yes"/>
      <point x="134" y="31.1953"/>
      <point x="126" y="31.1953"/>
      <point x="122" y="25.1674" type="curve"/>
      <point x="85" y="-39" type="line"/>
      <point x="-16" y="16.1256" type="line"/>
      <point x="314" y="396" type="line"/>
      <point x="251" y="383" type="line"/>
      <point x="220.125" y="404.631"/>
      <point x="196.933" y="415"/>
      <point x="178.427" y="415" type="curve" smooth="yes" name="n34"/>
      <point x="155.5" y="415"/>
      <point x="116.851" y="399.086"/>
      <point x="109" y="386" type="curve"/>
      <point x="168" y="323" type="line"/>
      <point x="158.586" y="305.742"/>
      <point x="116.218" y="284" name="hr01"/>
      <point x="90.8182" y="284" type="curve" smooth="yes" name="n41"/>
      <point x="58.4672" y="284"/>
      <point x="30" y="319.27"/>
      <point x="30" y="358.919" type="curve" smooth="yes"/>
      <point x="30" y="428.819"/>
      <point x="118.476" y="500"/>
      <point x="203" y="500" type="curve" smooth="yes" name="n47"/>
      <point x="247.485" y="500"/>
      <point x="286.835" y="481.597"/>
      <point x="314.074" y="468.87" type="curve" smooth="yes"/>
      <point x="333.956" y="459.58"/>
      <point x="340.915" y="457"/>
      <point x="346.089" y="457" type="curve" smooth="yes"/>
      <point x="351.257" y="457"/>
      <point x="357.52" y="459.52"/>
      <point x="361" y="463" type="curve"/>
      <point x="388" y="526" type="line"/>
    </contour>
  </outline>
</glyph>
<glyph name="yen" format="2">
  <advance width="598"/>
  <unicode hex="00A5"/>
  <outline>
    <contour>
      <point x="695" y="621" type="line"/>
      <point x="634" y="609" type="line"/>
      <point x="493" y="428" type="line"/>
      <point x="592" y="428" type="line" name="n03"/>
      <point x="592" y="373" type="line" name="n04"/>
      <point x="450" y="373" type="line"/>
      <point x="382" y="286" type="line"/>
      <point x="564" y="286" type="line" name="n07"/>
      <point x="564" y="231" type="line" name="n08"/>
      <point x="368" y="231" type="line"/>
      <point x="335" y="70" type="line"/>
      <point x="333" y="58"/>
      <point x="340" y="56"/>
      <point x="354" y="55" type="curve"/>
      <point x="354" y="55"/>
      <point x="383" y="53"/>
      <point x="411" y="50" type="curve"/>
      <point x="411" y="0" type="line"/>
      <point x="109" y="0" type="line" name="n18"/>
      <point x="109" y="50" type="line"/>
      <point x="136" y="53"/>
      <point x="166" y="55"/>
      <point x="166" y="55" type="curve" name="n22"/>
      <point x="179" y="56"/>
      <point x="188" y="58"/>
      <point x="191" y="71" type="curve"/>
      <point x="223" y="231" type="line"/>
      <point x="28" y="231" type="line"/>
      <point x="28" y="286" type="line"/>
      <point x="227" y="286" type="line"/>
      <point x="198" y="373" type="line"/>
      <point x="56" y="373" type="line"/>
      <point x="56" y="428" type="line"/>
      <point x="180" y="428" type="line"/>
      <point x="120" y="610" type="line"/>
      <point x="55" y="621" type="line"/>
      <point x="55" y="671" type="line" name="n36"/>
      <point x="341" y="671" type="line"/>
      <point x="341" y="621" type="line"/>
      <point x="311" y="619"/>
      <point x="284" y="617"/>
      <point x="284" y="617" type="curve"/>
      <point x="273" y="616"/>
      <point x="263" y="614"/>
      <point x="268" y="601" type="curve"/>
      <point x="337" y="384" type="line"/>
      <point x="501" y="602" type="line"/>
      <point x="506" y="607"/>
      <point x="505" y="616"/>
      <point x="490" y="617" type="curve" smooth="yes"/>
      <point x="440" y="621" type="line"/>
      <point x="440" y="671" type="line"/>
      <point x="695" y="671" type="line"/>
    </contour>
  </outline>
</glyph>
<glyph name="logicalnot" format="2">
  <advance width="620"/>
  <unicode hex="00AC"/>
  <outline>
    <contour>
      <point x="580" y="189" type="line" name="n00"/>
      <point x="520" y="189" type="line" name="n01"/>
      <point x="520" y="360" type="line" name="hr01"/>
      <point x="40" y="360" type="line" name="n03"/>
      <point x="40" y="420" type="line" name="n04"/>
      <point x="580" y="420" type="line" name="n05"/>
    </contour>
  </outline>
</glyph>
<glyph name="registered" format="2">
  <advance width="836"/>
  <unicode hex="00AE"/>
  <outline>
    <contour>
      <point x="825" y="350" type="curve" smooth="yes" name="n00"/>
      <point x="825" y="135"/>
      <point x="652" y="-39"/>
      <point x="437" y="-39" type="curve" smooth="yes" name="n03"/>
      <point x="225" y="-39"/>
      <point x="51" y="135"/>
      <point x="51" y="350" type="curve" smooth="yes" name="n06"/>
      <point x="51" y="564"/>
      <point x="225" y="739"/>
      <point x="439" y="739" type="curve" smooth="yes" name="n09"/>
      <point x="650" y="739"/>
      <point x="825" y="565"/>
    </contour>
    <contour>
      <point x="777" y="350" type="curve" smooth="yes" name="n12"/>
      <point x="777" y="539"/>
      <point x="626" y="692"/>
      <point x="439" y="692" type="curve" smooth="yes" name="n15"/>
      <point x="253" y="692"/>
      <point x="99" y="541"/>
      <point x="99" y="348" type="curve" smooth="yes" name="n18"/>
      <point x="99" y="162"/>
      <point x="250" y="8"/>
      <point x="438" y="8" type="curve" smooth="yes" name="n21"/>
      <point x="626" y="8"/>
      <point x="777" y="163"/>
    </contour>
    <contour>
      <point x="672" y="142" type="line"/>
      <point x="643" y="138"/>
      <point x="627" y="138"/>
      <point x="610" y="138" type="curve" smooth="yes" name="n27"/>
      <point x="437" y="138"/>
      <point x="517" y="333"/>
      <point x="385" y="333" type="curve" smooth="yes" name="n30"/>
      <point x="380" y="333"/>
      <point x="380" y="334"/>
      <point x="372" y="334" type="curve"/>
      <point x="372" y="193" type="line" smooth="yes" name="n34"/>
      <point x="372" y="184"/>
      <point x="380" y="178"/>
      <point x="387" y="178" type="curve"/>
      <point x="424" y="175" type="line"/>
      <point x="424" y="142" type="line"/>
      <point x="226" y="142" type="line"/>
      <point x="226" y="175" type="line"/>
      <point x="261" y="178" type="line"/>
      <point x="269" y="178"/>
      <point x="276" y="184"/>
      <point x="276" y="193" type="curve" smooth="yes" name="n45"/>
      <point x="276" y="529" type="line" smooth="yes"/>
      <point x="276" y="537"/>
      <point x="269" y="542"/>
      <point x="261" y="543" type="curve" smooth="yes"/>
      <point x="226" y="547" type="line"/>
      <point x="226" y="580" type="line"/>
      <point x="448" y="580" type="line" smooth="yes" name="n52"/>
      <point x="496" y="580"/>
      <point x="592" y="564"/>
      <point x="592" y="471" type="curve" smooth="yes" name="n55"/>
      <point x="592" y="383"/>
      <point x="512" y="362"/>
      <point x="476" y="357" type="curve"/>
      <point x="624" y="327"/>
      <point x="533" y="158"/>
      <point x="672" y="175" type="curve" name="n61"/>
    </contour>
    <contour>
      <point x="492" y="448" type="curve" smooth="yes" name="n62"/>
      <point x="492" y="503"/>
      <point x="457" y="530"/>
      <point x="393" y="530" type="curve" smooth="yes" name="n65"/>
      <point x="372" y="530" type="line"/>
      <point x="372" y="362" type="line"/>
      <point x="384" y="361"/>
      <point x="390" y="361"/>
      <point x="394" y="361" type="curve" smooth="yes" name="n70"/>
      <point x="435" y="361"/>
      <point x="492" y="374"/>
    </contour>
  </outline>
</glyph>
<glyph name="twosuperior" format="2">
  <advance width="389"/>
  <unicode hex="00B2"/>
  <outline>
    <contour>
      <point x="435" y="704" type="curve" smooth="yes" name="n00"/>
      <point x="435" y="592"/>
      <point x="251" y="491"/>
      <point x="168" y="438" type="curve"/>
      <point x="334" y="438" type="line" name="n04"/>
      <point x="356" y="488" type="line"/>
      <point x="406" y="488" type="line"/>
      <point x="385" y="383" type="line" name="n07"/>
      <point x="46" y="383" type="line"/>
      <point x="55" y="425" type="line"/>
      <point x="244" y="547"/>
      <point x="333" y="611"/>
      <point x="333" y="697" type="curve" smooth="yes" name="n12"/>
      <point x="333" y="744"/>
      <point x="300" y="756"/>
      <point x="280" y="756" type="curve" smooth="yes" name="n15"/>
      <point x="262" y="756"/>
      <point x="242" y="749"/>
      <point x="234" y="745" type="curve"/>
      <point x="220" y="683" type="line"/>
      <point x="212" y="678"/>
      <point x="205" y="667"/>
      <point x="176" y="667" type="curve" smooth="yes"/>
      <point x="147" y="667"/>
      <point x="127" y="684"/>
      <point x="127" y="704" type="curve" smooth="yes"/>
      <point x="127" y="759"/>
      <point x="198" y="795"/>
      <point x="301" y="795" type="curve" smooth="yes" name="n28"/>
      <point x="385" y="795"/>
      <point x="435" y="766"/>
    </contour>
  </outline>
</glyph>
<glyph name="threesuperior" format="2">
  <advance width="389"/>
  <unicode hex="00B3"/>
  <outline>
    <contour>
      <point x="433" y="708" type="curve" smooth="yes" name="n00"/>
      <point x="433" y="668"/>
      <point x="399" y="623"/>
      <point x="319" y="598" type="curve"/>
      <point x="376" y="588"/>
      <point x="406" y="564" name="hr01"/>
      <point x="406" y="521" type="curve" smooth="yes" name="n06"/>
      <point x="406" y="448"/>
      <point x="325" y="373"/>
      <point x="197" y="373" type="curve" smooth="yes" name="n09"/>
      <point x="103" y="373"/>
      <point x="66" y="414"/>
      <point x="66" y="441" type="curve" smooth="yes"/>
      <point x="66" y="453"/>
      <point x="83" y="485" name="hr02"/>
      <point x="117" y="485" type="curve" smooth="yes" name="n15"/>
      <point x="137" y="485"/>
      <point x="147" y="475"/>
      <point x="156" y="471" type="curve"/>
      <point x="166" y="420" type="line"/>
      <point x="171" y="418"/>
      <point x="191" y="410" name="hr03"/>
      <point x="204" y="410" type="curve" smooth="yes" name="n22"/>
      <point x="250" y="410"/>
      <point x="307" y="451"/>
      <point x="307" y="512" type="curve" smooth="yes" name="n25"/>
      <point x="307" y="569"/>
      <point x="255" y="573"/>
      <point x="248" y="573" type="curve" smooth="yes" name="n28"/>
      <point x="236" y="573"/>
      <point x="225" y="571"/>
      <point x="188" y="566" type="curve"/>
      <point x="195" y="613" type="line" name="n32"/>
      <point x="274" y="609"/>
      <point x="332" y="643" name="hr04"/>
      <point x="332" y="700" type="curve" smooth="yes" name="n35"/>
      <point x="332" y="748"/>
      <point x="289" y="758"/>
      <point x="280" y="758" type="curve" smooth="yes" name="n38"/>
      <point x="257" y="758"/>
      <point x="240" y="748"/>
      <point x="233" y="743" type="curve"/>
      <point x="223" y="687" type="line"/>
      <point x="214" y="683"/>
      <point x="192" y="674"/>
      <point x="177" y="674" type="curve" smooth="yes"/>
      <point x="158" y="674"/>
      <point x="133" y="693"/>
      <point x="133" y="715" type="curve" smooth="yes"/>
      <point x="133" y="761"/>
      <point x="209" y="795"/>
      <point x="302" y="795" type="curve" smooth="yes" name="n51"/>
      <point x="393" y="795"/>
      <point x="433" y="761"/>
    </contour>
  </outline>
</glyph>
<glyph name="paragraph" format="2">
  <advance width="535"/>
  <unicode hex="00B6"/>
  <outline>
    <contour>
      <point x="532" y="614" type="line"/>
      <point x="470" y="604" type="line"/>
      <point x="470" y="-79" type="line" name="n02"/>
      <point x="397" y="-79" type="line" name="n03"/>
      <point x="397" y="607" type="line"/>
      <point x="321" y="607" type="line" name="n05"/>
      <point x="321" y="270" type="line"/>
      <point x="163" y="270"/>
      <point x="51" y="308"/>
      <point x="51" y="469" type="curve" smooth="yes" name="n09"/>
      <point x="51" y="621"/>
      <point x="145" y="671"/>
      <point x="298" y="671" type="curve" smooth="yes" name="n12"/>
      <point x="532" y="671" type="line"/>
    </contour>
  </outline>
</glyph>
<glyph name="onesuperior" format="2">
  <advance width="389"/>
  <unicode hex="00B9"/>
  <outline>
    <contour>
      <point x="371" y="795" type="line" name="n00"/>
      <point x="292" y="428" type="line"/>
      <point x="291" y="424"/>
      <point x="298" y="421"/>
      <point x="305" y="420" type="curve" name="n04"/>
      <point x="354" y="416" type="line"/>
      <point x="354" y="383" type="line" name="n06"/>
      <point x="123" y="383" type="line"/>
      <point x="123" y="416" type="line"/>
      <point x="189" y="420" type="line"/>
      <point x="195" y="420"/>
      <point x="200" y="424"/>
      <point x="201" y="429" type="curve" smooth="yes"/>
      <point x="265" y="732" type="line"/>
      <point x="165" y="720" type="line"/>
      <point x="165" y="753" type="line"/>
      <point x="327" y="795" type="line"/>
    </contour>
  </outline>
</glyph>
<glyph name="Dcroat" format="2">
  <advance width="712"/>
  <unicode hex="0110"/>
  <outline>
    <contour>
      <point x="20" y="321" type="line" name="n00"/>
      <point x="20" y="384" type="line" name="n01"/>
      <point x="391" y="384" type="line"/>
      <point x="391" y="321" type="line"/>
    </contour>
    <contour>
      <point x="695" y="414" type="curve" smooth="yes" name="n04"/>
      <point x="695" y="176"/>
      <point x="523" y="0"/>
      <point x="241" y="0" type="curve" smooth="yes" name="n07"/>
      <point x="-15" y="0" type="line"/>
      <point x="-15" y="50" type="line"/>
      <point x="14" y="53"/>
      <point x="45" y="54"/>
      <point x="45" y="54" type="curve"/>
      <point x="61" y="55"/>
      <point x="64" y="57"/>
      <point x="67" y="71" type="curve" smooth="yes"/>
      <point x="171" y="601" type="line"/>
      <point x="173" y="613"/>
      <point x="165" y="615"/>
      <point x="153" y="616" type="curve"/>
      <point x="153" y="616"/>
      <point x="123" y="618"/>
      <point x="95" y="621" type="curve"/>
      <point x="95" y="671" type="line"/>
      <point x="355" y="671" type="line" smooth="yes" name="n24"/>
      <point x="562" y="671"/>
      <point x="695" y="598"/>
    </contour>
    <contour>
      <point x="545" y="423" type="curve" smooth="yes" name="n27"/>
      <point x="545" y="588"/>
      <point x="433" y="608"/>
      <point x="330" y="611" type="curve" name="n30"/>
      <point x="316" y="611" type="line"/>
      <point x="208" y="62" type="line"/>
      <point x="259" y="62" type="line" name="n33"/>
      <point x="435" y="64"/>
      <point x="545" y="232"/>
    </contour>
  </outline>
</glyph>
<glyph name="gcedilla" format="2">
  <advance width="485"/>
  <unicode hex="0123"/>
  <outline>
    <contour>
      <point x="533" y="417" type="line" name="n00"/>
      <point x="441" y="417" type="line"/>
      <point x="447" y="402"/>
      <point x="452" y="379"/>
      <point x="452" y="355" type="curve" smooth="yes" name="n04"/>
      <point x="452" y="256"/>
      <point x="375" y="160"/>
      <point x="230" y="159" type="curve" name="n07"/>
      <point x="223" y="140"/>
      <point x="219" y="119"/>
      <point x="221" y="108" type="curve"/>
      <point x="354" y="48" type="line" smooth="yes"/>
      <point x="418" y="20"/>
      <point x="460" y="-5" name="hr01"/>
      <point x="460" y="-63" type="curve" smooth="yes" name="n14"/>
      <point x="460" y="-147"/>
      <point x="335" y="-229"/>
      <point x="184" y="-229" type="curve" smooth="yes" name="n17"/>
      <point x="26" y="-229"/>
      <point x="-31" y="-151"/>
      <point x="-31" y="-79" type="curve" smooth="yes" name="n20"/>
      <point x="-31" y="-11"/>
      <point x="28" y="35"/>
      <point x="103" y="61" type="curve"/>
      <point x="98" y="92"/>
      <point x="115" y="145"/>
      <point x="141" y="172" type="curve"/>
      <point x="88" y="197"/>
      <point x="49" y="234" name="hr02"/>
      <point x="49" y="297" type="curve" smooth="yes" name="n29"/>
      <point x="49" y="390"/>
      <point x="119" y="500"/>
      <point x="274" y="500" type="curve" smooth="yes" name="n32"/>
      <point x="324" y="500"/>
      <point x="368" y="483"/>
      <point x="387" y="475" type="curve" name="hr03"/>
      <point x="533" y="475" type="line" name="n36"/>
    </contour>
    <contour>
      <point x="314" y="360" type="curve" smooth="yes" name="n37"/>
      <point x="314" y="407"/>
      <point x="314" y="448" name="hr04"/>
      <point x="276" y="448" type="curve" smooth="yes" name="n40"/>
      <point x="254" y="448"/>
      <point x="187" y="383"/>
      <point x="187" y="285" type="curve" smooth="yes" name="n43"/>
      <point x="187" y="239"/>
      <point x="191" y="206"/>
      <point x="224" y="206" type="curve" smooth="yes" name="n46"/>
      <point x="290" y="206"/>
      <point x="314" y="299"/>
    </contour>
    <contour>
      <point x="325" y="-83" type="curve" smooth="yes" name="n49"/>
      <point x="325" y="-60" name="hr05"/>
      <point x="313" y="-40"/>
      <point x="276" y="-23" type="curve" smooth="yes"/>
      <point x="164" y="26" type="line"/>
      <point x="120" y="9"/>
      <point x="105" y="-25"/>
      <point x="105" y="-62" type="curve" smooth="yes" name="n56"/>
      <point x="105" y="-105"/>
      <point x="128" y="-173"/>
      <point x="210" y="-173" type="curve" smooth="yes" name="n59"/>
      <point x="301" y="-173"/>
      <point x="325" y="-114"/>
    </contour>
    <contour>
      <point x="234" y="617" type="curve" smooth="yes" name="n62"/>
      <point x="234" y="701"/>
      <point x="333" y="754" name="hr06"/>
      <point x="404" y="767" type="curve"/>
      <point x="396" y="727" type="line"/>
      <point x="363" y="718"/>
      <point x="318" y="689"/>
      <point x="310" y="652" type="curve" name="n69"/>
      <point x="373" y="652" type="line"/>
      <point x="382" y="643"/>
      <point x="386" y="631"/>
      <point x="386" y="619" type="curve" smooth="yes" name="n73"/>
      <point x="386" y="575"/>
      <point x="345" y="550"/>
      <point x="306" y="550" type="curve" smooth="yes" name="n76"/>
      <point x="265" y="550"/>
      <point x="234" y="575"/>
    </contour>
  </outline>
</glyph>
<glyph name="kgreenlandic" format="2">
  <advance width="539"/>
  <unicode hex="0138"/>
  <outline>
    <contour>
      <point x="536" y="448" type="curve" smooth="yes"/>
      <point x="536" y="426"/>
      <point x="520" y="399"/>
      <point x="483" y="373" type="curve"/>
      <point x="421" y="419" type="line"/>
      <point x="393" y="387"/>
      <point x="376" y="334"/>
      <point x="352" y="298" type="curve" smooth="yes"/>
      <point x="337" y="276"/>
      <point x="319" y="256"/>
      <point x="300" y="244" type="curve"/>
      <point x="317" y="236"/>
      <point x="336" y="223"/>
      <point x="342" y="212" type="curve" smooth="yes"/>
      <point x="399" y="101" type="line" smooth="yes"/>
      <point x="404" y="91"/>
      <point x="414" y="83"/>
      <point x="423" y="83" type="curve" smooth="yes" name="n17"/>
      <point x="447" y="83"/>
      <point x="463" y="96"/>
      <point x="493" y="148" type="curve"/>
      <point x="525" y="105" type="line"/>
      <point x="470" y="25"/>
      <point x="432" y="-12"/>
      <point x="372" y="-12" type="curve" smooth="yes" name="n24"/>
      <point x="348" y="-12"/>
      <point x="317" y="5"/>
      <point x="305" y="29" type="curve" smooth="yes"/>
      <point x="221" y="192" type="line"/>
      <point x="217" y="199"/>
      <point x="200" y="203"/>
      <point x="191" y="205" type="curve" name="n31"/>
      <point x="149" y="0" type="line" name="n32"/>
      <point x="16" y="0" type="line"/>
      <point x="100" y="422" type="line"/>
      <point x="23" y="435" type="line"/>
      <point x="23" y="466" type="line"/>
      <point x="190" y="500" type="line"/>
      <point x="250" y="500" type="line"/>
      <point x="203" y="264" type="line" name="n39"/>
      <point x="246" y="271"/>
      <point x="275" y="301"/>
      <point x="298" y="344" type="curve" smooth="yes"/>
      <point x="321" y="385"/>
      <point x="333" y="432"/>
      <point x="381" y="472" type="curve" smooth="yes"/>
      <point x="402" y="489"/>
      <point x="422" y="500" name="n47"/>
      <point x="463" y="500" type="curve" smooth="yes"/>
      <point x="503" y="500"/>
      <point x="536" y="478"/>
    </contour>
  </outline>
</glyph>
<glyph name="Lcaron" format="2">
  <advance width="560"/>
  <unicode hex="013D"/>
  <outline>
    <contour>
      <point x="528" y="202" type="line"/>
      <point x="488" y="0" type="line" name="n01"/>
      <point x="-15" y="0" type="line"/>
      <point x="-15" y="50" type="line"/>
      <point x="12" y="53"/>
      <point x="42" y="54"/>
      <point x="42" y="54" type="curve"/>
      <point x="61" y="56"/>
      <point x="65" y="58"/>
      <point x="67" y="71" type="curve"/>
      <point x="171" y="601" type="line"/>
      <point x="174" y="612"/>
      <point x="166" y="615"/>
      <point x="155" y="616" type="curve"/>
      <point x="155" y="616"/>
      <point x="125" y="618"/>
      <point x="96" y="621" type="curve"/>
      <point x="96" y="671" type="line" name="n17"/>
      <point x="398" y="671" type="line"/>
      <point x="398" y="621" type="line" name="hr02"/>
      <point x="365" y="618"/>
      <point x="333" y="616"/>
      <point x="333" y="616" type="curve"/>
      <point x="324" y="615"/>
      <point x="317" y="612"/>
      <point x="314" y="600" type="curve"/>
      <point x="208" y="60" type="line"/>
      <point x="384" y="60" type="line" smooth="yes" name="n27"/>
      <point x="394" y="60"/>
      <point x="409" y="66"/>
      <point x="412" y="74" type="curve"/>
      <point x="453" y="202" type="line" name="n31"/>
    </contour>
    <contour>
      <point x="604" y="656" type="curve" smooth="yes" name="n32"/>
      <point x="604" y="572"/>
      <point x="505" y="520"/>
      <point x="434" y="507" type="curve"/>
      <point x="442" y="547" type="line"/>
      <point x="475" y="556"/>
      <point x="520" y="584"/>
      <point x="528" y="621" type="curve" name="n39"/>
      <point x="465" y="621" type="line"/>
      <point x="456" y="630"/>
      <point x="452" y="642"/>
      <point x="452" y="654" type="curve" smooth="yes" name="n43"/>
      <point x="452" y="698"/>
      <point x="493" y="723"/>
      <point x="532" y="723" type="curve" smooth="yes" name="n46"/>
      <point x="573" y="723"/>
      <point x="604" y="698"/>
    </contour>
  </outline>
</glyph>
<glyph name="uni0162" format="2">
  <advance width="627"/>
  <unicode hex="0162"/>
  <outline>
    <contour>
      <point x="692" y="671" type="line"/>
      <point x="656" y="496" type="line"/>
      <point x="578" y="496" type="line"/>
      <point x="583" y="603" type="line"/>
      <point x="584" y="612"/>
      <point x="571" y="616" name="hr01"/>
      <point x="561" y="616" type="curve" smooth="yes"/>
      <point x="452" y="616" type="line"/>
      <point x="349" y="70" type="line" smooth="yes"/>
      <point x="347" y="58"/>
      <point x="356" y="56"/>
      <point x="368" y="55" type="curve"/>
      <point x="368" y="55"/>
      <point x="399" y="53"/>
      <point x="426" y="50" type="curve"/>
      <point x="426" y="0" type="line" name="n15"/>
      <point x="124" y="0" type="line"/>
      <point x="124" y="50" type="line"/>
      <point x="150" y="52"/>
      <point x="179" y="54"/>
      <point x="179" y="54" type="curve"/>
      <point x="193" y="55"/>
      <point x="204" y="58"/>
      <point x="206" y="71" type="curve"/>
      <point x="309" y="616" type="line"/>
      <point x="206" y="616" type="line" smooth="yes" name="n25"/>
      <point x="197" y="616"/>
      <point x="181" y="611"/>
      <point x="178" y="602" type="curve" smooth="yes"/>
      <point x="140" y="496" type="line" name="hr02"/>
      <point x="62" y="496" type="line" name="n30"/>
      <point x="96" y="671" type="line" name="n31"/>
    </contour>
    <contour>
      <point x="365" y="-113" type="curve" smooth="yes" name="n32"/>
      <point x="365" y="-191"/>
      <point x="290" y="-231"/>
      <point x="220" y="-231" type="curve" smooth="yes" name="n35"/>
      <point x="179" y="-231"/>
      <point x="141" y="-220"/>
      <point x="141" y="-220" type="curve"/>
      <point x="151" y="-170" type="line"/>
      <point x="151" y="-170"/>
      <point x="188" y="-178"/>
      <point x="213" y="-178" type="curve" smooth="yes" name="n42"/>
      <point x="239" y="-178"/>
      <point x="278" y="-171"/>
      <point x="278" y="-137" type="curve" smooth="yes" name="n45"/>
      <point x="278" y="-118"/>
      <point x="261" y="-110"/>
      <point x="241" y="-110" type="curve" smooth="yes"/>
      <point x="234" y="-110"/>
      <point x="218" y="-112"/>
      <point x="218" y="-112" type="curve"/>
      <point x="245" y="24" type="line"/>
      <point x="296" y="24" type="line"/>
      <point x="280" y="-54" type="line"/>
      <point x="280" y="-54"/>
      <point x="284" y="-55"/>
      <point x="294" y="-55" type="curve" smooth="yes"/>
      <point x="334" y="-55"/>
      <point x="365" y="-73"/>
    </contour>
  </outline>
</glyph>
<glyph name="uni0163" format="2">
  <advance width="344"/>
  <unicode hex="0163"/>
  <outline>
    <contour>
      <point x="393" y="418" type="line" name="n00"/>
      <point x="244" y="418" type="line" name="n01"/>
      <point x="181" y="109" type="line"/>
      <point x="174" y="78"/>
      <point x="189" y="57"/>
      <point x="220" y="57" type="curve" smooth="yes"/>
      <point x="251" y="57"/>
      <point x="313" y="81"/>
      <point x="345" y="92" type="curve"/>
      <point x="345" y="37" type="line"/>
      <point x="323" y="27"/>
      <point x="223" y="-12"/>
      <point x="160" y="-12" type="curve" smooth="yes"/>
      <point x="83" y="-12"/>
      <point x="46" y="26"/>
      <point x="46" y="78" type="curve" smooth="yes"/>
      <point x="46" y="91"/>
      <point x="47" y="104"/>
      <point x="50" y="118" type="curve" smooth="yes"/>
      <point x="111" y="416" type="line"/>
      <point x="39" y="408" type="line"/>
      <point x="39" y="449" type="line"/>
      <point x="124" y="483" type="line"/>
      <point x="175" y="586" type="line"/>
      <point x="275" y="586" type="line" name="n24"/>
      <point x="254" y="473" type="line" name="hr01"/>
      <point x="393" y="473" type="line" name="n26"/>
    </contour>
    <contour>
      <point x="242" y="-113" type="curve" smooth="yes"/>
      <point x="242" y="-191"/>
      <point x="167" y="-231"/>
      <point x="97" y="-231" type="curve" smooth="yes" name="n30"/>
      <point x="56" y="-231"/>
      <point x="18" y="-220"/>
      <point x="18" y="-220" type="curve"/>
      <point x="28" y="-170" type="line"/>
      <point x="28" y="-170"/>
      <point x="65" y="-178"/>
      <point x="90" y="-178" type="curve" smooth="yes" name="n37"/>
      <point x="116" y="-178"/>
      <point x="155" y="-171"/>
      <point x="155" y="-137" type="curve" smooth="yes"/>
      <point x="155" y="-118"/>
      <point x="138" y="-110"/>
      <point x="118" y="-110" type="curve" smooth="yes"/>
      <point x="111" y="-110"/>
      <point x="95" y="-112"/>
      <point x="95" y="-112" type="curve"/>
      <point x="122" y="24" type="line"/>
      <point x="173" y="24" type="line"/>
      <point x="157" y="-54" type="line"/>
      <point x="157" y="-54"/>
      <point x="161" y="-55"/>
      <point x="171" y="-55" type="curve" smooth="yes"/>
      <point x="211" y="-55"/>
      <point x="242" y="-73"/>
    </contour>
  </outline>
</glyph>
<glyph name="tcaron" format="2">
  <advance width="344"/>
  <unicode hex="0165"/>
  <outline>
    <contour>
      <point x="393" y="418" type="line" name="n00"/>
      <point x="244" y="418" type="line" name="n01"/>
      <point x="181" y="109" type="line"/>
      <point x="174" y="78"/>
      <point x="189" y="57"/>
      <point x="220" y="57" type="curve" smooth="yes" name="n05"/>
      <point x="251" y="57"/>
      <point x="313" y="81"/>
      <point x="345" y="92" type="curve"/>
      <point x="345" y="37" type="line"/>
      <point x="323" y="27"/>
      <point x="223" y="-12"/>
      <point x="160" y="-12" type="curve" smooth="yes" name="n12"/>
      <point x="83" y="-12"/>
      <point x="46" y="26"/>
      <point x="46" y="78" type="curve" smooth="yes"/>
      <point x="46" y="91"/>
      <point x="47" y="104"/>
      <point x="50" y="118" type="curve" smooth="yes"/>
      <point x="111" y="416" type="line"/>
      <point x="39" y="408" type="line"/>
      <point x="39" y="449" type="line"/>
      <point x="124" y="483" type="line"/>
      <point x="175" y="586" type="line"/>
      <point x="275" y="586" type="line" name="n24"/>
      <point x="254" y="473" type="line" name="hr01"/>
      <point x="393" y="473" type="line" name="n26"/>
    </contour>
    <contour>
      <point x="490" y="700" type="curve" smooth="yes" name="n27"/>
      <point x="490" y="616"/>
      <point x="391" y="564"/>
      <point x="320" y="551" type="curve"/>
      <point x="329" y="591" type="line"/>
      <point x="362" y="600"/>
      <point x="407" y="628"/>
      <point x="415" y="665" type="curve" name="n34"/>
      <point x="352" y="665" type="line"/>
      <point x="343" y="674"/>
      <point x="338" y="686"/>
      <point x="338" y="698" type="curve" smooth="yes" name="n38"/>
      <point x="338" y="742"/>
      <point x="379" y="767"/>
      <point x="418" y="767" type="curve" smooth="yes" name="n41"/>
      <point x="459" y="767"/>
      <point x="490" y="742"/>
    </contour>
  </outline>
</glyph>
<glyph name="tbar" format="2">
  <advance width="344"/>
  <unicode hex="0167"/>
  <outline>
    <contour>
      <point x="358" y="222" type="line" name="n00"/>
      <point x="204" y="222" type="line"/>
      <point x="181" y="109" type="line" smooth="yes"/>
      <point x="174" y="78"/>
      <point x="189" y="57"/>
      <point x="220" y="57" type="curve" smooth="yes" name="n05"/>
      <point x="251" y="57"/>
      <point x="313" y="81"/>
      <point x="345" y="92" type="curve"/>
      <point x="345" y="37" type="line"/>
      <point x="323" y="27"/>
      <point x="223" y="-12"/>
      <point x="160" y="-12" type="curve" smooth="yes" name="n12"/>
      <point x="83" y="-12"/>
      <point x="46" y="26"/>
      <point x="46" y="78" type="curve" smooth="yes"/>
      <point x="46" y="91"/>
      <point x="47" y="104"/>
      <point x="50" y="118" type="curve" smooth="yes"/>
      <point x="71" y="222" type="line"/>
      <point x="20" y="222" type="line"/>
      <point x="20" y="281" type="line"/>
      <point x="83" y="281" type="line"/>
      <point x="111" y="416" type="line"/>
      <point x="39" y="408" type="line"/>
      <point x="39" y="449" type="line"/>
      <point x="124" y="483" type="line"/>
      <point x="175" y="586" type="line"/>
      <point x="275" y="586" type="line" name="n28"/>
      <point x="254" y="473" type="line" name="hr01"/>
      <point x="393" y="473" type="line" name="n30"/>
      <point x="393" y="418" type="line" name="n31"/>
      <point x="244" y="418" type="line" name="n32"/>
      <point x="216" y="281" type="line"/>
      <point x="358" y="281" type="line" name="n34"/>
    </contour>
  </outline>
</glyph>
<glyph name="uni0184" format="2">
  <advance width="629"/>
  <unicode hex="0184"/>
  <outline>
    <contour>
      <point x="50" y="482" type="line"/>
      <point x="332" y="687" type="line"/>
      <point x="269" y="374" type="line"/>
      <point x="285" y="375"/>
      <point x="306" y="376"/>
      <point x="321" y="376" type="curve" smooth="yes" name="n05"/>
      <point x="495" y="376"/>
      <point x="621" y="326"/>
      <point x="592" y="180" type="curve" smooth="yes" name="n08"/>
      <point x="565" y="44"/>
      <point x="458" y="0"/>
      <point x="230" y="0" type="curve" smooth="yes" name="n11"/>
      <point x="-26" y="0" type="line"/>
      <point x="-26" y="51" type="line"/>
      <point x="41" y="56" type="line" smooth="yes"/>
      <point x="53" y="57"/>
      <point x="65" y="65"/>
      <point x="67" y="78" type="curve"/>
      <point x="129" y="395" type="line"/>
    </contour>
    <contour>
      <point x="443" y="187" type="curve" smooth="yes" name="n19"/>
      <point x="466" y="295"/>
      <point x="384" y="320"/>
      <point x="301" y="320" type="curve" smooth="yes" name="n22"/>
      <point x="291" y="320"/>
      <point x="271" y="317"/>
      <point x="258" y="315" type="curve"/>
      <point x="206" y="56" type="line"/>
      <point x="214" y="56"/>
      <point x="225" y="55"/>
      <point x="235" y="55" type="curve" smooth="yes" name="n29"/>
      <point x="350" y="55"/>
      <point x="422" y="87"/>
    </contour>
  </outline>
</glyph>
<glyph name="uni0185" format="2">
  <advance width="532"/>
  <unicode hex="0185"/>
  <outline>
    <contour>
      <point x="501" y="311" type="curve" smooth="yes" name="n00"/>
      <point x="501" y="192"/>
      <point x="428" y="-12"/>
      <point x="199" y="-12" type="curve" smooth="yes" name="n03"/>
      <point x="127" y="-12"/>
      <point x="66" y="7"/>
      <point x="18" y="38" type="curve"/>
      <point x="95" y="451" type="line"/>
      <point x="1" y="528" type="line"/>
      <point x="289" y="759" type="line"/>
      <point x="232" y="468" type="line"/>
      <point x="268" y="487"/>
      <point x="308" y="500"/>
      <point x="343" y="500" type="curve" smooth="yes" name="n13"/>
      <point x="450" y="500"/>
      <point x="501" y="395"/>
    </contour>
    <contour>
      <point x="362" y="307" type="curve" smooth="yes" name="n16"/>
      <point x="362" y="391"/>
      <point x="333" y="424"/>
      <point x="310" y="424" type="curve" smooth="yes" name="n19"/>
      <point x="282" y="424"/>
      <point x="245" y="404"/>
      <point x="215" y="378" type="curve"/>
      <point x="159" y="79" type="line"/>
      <point x="170" y="62"/>
      <point x="189" y="44"/>
      <point x="220" y="44" type="curve" smooth="yes" name="n26"/>
      <point x="286" y="44"/>
      <point x="362" y="183"/>
    </contour>
  </outline>
</glyph>
<glyph name="uni018E" format="2">
  <advance width="595"/>
  <unicode hex="018E"/>
  <outline>
    <contour>
      <point x="141" y="671" type="line" name="n00"/>
      <point x="641" y="671" type="line"/>
      <point x="641" y="620" type="line"/>
      <point x="585" y="615" type="line" smooth="yes"/>
      <point x="573" y="614"/>
      <point x="560" y="606"/>
      <point x="558" y="593" type="curve"/>
      <point x="460" y="78" type="line"/>
      <point x="458" y="65"/>
      <point x="468" y="57"/>
      <point x="479" y="56" type="curve" smooth="yes"/>
      <point x="532" y="51" type="line"/>
      <point x="532" y="0" type="line"/>
      <point x="-19" y="0" type="line" name="n13"/>
      <point x="16" y="183" type="line" name="n14"/>
      <point x="89" y="183" type="line"/>
      <point x="84" y="79" type="line"/>
      <point x="84" y="72"/>
      <point x="91" y="60" name="hr01"/>
      <point x="99" y="60" type="curve" smooth="yes" name="n19"/>
      <point x="316" y="60" type="line"/>
      <point x="365" y="315" type="line" name="n21"/>
      <point x="246" y="315" type="line" smooth="yes" name="n22"/>
      <point x="238" y="315"/>
      <point x="228" y="304"/>
      <point x="225" y="297" type="curve"/>
      <point x="204" y="229" type="line"/>
      <point x="142" y="229" type="line"/>
      <point x="187" y="464" type="line" name="hr02"/>
      <point x="249" y="464" type="line" name="n29"/>
      <point x="244" y="396" type="line"/>
      <point x="244" y="389"/>
      <point x="249" y="378" name="hr03"/>
      <point x="258" y="378" type="curve" smooth="yes"/>
      <point x="377" y="378" type="line" name="n34"/>
      <point x="422" y="613" type="line"/>
      <point x="236" y="613" type="line" smooth="yes" name="n36"/>
      <point x="227" y="613"/>
      <point x="218" y="604"/>
      <point x="214" y="594" type="curve" smooth="yes"/>
      <point x="182" y="511" type="line" name="hr04"/>
      <point x="110" y="511" type="line" name="n41"/>
    </contour>
  </outline>
</glyph>
<glyph name="uni0191" format="2">
  <advance width="556"/>
  <unicode hex="0191"/>
  <outline>
    <contour>
      <point x="612" y="671" type="line" name="n00"/>
      <point x="579" y="502" type="line"/>
      <point x="498" y="502" type="line"/>
      <point x="498" y="598" type="line" smooth="yes"/>
      <point x="498" y="608"/>
      <point x="486" y="611"/>
      <point x="475" y="611" type="curve" smooth="yes" name="n06"/>
      <point x="316" y="611" type="line"/>
      <point x="269" y="369" type="line" name="n08"/>
      <point x="375" y="369" type="line" smooth="yes"/>
      <point x="385" y="369"/>
      <point x="400" y="373"/>
      <point x="403" y="383" type="curve" smooth="yes"/>
      <point x="423" y="455" type="line"/>
      <point x="497" y="455" type="line"/>
      <point x="451" y="219" type="line"/>
      <point x="376" y="219" type="line"/>
      <point x="387" y="294" type="line"/>
      <point x="388" y="303"/>
      <point x="374" y="308"/>
      <point x="364" y="308" type="curve" smooth="yes"/>
      <point x="257" y="308" type="line" name="n21"/>
      <point x="190" y="-30" type="line" smooth="yes"/>
      <point x="165" y="-159"/>
      <point x="72" y="-229" name="n24"/>
      <point x="-98" y="-229" type="curve" smooth="yes"/>
      <point x="-150" y="-229"/>
      <point x="-191" y="-195"/>
      <point x="-191" y="-154" type="curve" smooth="yes"/>
      <point x="-191" y="-108"/>
      <point x="-153" y="-70"/>
      <point x="-105" y="-70" type="curve"/>
      <point x="-41" y="-159" type="line"/>
      <point x="-34" y="-157"/>
      <point x="-7" y="-153"/>
      <point x="0" y="-146" type="curve"/>
      <point x="18" y="-131"/>
      <point x="36" y="-88"/>
      <point x="48" y="-25" type="curve" smooth="yes"/>
      <point x="171" y="601" type="line"/>
      <point x="173" y="613"/>
      <point x="164" y="615"/>
      <point x="152" y="616" type="curve"/>
      <point x="152" y="616"/>
      <point x="122" y="618"/>
      <point x="95" y="621" type="curve"/>
      <point x="95" y="671" type="line"/>
    </contour>
  </outline>
</glyph>
<glyph name="uni0193" format="2">
  <advance width="729"/>
  <unicode hex="0193"/>
  <outline>
    <contour>
      <point x="921" y="770" type="curve" smooth="yes" name="n00"/>
      <point x="921" y="733"/>
      <point x="887" y="703"/>
      <point x="858" y="693" type="curve" name="n03"/>
      <point x="841.087" y="711.858"/>
      <point x="777.974" y="782.225"/>
      <point x="771" y="790" type="curve"/>
      <point x="738" y="790"/>
      <point x="721" y="717"/>
      <point x="706" y="645" type="curve" smooth="yes"/>
      <point x="699.794" y="614.66"/>
      <point x="680.007" y="517.922"/>
      <point x="670" y="469" type="curve"/>
      <point x="584" y="469" type="line"/>
      <point x="594" y="578" type="line"/>
      <point x="595" y="586"/>
      <point x="591" y="598"/>
      <point x="580" y="601" type="curve"/>
      <point x="569" y="607"/>
      <point x="519" y="623"/>
      <point x="488" y="623" type="curve" smooth="yes"/>
      <point x="365" y="623"/>
      <point x="200" y="485"/>
      <point x="200" y="254" type="curve" smooth="yes"/>
      <point x="200" y="91"/>
      <point x="327" y="47"/>
      <point x="373" y="47" type="curve" smooth="yes"/>
      <point x="399" y="47"/>
      <point x="435" y="56"/>
      <point x="453" y="61" type="curve"/>
      <point x="454.823" y="70.2536"/>
      <point x="484.662" y="221.744"/>
      <point x="492" y="259" type="curve" name="n32"/>
      <point x="494" y="271"/>
      <point x="489" y="274"/>
      <point x="473" y="275" type="curve" name="n35"/>
      <point x="473" y="275"/>
      <point x="444" y="277" name="n37"/>
      <point x="417" y="279" type="curve"/>
      <point x="417" y="288.35"/>
      <point x="417" y="320.362"/>
      <point x="417" y="330" type="curve"/>
      <point x="471.841" y="330"/>
      <point x="659.437" y="330" name="n43"/>
      <point x="717" y="330" type="curve"/>
      <point x="717" y="317.015"/>
      <point x="717" y="285.956"/>
      <point x="717" y="279" type="curve"/>
      <point x="706.22" y="278.207"/>
      <point x="660.09" y="274.815"/>
      <point x="649" y="274" type="curve"/>
      <point x="640" y="273"/>
      <point x="637" y="268"/>
      <point x="635" y="259" type="curve" smooth="yes" name="hr02"/>
      <point x="628.148" y="224.293"/>
      <point x="602.577" y="94.7716"/>
      <point x="589" y="26" type="curve"/>
      <point x="533" y="10"/>
      <point x="438" y="-16"/>
      <point x="353" y="-16" type="curve" smooth="yes"/>
      <point x="98" y="-16"/>
      <point x="48" y="163"/>
      <point x="48" y="269" type="curve" smooth="yes"/>
      <point x="48" y="518"/>
      <point x="264" y="687"/>
      <point x="491" y="687" type="curve" smooth="yes"/>
      <point x="530" y="687"/>
      <point x="558" y="687"/>
      <point x="613" y="675" type="curve"/>
      <point x="632" y="804"/>
      <point x="731" y="851"/>
      <point x="836" y="851" type="curve" smooth="yes"/>
      <point x="875" y="851"/>
      <point x="921" y="806"/>
    </contour>
  </outline>
</glyph>
<glyph name="uni0194" format="2">
  <advance width="695"/>
  <unicode hex="0194"/>
  <outline>
    <contour>
      <point x="761" y="620" type="line"/>
      <point x="692" y="612" type="line"/>
      <point x="408" y="271" type="line"/>
      <point x="422" y="230"/>
      <point x="456" y="165"/>
      <point x="456" y="121" type="curve" smooth="yes" name="n05"/>
      <point x="456" y="30"/>
      <point x="372" y="-16"/>
      <point x="289" y="-16" type="curve" smooth="yes" name="n08"/>
      <point x="242" y="-16"/>
      <point x="169" y="-2"/>
      <point x="169" y="60" type="curve" smooth="yes" name="n11"/>
      <point x="169" y="126"/>
      <point x="235" y="190"/>
      <point x="272" y="233" type="curve"/>
      <point x="143" y="611" type="line"/>
      <point x="80" y="620" type="line"/>
      <point x="80" y="671" type="line"/>
      <point x="375" y="671" type="line"/>
      <point x="375" y="620" type="line"/>
      <point x="313" y="614" type="line" smooth="yes"/>
      <point x="301" y="613"/>
      <point x="290" y="604"/>
      <point x="296" y="584" type="curve"/>
      <point x="296" y="584"/>
      <point x="374" y="365"/>
      <point x="381" y="346" type="curve"/>
      <point x="402" y="370"/>
      <point x="582" y="586"/>
      <point x="582" y="586" type="curve"/>
      <point x="593" y="600"/>
      <point x="586" y="613"/>
      <point x="564" y="616" type="curve" name="n32"/>
      <point x="523" y="620" type="line"/>
      <point x="523" y="671" type="line" name="n34"/>
      <point x="761" y="671" type="line"/>
    </contour>
    <contour>
      <point x="320" y="87" type="curve" smooth="yes" name="n36"/>
      <point x="320" y="105"/>
      <point x="305" y="139"/>
      <point x="299" y="154" type="curve"/>
      <point x="279" y="131"/>
      <point x="251" y="99"/>
      <point x="251" y="65" type="curve" smooth="yes" name="n42"/>
      <point x="251" y="47"/>
      <point x="269" y="40"/>
      <point x="285" y="40" type="curve" smooth="yes" name="n45"/>
      <point x="311" y="40"/>
      <point x="320" y="63"/>
    </contour>
  </outline>
</glyph>
<glyph name="uni0196" format="2">
  <advance width="450"/>
  <unicode hex="0196"/>
  <outline>
    <contour>
      <point x="442" y="99" type="curve" smooth="yes"/>
      <point x="442" y="26"/>
      <point x="322" y="-16"/>
      <point x="242" y="-16" type="curve" smooth="yes" name="n03"/>
      <point x="142" y="-16"/>
      <point x="77" y="17"/>
      <point x="77" y="97" type="curve" smooth="yes" name="n06"/>
      <point x="77" y="112"/>
      <point x="79" y="127"/>
      <point x="82" y="142" type="curve" smooth="yes"/>
      <point x="170" y="596" type="line" smooth="yes"/>
      <point x="172" y="606"/>
      <point x="166" y="615"/>
      <point x="149" y="617" type="curve"/>
      <point x="149" y="617"/>
      <point x="124" y="618"/>
      <point x="96" y="621" type="curve"/>
      <point x="96" y="671" type="line" name="n17"/>
      <point x="329" y="671" type="line"/>
      <point x="229" y="163" type="line"/>
      <point x="227" y="151"/>
      <point x="225" y="139"/>
      <point x="225" y="127" type="curve" smooth="yes" name="n22"/>
      <point x="225" y="87"/>
      <point x="258" y="63"/>
      <point x="291" y="57" type="curve" name="n25"/>
      <point x="354" y="183" type="line"/>
      <point x="414" y="178"/>
      <point x="442" y="134"/>
    </contour>
  </outline>
</glyph>
<glyph name="uni0199" format="2">
  <advance width="549"/>
  <unicode hex="0199"/>
  <outline>
    <contour>
      <point x="538" y="26" type="line"/>
      <point x="505" y="9"/>
      <point x="440" y="-12"/>
      <point x="394" y="-12" type="curve" smooth="yes" name="n03"/>
      <point x="358" y="-12"/>
      <point x="315" y="16"/>
      <point x="297" y="43" type="curve" smooth="yes"/>
      <point x="275" y="77"/>
      <point x="233" y="170"/>
      <point x="208" y="224" type="curve"/>
      <point x="187" y="205" type="line"/>
      <point x="145" y="0" type="line" name="n11"/>
      <point x="12" y="0" type="line"/>
      <point x="111" y="486" type="line" smooth="yes"/>
      <point x="121" y="537"/>
      <point x="136" y="585"/>
      <point x="167" y="628" type="curve" smooth="yes"/>
      <point x="207" y="685"/>
      <point x="280" y="737"/>
      <point x="401" y="737" type="curve" smooth="yes" name="n19"/>
      <point x="470" y="737"/>
      <point x="491" y="704"/>
      <point x="491" y="669" type="curve" smooth="yes"/>
      <point x="491" y="622"/>
      <point x="441" y="609"/>
      <point x="410" y="603" type="curve"/>
      <point x="361" y="668" type="line" name="n26"/>
      <point x="310" y="668"/>
      <point x="270" y="613"/>
      <point x="253" y="532" type="curve" smooth="yes"/>
      <point x="211" y="326" type="line"/>
      <point x="323" y="441" type="line" smooth="yes"/>
      <point x="364" y="484"/>
      <point x="399" y="500" name="n33"/>
      <point x="438" y="500" type="curve" smooth="yes"/>
      <point x="487" y="500"/>
      <point x="523" y="469"/>
      <point x="523" y="442" type="curve" smooth="yes"/>
      <point x="523" y="418"/>
      <point x="517" y="371"/>
      <point x="440" y="345" type="curve"/>
      <point x="400" y="410" type="line"/>
      <point x="368" y="383"/>
      <point x="325" y="338"/>
      <point x="300" y="316" type="curve"/>
      <point x="318" y="282"/>
      <point x="343" y="206"/>
      <point x="372" y="152" type="curve" smooth="yes"/>
      <point x="401" y="100"/>
      <point x="422" y="51" name="hr02"/>
      <point x="456" y="51" type="curve" name="n50"/>
      <point x="457" y="51"/>
      <point x="482" y="56"/>
      <point x="538" y="79" type="curve"/>
    </contour>
  </outline>
</glyph>
<glyph name="uni019A" format="2">
  <advance width="306"/>
  <unicode hex="019A"/>
  <outline>
    <contour>
      <point x="340" y="322" type="line"/>
      <point x="219" y="322" type="line"/>
      <point x="176" y="102" type="line" smooth="yes" name="n02"/>
      <point x="172" y="79"/>
      <point x="177" y="53"/>
      <point x="202" y="53" type="curve" smooth="yes"/>
      <point x="218" y="53"/>
      <point x="257" y="62"/>
      <point x="304" y="83" type="curve" name="n08"/>
      <point x="304" y="76.878"/>
      <point x="304" y="32.6737"/>
      <point x="304" y="29" type="curve"/>
      <point x="256" y="4"/>
      <point x="196" y="-12"/>
      <point x="144" y="-12" type="curve" smooth="yes"/>
      <point x="78" y="-12"/>
      <point x="39" y="18"/>
      <point x="39" y="64" type="curve" smooth="yes" name="n17"/>
      <point x="39" y="75"/>
      <point x="40.4988" y="87.0871"/>
      <point x="43" y="100" type="curve" smooth="yes"/>
      <point x="49.1147" y="131.569"/>
      <point x="77.9574" y="280.478"/>
      <point x="86" y="322" type="curve"/>
      <point x="-12" y="322" type="line"/>
      <point x="1" y="388" type="line"/>
      <point x="99" y="388" type="line"/>
      <point x="152" y="661" type="line"/>
      <point x="64" y="669" type="line"/>
      <point x="64" y="705" type="line"/>
      <point x="233" y="737" type="line"/>
      <point x="299" y="737" type="line" name="n31"/>
      <point x="231" y="388" type="line"/>
      <point x="353" y="388" type="line" name="n33"/>
    </contour>
  </outline>
</glyph>
<glyph name="uni019E" format="2">
  <advance width="578"/>
  <unicode hex="019E"/>
  <outline>
    <contour>
      <point x="531" y="-195" type="line"/>
      <point x="496" y="-211"/>
      <point x="421" y="-229" name="n02"/>
      <point x="375" y="-229" type="curve" smooth="yes"/>
      <point x="331" y="-229"/>
      <point x="263" y="-220"/>
      <point x="274" y="-167" type="curve" smooth="yes"/>
      <point x="378" y="356" type="line" smooth="yes"/>
      <point x="388" y="405"/>
      <point x="375" y="421"/>
      <point x="354" y="421" type="curve" smooth="yes" name="n10"/>
      <point x="323" y="421"/>
      <point x="270" y="382"/>
      <point x="228" y="339" type="curve"/>
      <point x="157" y="0" type="line" name="n14"/>
      <point x="24" y="0" type="line"/>
      <point x="112" y="425" type="line"/>
      <point x="28" y="433" type="line"/>
      <point x="28" y="467" type="line"/>
      <point x="192" y="500" type="line"/>
      <point x="261" y="500" type="line"/>
      <point x="249" y="442" type="line"/>
      <point x="298" y="475"/>
      <point x="358" y="500"/>
      <point x="410" y="500" type="curve" smooth="yes" name="n24"/>
      <point x="510" y="500"/>
      <point x="535" y="453"/>
      <point x="519" y="369" type="curve" smooth="yes"/>
      <point x="422" y="-129" type="line" smooth="yes"/>
      <point x="416" y="-163"/>
      <point x="436" y="-168"/>
      <point x="446" y="-168" type="curve" smooth="yes"/>
      <point x="467" y="-168"/>
      <point x="500" y="-160"/>
      <point x="529" y="-147" type="curve"/>
    </contour>
  </outline>
</glyph>
<glyph name="ohorn" format="2">
  <advance width="648"/>
  <unicode hex="01A1"/>
  <outline>
    <contour>
      <point x="644" y="490" type="curve" smooth="yes" name="n00"/>
      <point x="644" y="421"/>
      <point x="599" y="339"/>
      <point x="522" y="306" type="curve" name="hr01"/>
      <point x="522" y="303" type="line" smooth="yes" name="n04"/>
      <point x="522" y="146"/>
      <point x="414" y="-12"/>
      <point x="232" y="-12" type="curve" smooth="yes" name="n07"/>
      <point x="95" y="-12"/>
      <point x="32" y="70"/>
      <point x="32" y="181" type="curve" smooth="yes" name="n10"/>
      <point x="32" y="338"/>
      <point x="135" y="500"/>
      <point x="320" y="500" type="curve" smooth="yes" name="n13"/>
      <point x="420" y="500"/>
      <point x="491" y="456"/>
      <point x="514" y="371" type="curve"/>
      <point x="542" y="392"/>
      <point x="562" y="427"/>
      <point x="564" y="450" type="curve" name="n19"/>
      <point x="500" y="450" type="line"/>
      <point x="500" y="450"/>
      <point x="482" y="473"/>
      <point x="482" y="501" type="curve" smooth="yes" name="n23"/>
      <point x="482" y="545"/>
      <point x="511" y="581"/>
      <point x="558" y="581" type="curve" smooth="yes" name="n26"/>
      <point x="605" y="581"/>
      <point x="644" y="541"/>
    </contour>
    <contour>
      <point x="378" y="307" type="curve" smooth="yes" name="n29"/>
      <point x="378" y="405" name="hr03"/>
      <point x="334" y="447"/>
      <point x="309" y="447" type="curve" smooth="yes" name="n32"/>
      <point x="248" y="447"/>
      <point x="175" y="320"/>
      <point x="175" y="185" type="curve" smooth="yes" name="n35"/>
      <point x="175" y="82"/>
      <point x="221" y="43"/>
      <point x="244" y="43" type="curve" smooth="yes" name="n38"/>
      <point x="314" y="43"/>
      <point x="378" y="184"/>
    </contour>
  </outline>
</glyph>
<glyph name="uni01A2" format="2">
  <advance width="1049"/>
  <unicode hex="01A2"/>
  <outline>
    <contour>
      <point x="926" y="-168" type="line"/>
      <point x="926" y="-218" type="line"/>
      <point x="623" y="-218" type="line"/>
      <point x="623" y="-168" type="line"/>
      <point x="682" y="-164" type="line" smooth="yes"/>
      <point x="697" y="-163"/>
      <point x="703" y="-159"/>
      <point x="705" y="-149" type="curve" smooth="yes"/>
      <point x="843" y="548" type="line"/>
      <point x="794" y="536"/>
      <point x="727" y="542"/>
      <point x="691" y="546" type="curve"/>
      <point x="618" y="161" type="line" smooth="yes"/>
      <point x="600" y="65"/>
      <point x="489" y="-16"/>
      <point x="341" y="-16" type="curve" smooth="yes" name="n15"/>
      <point x="155" y="-16"/>
      <point x="48" y="101"/>
      <point x="48" y="263" type="curve" smooth="yes" name="n18"/>
      <point x="48" y="481"/>
      <point x="207" y="687"/>
      <point x="451" y="687" type="curve" smooth="yes" name="n21"/>
      <point x="636" y="687"/>
      <point x="666" y="646"/>
      <point x="767" y="646" type="curve" smooth="yes"/>
      <point x="820" y="646"/>
      <point x="881" y="658"/>
      <point x="921" y="687" type="curve"/>
      <point x="1009" y="687" type="line"/>
      <point x="848" y="-148" type="line"/>
      <point x="845" y="-161"/>
      <point x="852" y="-162"/>
      <point x="865" y="-163" type="curve" smooth="yes"/>
    </contour>
    <contour>
      <point x="475" y="178" type="curve" smooth="yes"/>
      <point x="552" y="588" type="line"/>
      <point x="514" y="615"/>
      <point x="471" y="625"/>
      <point x="437" y="625" type="curve" smooth="yes" name="n37"/>
      <point x="295" y="625"/>
      <point x="203" y="421"/>
      <point x="203" y="255" type="curve" smooth="yes" name="n40"/>
      <point x="203" y="128"/>
      <point x="272" y="46"/>
      <point x="348" y="46" type="curve" smooth="yes" name="n43"/>
      <point x="425" y="46"/>
      <point x="455" y="70"/>
    </contour>
  </outline>
</glyph>
<glyph name="uni01A5" format="2">
  <advance width="541"/>
  <unicode hex="01A5"/>
  <outline>
    <contour>
      <point x="551" y="635" type="curve" smooth="yes"/>
      <point x="551" y="601"/>
      <point x="503" y="573"/>
      <point x="469" y="573" type="curve" smooth="yes" name="n03"/>
      <point x="447" y="573"/>
      <point x="427" y="582"/>
      <point x="427" y="582" type="curve"/>
      <point x="409" y="666" type="line"/>
      <point x="401" y="674"/>
      <point x="388" y="675" name="hr01"/>
      <point x="379" y="675" type="curve" smooth="yes" name="n10"/>
      <point x="340" y="675"/>
      <point x="268" y="630"/>
      <point x="247" y="518" type="curve" smooth="yes"/>
      <point x="236" y="463" type="line"/>
      <point x="257" y="475"/>
      <point x="303" y="500"/>
      <point x="356" y="500" type="curve" smooth="yes" name="n17"/>
      <point x="461" y="500"/>
      <point x="509" y="402"/>
      <point x="509" y="311" type="curve" smooth="yes" name="n20"/>
      <point x="509" y="151"/>
      <point x="390" y="-12"/>
      <point x="200" y="-12" type="curve" smooth="yes" name="n23"/>
      <point x="176" y="-12"/>
      <point x="157" y="-8"/>
      <point x="144" y="-4" type="curve"/>
      <point x="114" y="-152" type="line" smooth="yes"/>
      <point x="112" y="-161"/>
      <point x="118" y="-168"/>
      <point x="129" y="-168" type="curve"/>
      <point x="198" y="-174" type="line"/>
      <point x="198" y="-219" type="line"/>
      <point x="-96" y="-219" type="line"/>
      <point x="-96" y="-174" type="line"/>
      <point x="-75" y="-172"/>
      <point x="-36" y="-169"/>
      <point x="-36" y="-169" type="curve"/>
      <point x="-26" y="-168"/>
      <point x="-21" y="-161"/>
      <point x="-19" y="-152" type="curve"/>
      <point x="115" y="539" type="line" smooth="yes"/>
      <point x="133" y="630"/>
      <point x="223" y="737"/>
      <point x="384" y="737" type="curve" smooth="yes" name="n44"/>
      <point x="495" y="737"/>
      <point x="551" y="702"/>
    </contour>
    <contour>
      <point x="369" y="307" type="curve" smooth="yes" name="n47"/>
      <point x="369" y="363"/>
      <point x="362" y="430"/>
      <point x="309" y="430" type="curve" smooth="yes" name="n50"/>
      <point x="281" y="430"/>
      <point x="239" y="394"/>
      <point x="219" y="376" type="curve"/>
      <point x="158" y="68" type="line"/>
      <point x="174" y="58"/>
      <point x="201" y="41"/>
      <point x="219" y="41" type="curve" smooth="yes" name="n57"/>
      <point x="303" y="41"/>
      <point x="369" y="190"/>
    </contour>
  </outline>
</glyph>
<glyph name="uni01AB" format="2">
  <advance width="344"/>
  <unicode hex="01AB"/>
  <outline>
    <contour>
      <point x="391" y="418" type="line" name="n00"/>
      <point x="242" y="418" type="line" name="n01"/>
      <point x="179" y="109" type="line"/>
      <point x="172" y="78"/>
      <point x="187" y="57"/>
      <point x="218" y="57" type="curve" smooth="yes" name="n05"/>
      <point x="249" y="57"/>
      <point x="311" y="81"/>
      <point x="343" y="92" type="curve"/>
      <point x="306" y="-80" type="line" smooth="yes"/>
      <point x="297" y="-125"/>
      <point x="250" y="-229"/>
      <point x="125" y="-229" type="curve" smooth="yes" name="n12"/>
      <point x="57" y="-229"/>
      <point x="30" y="-200"/>
      <point x="30" y="-162" type="curve" smooth="yes"/>
      <point x="30" y="-123"/>
      <point x="69" y="-95"/>
      <point x="104" y="-87" type="curve"/>
      <point x="174" y="-150" type="line" name="n19"/>
      <point x="199" y="-146"/>
      <point x="223" y="-118"/>
      <point x="233" y="-78" type="curve"/>
      <point x="233" y="-78"/>
      <point x="250" y="-23"/>
      <point x="254" y="5" type="curve"/>
      <point x="222" y="-7"/>
      <point x="186" y="-12"/>
      <point x="158" y="-12" type="curve" smooth="yes" name="n28"/>
      <point x="81" y="-12"/>
      <point x="44" y="26"/>
      <point x="44" y="78" type="curve" smooth="yes"/>
      <point x="44" y="91"/>
      <point x="45" y="104"/>
      <point x="48" y="118" type="curve" smooth="yes"/>
      <point x="109" y="416" type="line"/>
      <point x="37" y="408" type="line"/>
      <point x="37" y="449" type="line"/>
      <point x="122" y="483" type="line"/>
      <point x="173" y="586" type="line"/>
      <point x="273" y="586" type="line" name="n40"/>
      <point x="252" y="473" type="line" name="hr01"/>
      <point x="391" y="473" type="line" name="n42"/>
    </contour>
  </outline>
</glyph>
<glyph name="Uhorn" format="2">
  <advance width="876"/>
  <unicode hex="01AF"/>
  <outline>
    <contour>
      <point x="940" y="768" type="curve" smooth="yes" name="n00"/>
      <point x="940" y="607"/>
      <point x="843" y="492"/>
      <point x="683" y="468" type="curve"/>
      <point x="632" y="215" type="line"/>
      <point x="605" y="76"/>
      <point x="516" y="-16"/>
      <point x="328.018" y="-16" type="curve" smooth="yes" name="n07"/>
      <point x="184" y="-16"/>
      <point x="92" y="38"/>
      <point x="92" y="156.327" type="curve" smooth="yes" name="n10"/>
      <point x="92" y="181"/>
      <point x="96" y="220"/>
      <point x="105" y="265" type="curve" smooth="yes"/>
      <point x="175" y="601" type="line"/>
      <point x="175.422" y="604.343" type="line"/>
      <point x="174.688" y="613.28"/>
      <point x="167.553" y="614.879"/>
      <point x="155" y="616" type="curve" smooth="yes"/>
      <point x="99" y="621" type="line"/>
      <point x="99" y="671" type="line" name="n20"/>
      <point x="401" y="671" type="line"/>
      <point x="401" y="621" type="line"/>
      <point x="339" y="616" type="line" smooth="yes"/>
      <point x="327" y="615"/>
      <point x="320.454" y="611.915"/>
      <point x="318" y="600" type="curve" smooth="yes"/>
      <point x="249" y="265" type="line" smooth="yes"/>
      <point x="241" y="227"/>
      <point x="238" y="195"/>
      <point x="238" y="177" type="curve" smooth="yes" name="n30"/>
      <point x="238" y="92"/>
      <point x="298" y="59"/>
      <point x="361.895" y="59" type="curve" smooth="yes" name="n33"/>
      <point x="462" y="59"/>
      <point x="507" y="140"/>
      <point x="529" y="250" type="curve" smooth="yes"/>
      <point x="599" y="601" type="line"/>
      <point x="598.532" y="605.364" type="line"/>
      <point x="598.693" y="613.384"/>
      <point x="593.775" y="614.792"/>
      <point x="580" y="616" type="curve" smooth="yes"/>
      <point x="523" y="621" type="line"/>
      <point x="523" y="671" type="line"/>
      <point x="781" y="671" type="line"/>
      <point x="781" y="621" type="line"/>
      <point x="725" y="616" type="line" smooth="yes"/>
      <point x="716" y="615"/>
      <point x="710.752" y="609.052"/>
      <point x="709" y="600" type="curve" smooth="yes"/>
      <point x="697" y="538" type="line"/>
      <point x="795" y="572"/>
      <point x="841" y="642"/>
      <point x="841" y="720" type="curve" name="n53"/>
      <point x="747" y="720" type="line"/>
      <point x="745" y="723"/>
      <point x="727" y="750" name="hr01"/>
      <point x="727" y="783.391" type="curve" smooth="yes" name="n57"/>
      <point x="727" y="835"/>
      <point x="770" y="872"/>
      <point x="824.276" y="872" type="curve" smooth="yes" name="n60"/>
      <point x="880" y="872"/>
      <point x="940" y="833"/>
    </contour>
  </outline>
</glyph>
<glyph name="uni01B1" format="2">
  <advance width="750"/>
  <unicode hex="01B1"/>
  <outline>
    <contour>
      <point x="750" y="671" type="line" name="n00"/>
      <point x="739" y="611" type="line"/>
      <point x="678" y="604" type="line"/>
      <point x="664" y="603"/>
      <point x="660" y="595"/>
      <point x="664" y="585" type="curve"/>
      <point x="664" y="585"/>
      <point x="682" y="538"/>
      <point x="685" y="532" type="curve"/>
      <point x="701" y="483"/>
      <point x="718" y="430"/>
      <point x="718" y="378" type="curve" smooth="yes" name="n11"/>
      <point x="718" y="186"/>
      <point x="555" y="-16"/>
      <point x="321" y="-16" type="curve" smooth="yes" name="n14"/>
      <point x="139" y="-16"/>
      <point x="48" y="94"/>
      <point x="48" y="238" type="curve" smooth="yes" name="n17"/>
      <point x="48" y="328"/>
      <point x="94" y="417"/>
      <point x="144" y="492" type="curve" smooth="yes"/>
      <point x="153" y="505"/>
      <point x="215" y="585"/>
      <point x="215" y="585" type="curve"/>
      <point x="222" y="595"/>
      <point x="219" y="605"/>
      <point x="206" y="606" type="curve" smooth="yes"/>
      <point x="149" y="611" type="line"/>
      <point x="163" y="671" type="line"/>
      <point x="382" y="671" type="line"/>
      <point x="288" y="553"/>
      <point x="215" y="380"/>
      <point x="215" y="238" type="curve" smooth="yes" name="n32"/>
      <point x="215" y="153"/>
      <point x="232" y="61"/>
      <point x="333" y="61" type="curve" smooth="yes" name="n35"/>
      <point x="498" y="61"/>
      <point x="570" y="330"/>
      <point x="570" y="482" type="curve" smooth="yes" name="n38"/>
      <point x="570" y="540"/>
      <point x="555" y="611"/>
      <point x="532" y="671" type="curve"/>
    </contour>
  </outline>
</glyph>
<glyph name="uni01B4.RtHook" format="2">
  <advance width="583"/>
  <unicode hex="01B4"/>
  <outline>
    <contour>
      <point x="701" y="554" type="curve" smooth="yes"/>
      <point x="701" y="525"/>
      <point x="677" y="500"/>
      <point x="635" y="471" type="curve"/>
      <point x="573" y="541" type="line"/>
      <point x="532" y="541"/>
      <point x="523" y="496"/>
      <point x="488" y="417" type="curve"/>
      <point x="488" y="417"/>
      <point x="334" y="52"/>
      <point x="296" y="-14" type="curve" smooth="yes"/>
      <point x="229" y="-130"/>
      <point x="145" y="-229"/>
      <point x="25" y="-229" type="curve" smooth="yes" name="n13"/>
      <point x="-56" y="-229"/>
      <point x="-80" y="-181"/>
      <point x="-80" y="-153" type="curve" smooth="yes"/>
      <point x="-80" y="-120"/>
      <point x="-62" y="-72"/>
      <point x="1" y="-70" type="curve" name="n19"/>
      <point x="44" y="-146" type="line"/>
      <point x="89" y="-136"/>
      <point x="138" y="-81"/>
      <point x="195" y="21" type="curve"/>
      <point x="192" y="37"/>
      <point x="174" y="135"/>
      <point x="153" y="230" type="curve" smooth="yes"/>
      <point x="133" y="322"/>
      <point x="118" y="424"/>
      <point x="109" y="424" type="curve"/>
      <point x="3" y="432" type="line"/>
      <point x="3" y="463" type="line"/>
      <point x="27" y="471"/>
      <point x="125" y="500" name="n33"/>
      <point x="145" y="500" type="curve" smooth="yes"/>
      <point x="190" y="500"/>
      <point x="218" y="495"/>
      <point x="246" y="402" type="curve" smooth="yes"/>
      <point x="260" y="356"/>
      <point x="277" y="276"/>
      <point x="292" y="198" type="curve"/>
      <point x="322" y="273"/>
      <point x="385" y="428"/>
      <point x="385" y="428" type="curve"/>
      <point x="442" y="570"/>
      <point x="498" y="622" name="n45"/>
      <point x="614" y="622" type="curve" smooth="yes"/>
      <point x="660" y="622"/>
      <point x="701" y="584"/>
    </contour>
  </outline>
</glyph>
<glyph name="uni01B5" format="2">
  <advance width="604"/>
  <unicode hex="01B5"/>
  <outline>
    <contour>
      <point x="502" y="321" type="line" name="n00"/>
      <point x="377" y="321" type="line"/>
      <point x="162" y="62" type="line"/>
      <point x="408" y="62" type="line" smooth="yes" name="n03"/>
      <point x="418" y="62"/>
      <point x="433" y="68"/>
      <point x="436" y="77" type="curve"/>
      <point x="472" y="207" type="line" name="n07"/>
      <point x="556" y="207" type="line"/>
      <point x="516" y="0" type="line" name="n09"/>
      <point x="-21" y="0" type="line"/>
      <point x="-11" y="49" type="line"/>
      <point x="214" y="321" type="line"/>
      <point x="130" y="321" type="line"/>
      <point x="130" y="385" type="line"/>
      <point x="267" y="385" type="line"/>
      <point x="453" y="609" type="line"/>
      <point x="245" y="609" type="line" smooth="yes" name="n17"/>
      <point x="235" y="609"/>
      <point x="220" y="605"/>
      <point x="217" y="595" type="curve" smooth="yes"/>
      <point x="185" y="489" type="line" name="hr02"/>
      <point x="101" y="489" type="line" name="n22"/>
      <point x="137" y="671" type="line" name="n23"/>
      <point x="638" y="671" type="line"/>
      <point x="628" y="621" type="line"/>
      <point x="431" y="385" type="line"/>
      <point x="502" y="385" type="line" name="n27"/>
    </contour>
  </outline>
</glyph>
<glyph name="uni01B7" format="2">
  <advance width="615"/>
  <unicode hex="01B7"/>
  <outline>
    <contour>
      <point x="615" y="597" type="line"/>
      <point x="314" y="296" type="line" name="n01"/>
      <point x="442" y="286"/>
      <point x="550" y="201"/>
      <point x="550" y="96" type="curve" smooth="yes"/>
      <point x="550" y="-57"/>
      <point x="391" y="-229"/>
      <point x="167" y="-229" type="curve" smooth="yes" name="n07"/>
      <point x="3" y="-229"/>
      <point x="-65" y="-146"/>
      <point x="-65" y="-100" type="curve" smooth="yes"/>
      <point x="-65" y="-53"/>
      <point x="-30" y="6" name="hr01"/>
      <point x="24" y="6" type="curve" smooth="yes" name="n13"/>
      <point x="35" y="6"/>
      <point x="79" y="5"/>
      <point x="92" y="-8" type="curve"/>
      <point x="105" y="-133" type="line"/>
      <point x="132" y="-153"/>
      <point x="170" y="-157" name="hr02"/>
      <point x="188" y="-157" type="curve" smooth="yes" name="n20"/>
      <point x="280" y="-157"/>
      <point x="385" y="-32"/>
      <point x="385" y="94" type="curve" smooth="yes"/>
      <point x="385" y="197"/>
      <point x="271" y="232"/>
      <point x="241" y="232" type="curve" smooth="yes" name="n26"/>
      <point x="226" y="232"/>
      <point x="222" y="227"/>
      <point x="188" y="201" type="curve"/>
      <point x="144" y="264" type="line"/>
      <point x="452" y="567" type="line"/>
      <point x="208" y="567" type="line" smooth="yes" name="n32"/>
      <point x="200" y="567"/>
      <point x="186" y="560"/>
      <point x="182" y="547" type="curve"/>
      <point x="144" y="440" type="line" name="n36"/>
      <point x="66" y="440" type="line"/>
      <point x="110" y="671" type="line" name="n38"/>
      <point x="615" y="671" type="line"/>
    </contour>
  </outline>
</glyph>
<glyph name="uni01BE" format="2">
  <advance width="479"/>
  <unicode hex="01BE"/>
  <outline>
    <contour>
      <point x="431" y="222" type="curve" smooth="yes" name="n00"/>
      <point x="431" y="75"/>
      <point x="298" y="-12"/>
      <point x="162" y="-12" type="curve" smooth="yes"/>
      <point x="103" y="-12"/>
      <point x="2" y="3"/>
      <point x="2" y="81" type="curve" smooth="yes"/>
      <point x="2" y="122"/>
      <point x="27" y="153"/>
      <point x="70" y="153" type="curve" smooth="yes" name="n09"/>
      <point x="84" y="153"/>
      <point x="99" y="150"/>
      <point x="112" y="145" type="curve" name="n12"/>
      <point x="117.12" y="120.823"/>
      <point x="127.941" y="69.7208"/>
      <point x="130" y="60" type="curve"/>
      <point x="207" y="2"/>
      <point x="292" y="126"/>
      <point x="292" y="209" type="curve" smooth="yes"/>
      <point x="292" y="287"/>
      <point x="226" y="349"/>
      <point x="155" y="372" type="curve" name="n21"/>
      <point x="165" y="421" type="line" name="n22"/>
      <point x="145.326" y="421"/>
      <point x="85.36" y="421"/>
      <point x="64" y="421" type="curve" name="n25"/>
      <point x="64" y="434.054"/>
      <point x="64" y="474.953"/>
      <point x="64" y="484" type="curve"/>
      <point x="177" y="484" type="line"/>
      <point x="199" y="591" type="line" name="hr03"/>
      <point x="201" y="604"/>
      <point x="193" y="615"/>
      <point x="173" y="616" type="curve" smooth="yes"/>
      <point x="114" y="619" type="line"/>
      <point x="114" y="671" type="line"/>
      <point x="160.486" y="671"/>
      <point x="378.341" y="671"/>
      <point x="424" y="671" type="curve"/>
      <point x="424" y="619" type="line"/>
      <point x="364" y="616" type="line" smooth="yes"/>
      <point x="348" y="615"/>
      <point x="335" y="604"/>
      <point x="333" y="591" type="curve" name="n43"/>
      <point x="311" y="484" type="line"/>
      <point x="415" y="484" type="line"/>
      <point x="415" y="475.548"/>
      <point x="415" y="429.606"/>
      <point x="415" y="421" type="curve" name="hr04"/>
      <point x="298" y="421" type="line"/>
      <point x="292" y="387" type="line" name="n50"/>
      <point x="370" y="370"/>
      <point x="431" y="304"/>
    </contour>
  </outline>
</glyph>
<glyph name="uni01D6" format="2">
  <advance width="574"/>
  <unicode hex="01D6"/>
  <outline>
    <contour>
      <point x="572" y="28" type="line"/>
      <point x="545" y="13"/>
      <point x="471" y="-12"/>
      <point x="414" y="-12" type="curve" smooth="yes"/>
      <point x="345" y="-12"/>
      <point x="332" y="21"/>
      <point x="329" y="35" type="curve"/>
      <point x="285" y="5"/>
      <point x="235" y="-12"/>
      <point x="170" y="-12" type="curve" smooth="yes" name="n09"/>
      <point x="71" y="-12"/>
      <point x="35" y="63"/>
      <point x="47" y="117" type="curve" smooth="yes"/>
      <point x="112" y="424" type="line"/>
      <point x="28" y="433" type="line"/>
      <point x="28" y="467" type="line"/>
      <point x="193" y="500" type="line" name="n16"/>
      <point x="262" y="500" type="line"/>
      <point x="180" y="117" type="line" smooth="yes"/>
      <point x="174" y="86"/>
      <point x="188" y="58"/>
      <point x="213" y="58" type="curve" smooth="yes" name="n21"/>
      <point x="258" y="58"/>
      <point x="297" y="85"/>
      <point x="333" y="118" type="curve"/>
      <point x="411" y="488" type="line"/>
      <point x="544" y="488" type="line"/>
      <point x="462" y="100" type="line" smooth="yes"/>
      <point x="454" y="63"/>
      <point x="467" y="48"/>
      <point x="488" y="48" type="curve" smooth="yes"/>
      <point x="498" y="48"/>
      <point x="511" y="52"/>
      <point x="572" y="84" type="curve"/>
    </contour>
    <contour>
      <point x="556" y="654" type="curve" smooth="yes" name="n34"/>
      <point x="556" y="616"/>
      <point x="525" y="585"/>
      <point x="487" y="585" type="curve" smooth="yes" name="n37"/>
      <point x="449" y="585"/>
      <point x="419" y="616"/>
      <point x="419" y="654" type="curve" smooth="yes" name="n40"/>
      <point x="419" y="692"/>
      <point x="449" y="723"/>
      <point x="487" y="723" type="curve" smooth="yes" name="n43"/>
      <point x="525" y="723"/>
      <point x="556" y="692"/>
    </contour>
    <contour>
      <point x="346" y="654" type="curve" smooth="yes" name="n46"/>
      <point x="346" y="616"/>
      <point x="315" y="585"/>
      <point x="277" y="585" type="curve" smooth="yes"/>
      <point x="239" y="585"/>
      <point x="208" y="616"/>
      <point x="208" y="654" type="curve" smooth="yes" name="n52"/>
      <point x="208" y="692"/>
      <point x="239" y="723"/>
      <point x="277" y="723" type="curve" smooth="yes"/>
      <point x="315" y="723"/>
      <point x="346" y="692"/>
    </contour>
    <contour>
      <point x="576" y="862" type="line" name="n58"/>
      <point x="561" y="781" type="line" name="n59"/>
      <point x="220" y="781" type="line"/>
      <point x="236" y="862" type="line"/>
    </contour>
  </outline>
</glyph>
<glyph name="uni01DF" format="2">
  <advance width="567"/>
  <unicode hex="01DF"/>
  <outline>
    <contour>
      <point x="565" y="30" type="line"/>
      <point x="519" y="12"/>
      <point x="464" y="-12"/>
      <point x="413" y="-12" type="curve" smooth="yes"/>
      <point x="371" y="-12"/>
      <point x="342" y="4"/>
      <point x="329" y="33" type="curve"/>
      <point x="294" y="10"/>
      <point x="247" y="-12"/>
      <point x="199" y="-12" type="curve" smooth="yes" name="n09"/>
      <point x="76" y="-12"/>
      <point x="32" y="96"/>
      <point x="32" y="171" type="curve" smooth="yes" name="n12"/>
      <point x="32" y="320"/>
      <point x="129" y="500"/>
      <point x="344" y="500" type="curve" smooth="yes" name="n15"/>
      <point x="373" y="500"/>
      <point x="404" y="491"/>
      <point x="427" y="479" type="curve"/>
      <point x="434" y="488" type="line"/>
      <point x="541" y="488" type="line"/>
      <point x="534" y="468"/>
      <point x="518" y="436"/>
      <point x="516" y="427" type="curve" smooth="yes"/>
      <point x="510.741" y="400.303"/>
      <point x="455.221" y="118.429"/>
      <point x="451" y="97" type="curve"/>
      <point x="451" y="67"/>
      <point x="454" y="57"/>
      <point x="478" y="57" type="curve" smooth="yes"/>
      <point x="483" y="57"/>
      <point x="555" y="76"/>
      <point x="565" y="78" type="curve"/>
    </contour>
    <contour>
      <point x="375" y="394" type="curve"/>
      <point x="377" y="400"/>
      <point x="370" y="442"/>
      <point x="359" y="442" type="curve" smooth="yes" name="n36"/>
      <point x="231" y="442"/>
      <point x="173" y="291"/>
      <point x="173" y="177" type="curve" smooth="yes" name="n39"/>
      <point x="173" y="124"/>
      <point x="171" y="63"/>
      <point x="231" y="63" type="curve" smooth="yes" name="n42"/>
      <point x="274" y="63"/>
      <point x="309" y="108"/>
      <point x="323" y="121" type="curve"/>
      <point x="338" y="201"/>
      <point x="328" y="149"/>
    </contour>
    <contour>
      <point x="563" y="654" type="curve" smooth="yes" name="n48"/>
      <point x="563" y="616"/>
      <point x="532" y="585"/>
      <point x="494" y="585" type="curve" smooth="yes" name="n51"/>
      <point x="456" y="585"/>
      <point x="426" y="616"/>
      <point x="426" y="654" type="curve" smooth="yes" name="n54"/>
      <point x="426" y="692"/>
      <point x="456" y="723"/>
      <point x="494" y="723" type="curve" smooth="yes" name="n57"/>
      <point x="532" y="723"/>
      <point x="563" y="692"/>
    </contour>
    <contour>
      <point x="353" y="654" type="curve" smooth="yes" name="n60"/>
      <point x="353" y="616"/>
      <point x="322" y="585"/>
      <point x="284" y="585" type="curve" smooth="yes"/>
      <point x="246" y="585"/>
      <point x="215" y="616"/>
      <point x="215" y="654" type="curve" smooth="yes" name="n66"/>
      <point x="215" y="692"/>
      <point x="246" y="723"/>
      <point x="284" y="723" type="curve" smooth="yes"/>
      <point x="322" y="723"/>
      <point x="353" y="692"/>
    </contour>
    <contour>
      <point x="602" y="862" type="line" name="n72"/>
      <point x="587" y="781" type="line" name="n73"/>
      <point x="246" y="781" type="line"/>
      <point x="262" y="862" type="line"/>
    </contour>
  </outline>
</glyph>
<glyph name="uni01E1" format="2">
  <advance width="567"/>
  <unicode hex="01E1"/>
  <outline>
    <contour>
      <point x="565" y="30" type="line"/>
      <point x="519" y="12"/>
      <point x="464" y="-12"/>
      <point x="413" y="-12" type="curve" smooth="yes"/>
      <point x="371" y="-12"/>
      <point x="342" y="4"/>
      <point x="329" y="33" type="curve"/>
      <point x="294" y="10"/>
      <point x="247" y="-12"/>
      <point x="199" y="-12" type="curve" smooth="yes" name="n09"/>
      <point x="76" y="-12"/>
      <point x="32" y="96"/>
      <point x="32" y="171" type="curve" smooth="yes" name="n12"/>
      <point x="32" y="320"/>
      <point x="129" y="500"/>
      <point x="344" y="500" type="curve" smooth="yes" name="n15"/>
      <point x="373" y="500"/>
      <point x="404" y="491"/>
      <point x="427" y="479" type="curve"/>
      <point x="434" y="488" type="line"/>
      <point x="541" y="488" type="line"/>
      <point x="534" y="468"/>
      <point x="518" y="436"/>
      <point x="516" y="427" type="curve" smooth="yes"/>
      <point x="510.741" y="400.303"/>
      <point x="455.221" y="118.429"/>
      <point x="451" y="97" type="curve"/>
      <point x="451" y="67"/>
      <point x="454" y="57"/>
      <point x="478" y="57" type="curve" smooth="yes"/>
      <point x="483" y="57"/>
      <point x="555" y="76"/>
      <point x="565" y="78" type="curve"/>
    </contour>
    <contour>
      <point x="375" y="394" type="curve"/>
      <point x="377" y="400"/>
      <point x="370" y="442"/>
      <point x="359" y="442" type="curve" smooth="yes" name="n36"/>
      <point x="231" y="442"/>
      <point x="173" y="291"/>
      <point x="173" y="177" type="curve" smooth="yes" name="n39"/>
      <point x="173" y="124"/>
      <point x="171" y="63"/>
      <point x="231" y="63" type="curve" smooth="yes" name="n42"/>
      <point x="274" y="63"/>
      <point x="309" y="108"/>
      <point x="323" y="121" type="curve"/>
      <point x="338" y="201"/>
      <point x="328" y="149"/>
    </contour>
    <contour>
      <point x="602" y="862" type="line" name="n48"/>
      <point x="587" y="781" type="line" name="n49"/>
      <point x="246" y="781" type="line"/>
      <point x="262" y="862" type="line"/>
    </contour>
    <contour>
      <point x="448" y="653" type="curve" smooth="yes" name="n52"/>
      <point x="448" y="616"/>
      <point x="419" y="585"/>
      <point x="381" y="585" type="curve" smooth="yes" name="n55"/>
      <point x="342" y="585"/>
      <point x="313" y="614"/>
      <point x="313" y="653" type="curve" smooth="yes" name="n58"/>
      <point x="313" y="693"/>
      <point x="340" y="726"/>
      <point x="380" y="726" type="curve" smooth="yes" name="n61"/>
      <point x="419" y="726"/>
      <point x="448" y="694"/>
    </contour>
  </outline>
</glyph>
<glyph name="uni01E4" format="2">
  <advance width="729"/>
  <unicode hex="01E4"/>
  <outline>
    <contour>
      <point x="703" y="153" type="line" name="n00"/>
      <point x="614" y="153" type="line"/>
      <point x="589" y="26" type="line"/>
      <point x="533" y="10"/>
      <point x="438" y="-16"/>
      <point x="353" y="-16" type="curve" smooth="yes" name="n05"/>
      <point x="98" y="-16"/>
      <point x="48" y="163"/>
      <point x="48" y="269" type="curve" smooth="yes" name="n08"/>
      <point x="48" y="518"/>
      <point x="259" y="687"/>
      <point x="500" y="687" type="curve" smooth="yes" name="n11"/>
      <point x="576" y="687"/>
      <point x="626" y="675"/>
      <point x="707" y="650" type="curve"/>
      <point x="670" y="468" type="line"/>
      <point x="585" y="468" type="line"/>
      <point x="594" y="581" type="line" smooth="yes"/>
      <point x="595" y="593"/>
      <point x="582" y="602"/>
      <point x="568" y="604" type="curve"/>
      <point x="556" y="611"/>
      <point x="519" y="623"/>
      <point x="488" y="623" type="curve" smooth="yes" name="n23"/>
      <point x="365" y="623"/>
      <point x="200" y="485"/>
      <point x="200" y="254" type="curve" smooth="yes" name="n26"/>
      <point x="200" y="92"/>
      <point x="327" y="47"/>
      <point x="373" y="47" type="curve" smooth="yes" name="n29"/>
      <point x="399" y="47"/>
      <point x="435" y="56"/>
      <point x="453" y="61" type="curve"/>
      <point x="471" y="153" type="line"/>
      <point x="342" y="153" type="line"/>
      <point x="342" y="209" type="line"/>
      <point x="482" y="209" type="line"/>
      <point x="492" y="259" type="line"/>
      <point x="494" y="271"/>
      <point x="489" y="274"/>
      <point x="473" y="275" type="curve"/>
      <point x="473" y="275"/>
      <point x="444" y="277"/>
      <point x="417" y="279" type="curve"/>
      <point x="417" y="330" type="line" name="hr01"/>
      <point x="717" y="330" type="line" name="n45"/>
      <point x="717" y="279" type="line"/>
      <point x="649" y="274" type="line"/>
      <point x="640" y="273"/>
      <point x="637" y="268"/>
      <point x="635" y="259" type="curve" smooth="yes"/>
      <point x="625" y="209" type="line" name="hr02"/>
      <point x="703" y="209" type="line" name="n52"/>
    </contour>
  </outline>
</glyph>
<glyph name="jcaron" format="2">
  <advance width="317"/>
  <unicode hex="01F0"/>
  <outline>
    <contour>
      <point x="275" y="500" type="line" name="n00"/>
      <point x="204" y="84" type="line"/>
      <point x="186" y="-17"/>
      <point x="96" y="-229" name="n03"/>
      <point x="-42" y="-229" type="curve" smooth="yes"/>
      <point x="-89" y="-229"/>
      <point x="-129" y="-204"/>
      <point x="-129" y="-171" type="curve" smooth="yes"/>
      <point x="-129" y="-146"/>
      <point x="-111" y="-132"/>
      <point x="-88" y="-117" type="curve"/>
      <point x="7" y="-142" type="line"/>
      <point x="25" y="-114"/>
      <point x="46" y="-55"/>
      <point x="55" y="-6" type="curve" smooth="yes"/>
      <point x="129" y="422" type="line"/>
      <point x="43" y="431" type="line"/>
      <point x="43" y="467" type="line"/>
      <point x="209" y="500" type="line"/>
    </contour>
    <contour>
      <point x="460" y="722" type="line" name="n19"/>
      <point x="315" y="551" type="line"/>
      <point x="197" y="551" type="line"/>
      <point x="120" y="722" type="line"/>
      <point x="203" y="722" type="line"/>
      <point x="272" y="628" type="line"/>
      <point x="377" y="722" type="line"/>
    </contour>
  </outline>
</glyph>
<glyph name="uni01F1" format="2">
  <advance width="1316"/>
  <unicode hex="01F1"/>
  <outline>
    <contour>
      <point x="695" y="414" type="curve" smooth="yes" name="n00"/>
      <point x="695" y="176"/>
      <point x="523" y="0"/>
      <point x="241" y="0" type="curve" smooth="yes"/>
      <point x="-15" y="0" type="line"/>
      <point x="-15" y="50" type="line"/>
      <point x="14" y="53"/>
      <point x="45" y="54"/>
      <point x="45" y="54" type="curve"/>
      <point x="61" y="55"/>
      <point x="64" y="57"/>
      <point x="67" y="71" type="curve" smooth="yes"/>
      <point x="171" y="601" type="line"/>
      <point x="173" y="613"/>
      <point x="165" y="615"/>
      <point x="153" y="616" type="curve"/>
      <point x="153" y="616"/>
      <point x="123" y="618"/>
      <point x="95" y="621" type="curve"/>
      <point x="95" y="671" type="line"/>
      <point x="355" y="671" type="line" smooth="yes" name="n20"/>
      <point x="562" y="671"/>
      <point x="695" y="598"/>
    </contour>
    <contour>
      <point x="545" y="423" type="curve" smooth="yes" name="n23"/>
      <point x="545" y="588"/>
      <point x="433" y="608"/>
      <point x="330" y="611" type="curve" name="n26"/>
      <point x="316" y="611" type="line" name="hr01"/>
      <point x="208" y="62" type="line"/>
      <point x="259" y="62" type="line"/>
      <point x="435" y="64"/>
      <point x="545" y="232"/>
    </contour>
    <contour>
      <point x="1351" y="671" type="line"/>
      <point x="1341" y="621" type="line"/>
      <point x="875" y="62" type="line"/>
      <point x="1121" y="62" type="line" smooth="yes" name="n35"/>
      <point x="1131" y="62"/>
      <point x="1146" y="68"/>
      <point x="1149" y="77" type="curve"/>
      <point x="1185" y="207" type="line" name="n39"/>
      <point x="1269" y="207" type="line"/>
      <point x="1229" y="0" type="line" name="n41"/>
      <point x="692" y="0" type="line"/>
      <point x="702" y="49" type="line"/>
      <point x="1166" y="609" type="line"/>
      <point x="958" y="609" type="line" smooth="yes" name="n45"/>
      <point x="948" y="609"/>
      <point x="933" y="605"/>
      <point x="930" y="595" type="curve" smooth="yes"/>
      <point x="898" y="489" type="line"/>
      <point x="814" y="489" type="line" name="n50"/>
      <point x="850" y="671" type="line" name="n51"/>
    </contour>
  </outline>
</glyph>
<glyph name="aringacute" format="2">
  <advance width="567"/>
  <unicode hex="01FB"/>
  <outline>
    <contour>
      <point x="565" y="30" type="line"/>
      <point x="519" y="12"/>
      <point x="464" y="-12"/>
      <point x="413" y="-12" type="curve" smooth="yes"/>
      <point x="371" y="-12"/>
      <point x="342" y="4"/>
      <point x="329" y="33" type="curve"/>
      <point x="294" y="10"/>
      <point x="247" y="-12"/>
      <point x="199" y="-12" type="curve" smooth="yes" name="n09"/>
      <point x="76" y="-12"/>
      <point x="32" y="96"/>
      <point x="32" y="171" type="curve" smooth="yes" name="n12"/>
      <point x="32" y="320"/>
      <point x="129" y="500"/>
      <point x="344" y="500" type="curve" smooth="yes" name="n15"/>
      <point x="373" y="500"/>
      <point x="404" y="491"/>
      <point x="427" y="479" type="curve"/>
      <point x="434" y="488" type="line"/>
      <point x="541" y="488" type="line"/>
      <point x="534" y="468"/>
      <point x="518" y="436"/>
      <point x="516" y="427" type="curve" smooth="yes"/>
      <point x="510.741" y="400.303"/>
      <point x="455.221" y="118.429"/>
      <point x="451" y="97" type="curve"/>
      <point x="451" y="67"/>
      <point x="454" y="57"/>
      <point x="478" y="57" type="curve" smooth="yes"/>
      <point x="483" y="57"/>
      <point x="555" y="76"/>
      <point x="565" y="78" type="curve"/>
    </contour>
    <contour>
      <point x="375" y="394" type="curve"/>
      <point x="377" y="400"/>
      <point x="370" y="442"/>
      <point x="359" y="442" type="curve" smooth="yes" name="n36"/>
      <point x="231" y="442"/>
      <point x="173" y="291"/>
      <point x="173" y="177" type="curve" smooth="yes" name="n39"/>
      <point x="173" y="124"/>
      <point x="171" y="63"/>
      <point x="231" y="63" type="curve" smooth="yes" name="n42"/>
      <point x="274" y="63"/>
      <point x="309" y="108"/>
      <point x="323" y="121" type="curve"/>
      <point x="338" y="201"/>
      <point x="328" y="149"/>
    </contour>
    <contour>
      <point x="530" y="702" type="curve" smooth="yes" name="n48"/>
      <point x="530" y="622"/>
      <point x="455" y="551"/>
      <point x="377" y="551" type="curve" smooth="yes" name="n51"/>
      <point x="318" y="551"/>
      <point x="273" y="592"/>
      <point x="273" y="652" type="curve" smooth="yes" name="n54"/>
      <point x="273" y="732" name="hr01"/>
      <point x="348" y="803"/>
      <point x="427" y="803" type="curve" smooth="yes" name="n57"/>
      <point x="486" y="803"/>
      <point x="530" y="761"/>
    </contour>
    <contour>
      <point x="466" y="689" type="curve" smooth="yes" name="n60"/>
      <point x="466" y="719" name="hr02"/>
      <point x="444" y="740"/>
      <point x="414" y="740" type="curve" smooth="yes" name="n63"/>
      <point x="375" y="740" name="hr03"/>
      <point x="337" y="704"/>
      <point x="337" y="665" type="curve" smooth="yes" name="n66"/>
      <point x="337" y="635"/>
      <point x="360" y="614"/>
      <point x="389" y="614" type="curve" smooth="yes" name="n69"/>
      <point x="429" y="614" name="hr04"/>
      <point x="466" y="650"/>
    </contour>
    <contour>
      <point x="576" y="955" type="curve" smooth="yes"/>
      <point x="576" y="942"/>
      <point x="564" y="921"/>
      <point x="549" y="913" type="curve" smooth="yes"/>
      <point x="389" y="824" type="line"/>
      <point x="318" y="824" type="line"/>
      <point x="456" y="976" type="line" smooth="yes"/>
      <point x="478" y="1001"/>
      <point x="492" y="1007" name="n80"/>
      <point x="519" y="1007" type="curve" smooth="yes"/>
      <point x="562" y="1007"/>
      <point x="576" y="979"/>
    </contour>
  </outline>
</glyph>
<glyph name="uni0220" format="2">
  <advance width="767"/>
  <unicode hex="0220"/>
  <outline>
    <contour>
      <point x="728" y="476" type="curve" smooth="yes"/>
      <point x="609" y="-143" type="line"/>
      <point x="609" y="-154.487"/>
      <point x="612.581" y="-162.498"/>
      <point x="627" y="-164" type="curve" smooth="yes"/>
      <point x="675" y="-169" type="line"/>
      <point x="675" y="-219" type="line" name="n06"/>
      <point x="383" y="-219" type="line"/>
      <point x="383" y="-169" type="line"/>
      <point x="440" y="-165" type="line" smooth="yes"/>
      <point x="459.058" y="-163.663"/>
      <point x="463.502" y="-156.106"/>
      <point x="466" y="-143" type="curve" smooth="yes"/>
      <point x="584" y="476" type="line" smooth="yes"/>
      <point x="585.51" y="483.92"/>
      <point x="586" y="492"/>
      <point x="586" y="498.125" type="curve" smooth="yes"/>
      <point x="586" y="567"/>
      <point x="524" y="604"/>
      <point x="467.584" y="604" type="curve" smooth="yes"/>
      <point x="406" y="604"/>
      <point x="336.207" y="559.912"/>
      <point x="294.566" y="496.856" type="curve"/>
      <point x="211" y="76" type="line" name="n23"/>
      <point x="211" y="61.8653"/>
      <point x="213.832" y="56.5478"/>
      <point x="229" y="55" type="curve" smooth="yes"/>
      <point x="278" y="50" type="line"/>
      <point x="278" y="40.4891"/>
      <point x="278" y="8.17186"/>
      <point x="278" y="0" type="curve" name="n30"/>
      <point x="231.671" y="0"/>
      <point x="39.05" y="0"/>
      <point x="-15" y="0" type="curve" name="n33"/>
      <point x="-15" y="8.04764"/>
      <point x="-15" y="41.0997"/>
      <point x="-15" y="50" type="curve"/>
      <point x="43" y="54" type="line" smooth="yes"/>
      <point x="62.0597" y="55.3145"/>
      <point x="65.4687" y="63.093"/>
      <point x="68" y="76" type="curve" smooth="yes" name="hr02"/>
      <point x="169" y="591" type="line" smooth="yes"/>
      <point x="169.79" y="595.028"/>
      <point x="170.148" y="598.561"/>
      <point x="170.153" y="601.593" type="curve" smooth="yes" name="n44"/>
      <point x="170.168" y="611.312"/>
      <point x="165.77" y="616.034"/>
      <point x="152" y="617" type="curve" smooth="yes"/>
      <point x="95" y="621" type="line"/>
      <point x="95" y="671" type="line"/>
      <point x="140.594" y="671"/>
      <point x="285.459" y="671"/>
      <point x="328" y="671" type="curve"/>
      <point x="314" y="603" type="line"/>
      <point x="370" y="653"/>
      <point x="439" y="687"/>
      <point x="519.243" y="687" type="curve" smooth="yes" name="n56"/>
      <point x="640" y="687"/>
      <point x="731" y="610"/>
      <point x="731" y="508.986" type="curve" smooth="yes" name="n59"/>
      <point x="731" y="499"/>
      <point x="730.111" y="486.979"/>
    </contour>
  </outline>
</glyph>
<glyph name="uni0224" format="2">
  <advance width="604"/>
  <unicode hex="0224"/>
  <outline>
    <contour>
      <point x="638" y="671" type="line"/>
      <point x="628" y="621" type="line" name="n01"/>
      <point x="559.757" y="539.138"/>
      <point x="248.321" y="165.549"/>
      <point x="162" y="62" type="curve" name="n04"/>
      <point x="217.663" y="62"/>
      <point x="462.472" y="62"/>
      <point x="542" y="62" type="curve" name="n07"/>
      <point x="548" y="56"/>
      <point x="556" y="40"/>
      <point x="556" y="16" type="curve" smooth="yes"/>
      <point x="556" y="-50"/>
      <point x="487" y="-124"/>
      <point x="443" y="-159" type="curve" name="n13"/>
      <point x="432.907" y="-159"/>
      <point x="400.155" y="-159"/>
      <point x="394" y="-159" type="curve" name="n16"/>
      <point x="417" y="-130"/>
      <point x="455" y="-72"/>
      <point x="455" y="-26" type="curve" smooth="yes"/>
      <point x="455" y="-15"/>
      <point x="454" y="-5"/>
      <point x="450" y="0" type="curve"/>
      <point x="-21" y="0" type="line"/>
      <point x="-11" y="49" type="line" name="n24"/>
      <point x="86.3954" y="166.546"/>
      <point x="358.377" y="494.8"/>
      <point x="453" y="609" type="curve"/>
      <point x="245" y="609" type="line" smooth="yes"/>
      <point x="235" y="609"/>
      <point x="221" y="605"/>
      <point x="217" y="595" type="curve" name="n31"/>
      <point x="185" y="489" type="line" name="n32"/>
      <point x="101" y="489" type="line"/>
      <point x="137" y="671" type="line"/>
    </contour>
  </outline>
</glyph>
<glyph name="uni0234" format="2">
  <advance width="355"/>
  <unicode hex="0234"/>
  <outline>
    <contour>
      <point x="361" y="127" type="curve" smooth="yes" name="n00"/>
      <point x="361" y="51"/>
      <point x="282" y="-12"/>
      <point x="174" y="-12" type="curve" smooth="yes" name="n03"/>
      <point x="136" y="-12"/>
      <point x="79" y="-12"/>
      <point x="53" y="40" type="curve"/>
      <point x="16" y="0"/>
      <point x="7" y="-12"/>
      <point x="-27" y="-62" type="curve"/>
      <point x="-79" y="-25" type="line"/>
      <point x="-20" y="52"/>
      <point x="-14" y="58"/>
      <point x="46" y="116" type="curve"/>
      <point x="152" y="661" type="line"/>
      <point x="64" y="669" type="line"/>
      <point x="64" y="705" type="line"/>
      <point x="233" y="737" type="line" name="n17"/>
      <point x="299" y="737" type="line"/>
      <point x="195" y="197" type="line"/>
      <point x="217" y="205"/>
      <point x="242" y="214"/>
      <point x="271" y="214" type="curve" smooth="yes" name="n22"/>
      <point x="322" y="214"/>
      <point x="361" y="180"/>
    </contour>
    <contour>
      <point x="276" y="118" type="curve" smooth="yes" name="n25"/>
      <point x="276" y="135"/>
      <point x="270" y="159"/>
      <point x="245" y="159" type="curve" smooth="yes" name="n28"/>
      <point x="225" y="159"/>
      <point x="200" y="143"/>
      <point x="183" y="132" type="curve"/>
      <point x="181.001" y="122.757"/>
      <point x="175.584" y="97.7"/>
      <point x="175" y="95" type="curve" smooth="yes" name="n34"/>
      <point x="170" y="73"/>
      <point x="181" y="48"/>
      <point x="210" y="48" type="curve" smooth="yes" name="n37"/>
      <point x="244" y="48"/>
      <point x="276" y="81"/>
    </contour>
  </outline>
</glyph>
<glyph name="uni0236" format="2">
  <advance width="344"/>
  <unicode hex="0236"/>
  <outline>
    <contour>
      <point x="393" y="418" type="line" name="n00"/>
      <point x="244" y="418" type="line" name="n01"/>
      <point x="200" y="202" type="line"/>
      <point x="221" y="209"/>
      <point x="239" y="212"/>
      <point x="262" y="212" type="curve" smooth="yes" name="n05"/>
      <point x="312" y="212"/>
      <point x="357" y="177"/>
      <point x="357" y="125" type="curve" smooth="yes" name="n08"/>
      <point x="357" y="51"/>
      <point x="293" y="-12"/>
      <point x="170" y="-12" type="curve" smooth="yes" name="n11"/>
      <point x="126" y="-12"/>
      <point x="86" y="5"/>
      <point x="65" y="35" type="curve"/>
      <point x="41" y="8"/>
      <point x="17" y="-20"/>
      <point x="-13" y="-63" type="curve"/>
      <point x="-64" y="-24" type="line"/>
      <point x="-30" y="23"/>
      <point x="6" y="71"/>
      <point x="53" y="111" type="curve"/>
      <point x="66" y="213"/>
      <point x="91" y="316"/>
      <point x="111" y="416" type="curve"/>
      <point x="39" y="408" type="line"/>
      <point x="39" y="449" type="line"/>
      <point x="124" y="483" type="line"/>
      <point x="175" y="586" type="line"/>
      <point x="275" y="586" type="line" name="n29"/>
      <point x="254" y="473" type="line" name="hr01"/>
      <point x="393" y="473" type="line" name="n31"/>
    </contour>
    <contour>
      <point x="284" y="116" type="curve" smooth="yes" name="n32"/>
      <point x="284" y="142"/>
      <point x="274" y="155"/>
      <point x="248" y="155" type="curve" smooth="yes" name="n35"/>
      <point x="220" y="155"/>
      <point x="215" y="146"/>
      <point x="185" y="124" type="curve"/>
      <point x="181" y="96"/>
      <point x="161" y="40"/>
      <point x="202" y="40" type="curve" smooth="yes" name="n41"/>
      <point x="241" y="40"/>
      <point x="284" y="73"/>
    </contour>
  </outline>
</glyph>
<glyph name="uni023E" format="2">
  <advance width="627"/>
  <unicode hex="023E"/>
  <outline>
    <contour>
      <point x="21" y="-44" type="line"/>
      <point x="551" y="763" type="line"/>
      <point x="631" y="713" type="line"/>
      <point x="93" y="-96" type="line"/>
    </contour>
    <contour>
      <point x="692" y="671" type="line"/>
      <point x="656" y="496" type="line"/>
      <point x="578" y="496" type="line"/>
      <point x="583" y="603" type="line"/>
      <point x="584" y="612"/>
      <point x="571" y="616" name="hr01"/>
      <point x="561" y="616" type="curve" smooth="yes"/>
      <point x="452" y="616" type="line"/>
      <point x="349" y="70" type="line" smooth="yes"/>
      <point x="347" y="58"/>
      <point x="356" y="56"/>
      <point x="368" y="55" type="curve"/>
      <point x="368" y="55"/>
      <point x="399" y="53"/>
      <point x="426" y="50" type="curve"/>
      <point x="426" y="0" type="line" name="n19"/>
      <point x="124" y="0" type="line"/>
      <point x="124" y="50" type="line"/>
      <point x="150" y="52"/>
      <point x="179" y="54"/>
      <point x="179" y="54" type="curve"/>
      <point x="193" y="55"/>
      <point x="204" y="58"/>
      <point x="206" y="71" type="curve"/>
      <point x="309" y="616" type="line"/>
      <point x="206" y="616" type="line" smooth="yes" name="n29"/>
      <point x="197" y="616"/>
      <point x="181" y="611"/>
      <point x="178" y="602" type="curve" smooth="yes"/>
      <point x="140" y="496" type="line" name="hr02"/>
      <point x="62" y="496" type="line" name="n34"/>
      <point x="96" y="671" type="line" name="n35"/>
    </contour>
  </outline>
</glyph>
<glyph name="uni0244" format="2">
  <advance width="749"/>
  <unicode hex="0244"/>
  <outline>
    <contour>
      <point x="791" y="621" type="line"/>
      <point x="725" y="616" type="line"/>
      <point x="716" y="615"/>
      <point x="711" y="609"/>
      <point x="709" y="600" type="curve" smooth="yes"/>
      <point x="666" y="383" type="line" name="n05"/>
      <point x="759" y="383" type="line"/>
      <point x="759" y="318" type="line"/>
      <point x="653" y="318" type="line" name="n08"/>
      <point x="632" y="215" type="line" smooth="yes"/>
      <point x="605" y="76"/>
      <point x="516" y="-16"/>
      <point x="332" y="-16" type="curve" smooth="yes" name="n12"/>
      <point x="184" y="-16"/>
      <point x="92" y="38"/>
      <point x="92" y="162" type="curve" smooth="yes" name="n15"/>
      <point x="92" y="181"/>
      <point x="96" y="220"/>
      <point x="105" y="265" type="curve"/>
      <point x="117" y="318" type="line"/>
      <point x="25" y="318" type="line"/>
      <point x="25" y="383" type="line"/>
      <point x="130" y="383" type="line"/>
      <point x="175" y="601" type="line"/>
      <point x="177" y="613"/>
      <point x="169" y="615"/>
      <point x="155" y="616" type="curve" name="n26"/>
      <point x="155" y="616"/>
      <point x="126" y="618"/>
      <point x="99" y="621" type="curve"/>
      <point x="99" y="671" type="line" name="n30"/>
      <point x="401" y="671" type="line"/>
      <point x="401" y="621" type="line"/>
      <point x="370" y="618"/>
      <point x="339" y="616"/>
      <point x="339" y="616" type="curve"/>
      <point x="327" y="615"/>
      <point x="320" y="612"/>
      <point x="318" y="600" type="curve"/>
      <point x="273" y="383" type="line"/>
      <point x="555" y="383" type="line"/>
      <point x="599" y="601" type="line"/>
      <point x="601" y="613"/>
      <point x="596" y="615"/>
      <point x="580" y="616" type="curve"/>
      <point x="580" y="616"/>
      <point x="550" y="618"/>
      <point x="523" y="621" type="curve"/>
      <point x="523" y="671" type="line"/>
      <point x="791" y="671" type="line"/>
    </contour>
    <contour>
      <point x="542" y="318" type="line"/>
      <point x="260" y="318" type="line"/>
      <point x="249" y="265" type="line" smooth="yes"/>
      <point x="241" y="227"/>
      <point x="238" y="195"/>
      <point x="238" y="177" type="curve" smooth="yes" name="n55"/>
      <point x="238" y="92"/>
      <point x="298" y="59"/>
      <point x="358" y="59" type="curve" smooth="yes" name="n58"/>
      <point x="462" y="59"/>
      <point x="507" y="140"/>
      <point x="529" y="250" type="curve" smooth="yes"/>
    </contour>
  </outline>
</glyph>
<glyph name="uni0247" format="2">
  <advance width="479"/>
  <unicode hex="0247"/>
  <outline>
    <contour>
      <point x="463" y="395" type="curve" smooth="yes"/>
      <point x="463" y="290"/>
      <point x="308" y="230"/>
      <point x="175" y="219" type="curve"/>
      <point x="174" y="207"/>
      <point x="172" y="189"/>
      <point x="172" y="178" type="curve" smooth="yes" name="n06"/>
      <point x="172" y="109"/>
      <point x="191" y="58"/>
      <point x="247" y="58" type="curve" smooth="yes" name="n09"/>
      <point x="290" y="58"/>
      <point x="330" y="90"/>
      <point x="440" y="185" type="curve"/>
      <point x="440" y="90" type="line"/>
      <point x="401" y="52"/>
      <point x="311" y="-12"/>
      <point x="214" y="-12" type="curve" smooth="yes" name="n16"/>
      <point x="127" y="-12"/>
      <point x="33" y="26"/>
      <point x="33" y="174" type="curve" smooth="yes" name="n19"/>
      <point x="33" y="326"/>
      <point x="150" y="500"/>
      <point x="321" y="500" type="curve" smooth="yes" name="n22"/>
      <point x="419" y="500"/>
      <point x="463" y="425"/>
    </contour>
    <contour>
      <point x="333" y="396" type="curve" smooth="yes"/>
      <point x="333" y="419"/>
      <point x="328" y="444"/>
      <point x="298" y="444" type="curve" smooth="yes" name="n28"/>
      <point x="236" y="444"/>
      <point x="200" y="344"/>
      <point x="182" y="271" type="curve"/>
      <point x="251" y="287"/>
      <point x="333" y="335"/>
    </contour>
    <contour>
      <point x="492" y="531" type="line"/>
      <point x="92" y="-94" type="line"/>
      <point x="41" y="-60" type="line"/>
      <point x="436" y="563" type="line"/>
    </contour>
  </outline>
</glyph>
<glyph name="uni024A" format="2">
  <advance width="750"/>
  <unicode hex="024A"/>
  <outline>
    <contour>
      <point x="779" y="-121" type="curve" smooth="yes"/>
      <point x="779" y="-201"/>
      <point x="691" y="-229" name="n02"/>
      <point x="614" y="-229" type="curve" smooth="yes"/>
      <point x="507" y="-229"/>
      <point x="448" y="-174"/>
      <point x="448" y="-76" type="curve" smooth="yes"/>
      <point x="448" y="-56"/>
      <point x="452" y="-26"/>
      <point x="458" y="3" type="curve"/>
      <point x="427" y="-10"/>
      <point x="390" y="-16"/>
      <point x="339" y="-16" type="curve" smooth="yes" name="n12"/>
      <point x="186" y="-16"/>
      <point x="47" y="49"/>
      <point x="47" y="246" type="curve" smooth="yes" name="n15"/>
      <point x="47" y="489"/>
      <point x="226" y="687"/>
      <point x="486" y="687" type="curve" smooth="yes" name="n18"/>
      <point x="533" y="687"/>
      <point x="580" y="671"/>
      <point x="609" y="650" type="curve"/>
      <point x="639" y="687" type="line" name="n22"/>
      <point x="735" y="687" type="line"/>
      <point x="586" y="-80" type="line" smooth="yes"/>
      <point x="578" y="-123"/>
      <point x="586" y="-151"/>
      <point x="606" y="-161" type="curve"/>
      <point x="708" y="-53" type="line"/>
      <point x="739" y="-60"/>
      <point x="779" y="-80"/>
    </contour>
    <contour>
      <point x="564" y="545" type="line"/>
      <point x="567" y="563"/>
      <point x="522" y="622"/>
      <point x="504" y="622" type="curve" smooth="yes" name="n34"/>
      <point x="321" y="622"/>
      <point x="202" y="445"/>
      <point x="202" y="255" type="curve" smooth="yes" name="n37"/>
      <point x="202" y="113"/>
      <point x="271" y="50"/>
      <point x="352" y="50" type="curve" smooth="yes" name="n40"/>
      <point x="416" y="50"/>
      <point x="440" y="72"/>
      <point x="476" y="97" type="curve"/>
    </contour>
  </outline>
</glyph>
<glyph name="uni024F" format="2">
  <advance width="542"/>
  <unicode hex="024F"/>
  <outline>
    <contour>
      <point x="562" y="328" type="line" name="hr04"/>
      <point x="462" y="328" type="line"/>
      <point x="452" y="311"/>
      <point x="444" y="294"/>
      <point x="438" y="281" type="curve" smooth="yes"/>
      <point x="409" y="217"/>
      <point x="358" y="94"/>
      <point x="295" y="-14" type="curve" smooth="yes" name="n07"/>
      <point x="228" y="-130"/>
      <point x="145" y="-229"/>
      <point x="24" y="-229" type="curve" smooth="yes" name="n10"/>
      <point x="-57" y="-229"/>
      <point x="-81" y="-181"/>
      <point x="-81" y="-153" type="curve" smooth="yes" name="n13"/>
      <point x="-81" y="-120"/>
      <point x="-62" y="-72"/>
      <point x="0" y="-70" type="curve"/>
      <point x="4.5749" y="-78.0859"/>
      <point x="34.7785" y="-131.469"/>
      <point x="43" y="-146" type="curve"/>
      <point x="88" y="-136"/>
      <point x="138" y="-81"/>
      <point x="194" y="21" type="curve" name="n22"/>
      <point x="191" y="37"/>
      <point x="173" y="135"/>
      <point x="152" y="230" type="curve" smooth="yes"/>
      <point x="145" y="263"/>
      <point x="138" y="298"/>
      <point x="132" y="328" type="curve" name="n28"/>
      <point x="44" y="328" type="line"/>
      <point x="44" y="332.33"/>
      <point x="44" y="362.574"/>
      <point x="44" y="377" type="curve"/>
      <point x="46.9886" y="377"/>
      <point x="104.959" y="377"/>
      <point x="123" y="377" type="curve"/>
      <point x="118" y="405"/>
      <point x="113" y="424"/>
      <point x="109" y="424" type="curve"/>
      <point x="3" y="432" type="line"/>
      <point x="3" y="463" type="line"/>
      <point x="26" y="471"/>
      <point x="124" y="500"/>
      <point x="145" y="500" type="curve" smooth="yes"/>
      <point x="190" y="500"/>
      <point x="217" y="496"/>
      <point x="245" y="402" type="curve" smooth="yes"/>
      <point x="252" y="377" type="line"/>
      <point x="373" y="377" type="line"/>
      <point x="377.246" y="386.326"/>
      <point x="424.972" y="491.153"/>
      <point x="429" y="500" type="curve"/>
      <point x="436.004" y="500"/>
      <point x="465.767" y="500"/>
      <point x="477" y="500" type="curve"/>
      <point x="572" y="470" type="line"/>
      <point x="572" y="444" type="line"/>
      <point x="520" y="412" type="line" name="n57"/>
      <point x="514" y="407"/>
      <point x="504" y="394"/>
      <point x="493" y="377" type="curve"/>
      <point x="562" y="377" type="line"/>
    </contour>
    <contour>
      <point x="264" y="328" type="line"/>
      <point x="273" y="288"/>
      <point x="283" y="242"/>
      <point x="292" y="198" type="curve"/>
      <point x="351" y="328" type="line"/>
    </contour>
  </outline>
</glyph>
<glyph name="uni0250" format="2">
  <advance width="567"/>
  <unicode hex="0250"/>
  <outline>
    <contour>
      <point x="536" y="317" type="curve" smooth="yes" name="n00"/>
      <point x="536" y="168"/>
      <point x="439" y="-12"/>
      <point x="224" y="-12" type="curve" smooth="yes" name="n03"/>
      <point x="195" y="-12"/>
      <point x="164" y="-3"/>
      <point x="141" y="8" type="curve"/>
      <point x="134" y="0" type="line" name="n07"/>
      <point x="27" y="0" type="line"/>
      <point x="34" y="20"/>
      <point x="50" y="51"/>
      <point x="52" y="61" type="curve" smooth="yes"/>
      <point x="57.2351" y="87.5784"/>
      <point x="112.779" y="369.57"/>
      <point x="117" y="391" type="curve"/>
      <point x="117" y="421"/>
      <point x="114" y="431"/>
      <point x="90" y="431" type="curve" smooth="yes"/>
      <point x="85" y="431"/>
      <point x="12" y="412"/>
      <point x="2" y="410" type="curve"/>
      <point x="2" y="458" type="line"/>
      <point x="49" y="476"/>
      <point x="104" y="500"/>
      <point x="155" y="500" type="curve" smooth="yes"/>
      <point x="197" y="500"/>
      <point x="226" y="484"/>
      <point x="239" y="455" type="curve"/>
      <point x="274" y="478"/>
      <point x="321" y="500"/>
      <point x="369" y="500" type="curve" smooth="yes" name="n30"/>
      <point x="492" y="500"/>
      <point x="536" y="391"/>
    </contour>
    <contour>
      <point x="395" y="311" type="curve" smooth="yes" name="n33"/>
      <point x="395" y="363"/>
      <point x="397" y="424"/>
      <point x="336" y="424" type="curve" smooth="yes" name="n36"/>
      <point x="294" y="424"/>
      <point x="259" y="380"/>
      <point x="245" y="367" type="curve"/>
      <point x="230" y="287"/>
      <point x="240" y="338"/>
      <point x="192" y="94" type="curve"/>
      <point x="191" y="88"/>
      <point x="198" y="45"/>
      <point x="209" y="45" type="curve" smooth="yes" name="n45"/>
      <point x="337" y="45"/>
      <point x="395" y="197"/>
    </contour>
  </outline>
</glyph>
<glyph name="uni0255" format="2">
  <advance width="476"/>
  <unicode hex="0255"/>
  <outline>
    <contour>
      <point x="449" y="420" type="curve" smooth="yes"/>
      <point x="449" y="395"/>
      <point x="441" y="357"/>
      <point x="355" y="348" type="curve"/>
      <point x="300" y="426" type="line" name="n04"/>
      <point x="190" y="410"/>
      <point x="168" y="228"/>
      <point x="168" y="188" type="curve" smooth="yes" name="n07"/>
      <point x="168" y="164"/>
      <point x="171" y="141"/>
      <point x="178" y="120" type="curve"/>
      <point x="211" y="175"/>
      <point x="262" y="218"/>
      <point x="330" y="218" type="curve" smooth="yes" name="n13"/>
      <point x="375" y="218"/>
      <point x="424" y="189"/>
      <point x="424" y="142" type="curve" smooth="yes" name="n16"/>
      <point x="424" y="49"/>
      <point x="335" y="-12"/>
      <point x="231" y="-12" type="curve" smooth="yes" name="n19"/>
      <point x="226.817" y="-12"/>
      <point x="200.241" y="-12"/>
      <point x="196" y="-12" type="curve"/>
      <point x="187" y="-48"/>
      <point x="174" y="-89"/>
      <point x="167" y="-131" type="curve" name="n25"/>
      <point x="83" y="-131" type="line"/>
      <point x="92" y="-85"/>
      <point x="106" y="-36"/>
      <point x="121" y="6" type="curve"/>
      <point x="63" y="33"/>
      <point x="32" y="90"/>
      <point x="32" y="177" type="curve" smooth="yes" name="n32"/>
      <point x="32" y="351"/>
      <point x="149" y="500"/>
      <point x="326" y="500" type="curve" smooth="yes" name="n35"/>
      <point x="418" y="500"/>
      <point x="449" y="465"/>
    </contour>
    <contour>
      <point x="339" y="133" type="curve" smooth="yes" name="n38"/>
      <point x="339" y="143"/>
      <point x="334" y="159"/>
      <point x="321" y="159" type="curve" smooth="yes" name="n41"/>
      <point x="271" y="159"/>
      <point x="239" y="101"/>
      <point x="223" y="63" type="curve"/>
      <point x="225" y="63"/>
      <point x="250" y="59"/>
      <point x="253" y="59" type="curve" smooth="yes" name="n47"/>
      <point x="290" y="59"/>
      <point x="339" y="93"/>
    </contour>
  </outline>
</glyph>
<glyph name="uni025C" format="2">
  <advance width="459"/>
  <unicode hex="025C"/>
  <outline>
    <contour>
      <point x="428" y="387.006" type="curve" smooth="yes" name="n00"/>
      <point x="428" y="331.793"/>
      <point x="380.692" y="278.716"/>
      <point x="305" y="248" type="curve"/>
      <point x="370.877" y="234.026"/>
      <point x="400" y="203.035" name="hr01"/>
      <point x="400" y="148.063" type="curve" smooth="yes" name="n06"/>
      <point x="400" y="48.2744"/>
      <point x="304.035" y="-12"/>
      <point x="147" y="-12" type="curve" smooth="yes" name="n09"/>
      <point x="86.6544" y="-12"/>
      <point x="38.7779" y="7.87854"/>
      <point x="0" y="49.0351" type="curve"/>
      <point x="0" y="150.626" type="line"/>
      <point x="65.1116" y="77.6722"/>
      <point x="115.344" y="43"/>
      <point x="160.131" y="43" type="curve" smooth="yes" name="n16"/>
      <point x="213.278" y="43"/>
      <point x="261" y="91.8235"/>
      <point x="261" y="150.5" type="curve" smooth="yes" name="n19"/>
      <point x="261" y="190.57"/>
      <point x="237.517" y="215"/>
      <point x="199" y="215" type="curve" smooth="yes"/>
      <point x="154" y="215" type="line" name="n23"/>
      <point x="154" y="264" type="line" name="n24"/>
      <point x="235.73" y="266.77"/>
      <point x="291" y="315.108" name="hr02"/>
      <point x="291" y="385.688" type="curve" smooth="yes" name="n27"/>
      <point x="291" y="425.838"/>
      <point x="273.115" y="451"/>
      <point x="246.347" y="451" type="curve" smooth="yes" name="n30"/>
      <point x="226.737" y="451"/>
      <point x="190.373" y="437.497"/>
      <point x="184" y="429" type="curve"/>
      <point x="175" y="358" type="line"/>
      <point x="160" y="343"/>
      <point x="137.554" y="333"/>
      <point x="116.48" y="333" type="curve" smooth="yes"/>
      <point x="83.4559" y="333"/>
      <point x="59" y="357.559"/>
      <point x="59" y="393.137" type="curve" smooth="yes"/>
      <point x="59" y="455.42"/>
      <point x="140.383" y="500"/>
      <point x="248.449" y="500" type="curve" smooth="yes" name="n43"/>
      <point x="358.047" y="500"/>
      <point x="428" y="454.146"/>
    </contour>
  </outline>
</glyph>
<glyph name="uni025D" format="2">
  <advance width="582"/>
  <unicode hex="025D"/>
  <outline>
    <contour>
      <point x="656" y="393" type="line"/>
      <point x="640" y="352"/>
      <point x="611" y="289"/>
      <point x="539" y="289" type="curve" smooth="yes" name="n03"/>
      <point x="490" y="289"/>
      <point x="462" y="322"/>
      <point x="462" y="358" type="curve" smooth="yes"/>
      <point x="462" y="374"/>
      <point x="471" y="394"/>
      <point x="474" y="407" type="curve"/>
      <point x="469" y="404"/>
      <point x="446" y="391"/>
      <point x="428" y="381" type="curve"/>
      <point x="425" y="324"/>
      <point x="371" y="275"/>
      <point x="305" y="248" type="curve"/>
      <point x="371" y="234"/>
      <point x="400" y="203"/>
      <point x="400" y="156" type="curve" smooth="yes" name="n18"/>
      <point x="400" y="34"/>
      <point x="280" y="-12"/>
      <point x="147" y="-12" type="curve" smooth="yes" name="n21"/>
      <point x="87" y="-12"/>
      <point x="39" y="8"/>
      <point x="0" y="50" type="curve"/>
      <point x="0" y="151" type="line"/>
      <point x="79" y="63"/>
      <point x="124" y="44"/>
      <point x="158" y="44" type="curve" smooth="yes" name="n28"/>
      <point x="197" y="44"/>
      <point x="261" y="77"/>
      <point x="261" y="160" type="curve" smooth="yes" name="n31"/>
      <point x="261" y="214"/>
      <point x="215" y="215"/>
      <point x="199" y="215" type="curve" smooth="yes"/>
      <point x="154" y="215" type="line" name="n35"/>
      <point x="154" y="264" type="line" name="n36"/>
      <point x="213" y="266"/>
      <point x="291" y="296"/>
      <point x="291" y="385" type="curve" smooth="yes"/>
      <point x="291" y="426"/>
      <point x="273" y="451"/>
      <point x="237" y="451" type="curve" smooth="yes" name="n42"/>
      <point x="218" y="451"/>
      <point x="187" y="433"/>
      <point x="184" y="429" type="curve"/>
      <point x="175" y="358" type="line"/>
      <point x="170" y="353"/>
      <point x="150" y="333"/>
      <point x="110" y="333" type="curve" smooth="yes"/>
      <point x="87" y="333"/>
      <point x="59" y="354"/>
      <point x="59" y="384" type="curve" smooth="yes"/>
      <point x="59" y="470"/>
      <point x="167" y="500"/>
      <point x="258" y="500" type="curve" smooth="yes" name="n55"/>
      <point x="337" y="500"/>
      <point x="387" y="474"/>
      <point x="412" y="439" type="curve"/>
      <point x="444" y="457"/>
      <point x="495" y="485"/>
      <point x="519" y="500" type="curve"/>
      <point x="558" y="472" type="line"/>
      <point x="526" y="394" type="line" smooth="yes"/>
      <point x="515" y="367"/>
      <point x="513" y="339"/>
      <point x="541" y="339" type="curve" smooth="yes" name="n66"/>
      <point x="572" y="339"/>
      <point x="600" y="404"/>
      <point x="610" y="426" type="curve"/>
    </contour>
  </outline>
</glyph>
<glyph name="uni025F" format="2">
  <advance width="317"/>
  <unicode hex="025F"/>
  <outline>
    <contour>
      <point x="320" y="211" type="line" name="n00"/>
      <point x="226" y="211" type="line"/>
      <point x="204" y="84" type="line" smooth="yes"/>
      <point x="186" y="-17"/>
      <point x="97" y="-229" name="n04"/>
      <point x="-42" y="-229" type="curve" smooth="yes"/>
      <point x="-89" y="-229"/>
      <point x="-129" y="-204"/>
      <point x="-129" y="-171" type="curve" smooth="yes"/>
      <point x="-129" y="-146"/>
      <point x="-111" y="-132"/>
      <point x="-88" y="-117" type="curve"/>
      <point x="7" y="-142" type="line"/>
      <point x="25" y="-114"/>
      <point x="46" y="-55"/>
      <point x="55" y="-6" type="curve" smooth="yes"/>
      <point x="92" y="211" type="line"/>
      <point x="2" y="211" type="line"/>
      <point x="2" y="278" type="line"/>
      <point x="104" y="278" type="line"/>
      <point x="129" y="422" type="line"/>
      <point x="43" y="431" type="line"/>
      <point x="43" y="467" type="line"/>
      <point x="209" y="500" type="line" name="n23"/>
      <point x="275" y="500" type="line"/>
      <point x="237" y="278" type="line"/>
      <point x="320" y="278" type="line" name="n26"/>
    </contour>
  </outline>
</glyph>
<glyph name="uni0262" format="2">
  <advance width="583"/>
  <unicode hex="0262"/>
  <outline>
    <contour>
      <point x="578" y="197" type="line"/>
      <point x="524" y="193" type="line"/>
      <point x="520" y="193"/>
      <point x="514" y="187"/>
      <point x="511" y="177" type="curve"/>
      <point x="475" y="19" type="line"/>
      <point x="412" y="4"/>
      <point x="347" y="-12"/>
      <point x="282" y="-12" type="curve" smooth="yes" name="n08"/>
      <point x="75" y="-12"/>
      <point x="33" y="118"/>
      <point x="33" y="194" type="curve" smooth="yes" name="n11"/>
      <point x="33" y="374"/>
      <point x="205" y="500"/>
      <point x="399" y="500" type="curve" smooth="yes" name="n14"/>
      <point x="461" y="500"/>
      <point x="502" y="491"/>
      <point x="571" y="472" type="curve"/>
      <point x="541" y="335" type="line"/>
      <point x="464" y="335" type="line"/>
      <point x="470" y="414" type="line"/>
      <point x="470" y="418"/>
      <point x="464" y="429"/>
      <point x="453" y="433" type="curve"/>
      <point x="443" y="436"/>
      <point x="414" y="445"/>
      <point x="390" y="445" type="curve" smooth="yes" name="n26"/>
      <point x="294" y="445"/>
      <point x="164" y="345"/>
      <point x="164" y="184" type="curve" smooth="yes" name="n29"/>
      <point x="164" y="73"/>
      <point x="262" y="42"/>
      <point x="298" y="42" type="curve" smooth="yes" name="n32"/>
      <point x="317" y="42"/>
      <point x="343" y="48"/>
      <point x="358" y="51" type="curve"/>
      <point x="387" y="179" type="line"/>
      <point x="388" y="185"/>
      <point x="386" y="193"/>
      <point x="378" y="194" type="curve"/>
      <point x="378" y="194"/>
      <point x="354" y="195"/>
      <point x="328" y="197" type="curve"/>
      <point x="328" y="242" type="line"/>
      <point x="578" y="242" type="line"/>
    </contour>
  </outline>
</glyph>
<glyph name="uni0263" format="2">
  <advance width="502"/>
  <unicode hex="0263"/>
  <outline>
    <contour>
      <point x="512" y="436" type="curve" smooth="yes"/>
      <point x="512" y="402"/>
      <point x="497" y="374"/>
      <point x="491" y="361" type="curve"/>
      <point x="429" y="249"/>
      <point x="373" y="171"/>
      <point x="268" y="76" type="curve"/>
      <point x="270" y="58"/>
      <point x="284" y="-87"/>
      <point x="284" y="-100" type="curve" smooth="yes" name="n09"/>
      <point x="284" y="-161"/>
      <point x="210" y="-229"/>
      <point x="142" y="-229" type="curve" smooth="yes" name="n12"/>
      <point x="59" y="-229"/>
      <point x="15" y="-183"/>
      <point x="15" y="-123" type="curve" smooth="yes" name="n15"/>
      <point x="15" y="-63"/>
      <point x="90" y="24"/>
      <point x="139" y="62" type="curve"/>
      <point x="129" y="158"/>
      <point x="118" y="325"/>
      <point x="95" y="410" type="curve"/>
      <point x="90" y="426"/>
      <point x="85" y="426"/>
      <point x="63" y="427" type="curve"/>
      <point x="63" y="427"/>
      <point x="30" y="428"/>
      <point x="1" y="429" type="curve"/>
      <point x="1" y="464" type="line"/>
      <point x="119" y="500" type="line"/>
      <point x="188" y="499"/>
      <point x="225" y="475"/>
      <point x="230" y="425" type="curve" smooth="yes"/>
      <point x="258" y="163" type="line"/>
      <point x="330" y="236"/>
      <point x="375" y="290"/>
      <point x="400" y="354" type="curve"/>
      <point x="352" y="473" type="line"/>
      <point x="369" y="490"/>
      <point x="400" y="500"/>
      <point x="431" y="500" type="curve" smooth="yes"/>
      <point x="477" y="500"/>
      <point x="512" y="475"/>
    </contour>
    <contour>
      <point x="156" y="-91" type="curve" smooth="yes" name="n43"/>
      <point x="156" y="-87"/>
      <point x="152" y="-42"/>
      <point x="150" y="-29" type="curve"/>
      <point x="124" y="-48"/>
      <point x="89" y="-100"/>
      <point x="89" y="-122" type="curve" smooth="yes" name="n49"/>
      <point x="89" y="-150"/>
      <point x="106" y="-161"/>
      <point x="123" y="-161" type="curve" smooth="yes" name="n52"/>
      <point x="143" y="-161"/>
      <point x="156" y="-147"/>
    </contour>
  </outline>
</glyph>
<glyph name="uni0265" format="2">
  <advance width="564"/>
  <unicode hex="0265"/>
  <outline>
    <contour>
      <point x="538" y="488" type="line"/>
      <point x="404" y="-153" type="line"/>
      <point x="492" y="-162" type="line"/>
      <point x="492" y="-197" type="line"/>
      <point x="323" y="-229" type="line" name="n04"/>
      <point x="255" y="-229" type="line"/>
      <point x="309" y="34" type="line"/>
      <point x="269" y="9"/>
      <point x="216" y="-12"/>
      <point x="157" y="-12" type="curve" smooth="yes" name="n09"/>
      <point x="57" y="-12"/>
      <point x="25" y="44"/>
      <point x="42" y="128" type="curve" smooth="yes"/>
      <point x="98" y="394" type="line" smooth="yes"/>
      <point x="105" y="427"/>
      <point x="86" y="438"/>
      <point x="76" y="438" type="curve" smooth="yes"/>
      <point x="47" y="438"/>
      <point x="22" y="427"/>
      <point x="-7" y="410" type="curve"/>
      <point x="-9" y="460" type="line"/>
      <point x="42" y="484"/>
      <point x="92" y="500" name="n22"/>
      <point x="146" y="500" type="curve" smooth="yes"/>
      <point x="192" y="500"/>
      <point x="249" y="482"/>
      <point x="238" y="430" type="curve" smooth="yes"/>
      <point x="178" y="139" type="line" smooth="yes"/>
      <point x="168" y="91"/>
      <point x="192" y="63"/>
      <point x="212" y="63" type="curve" smooth="yes" name="n30"/>
      <point x="243" y="63"/>
      <point x="290" y="96"/>
      <point x="331" y="138" type="curve"/>
      <point x="404" y="488" type="line"/>
    </contour>
  </outline>
</glyph>
<glyph name="uni026C" format="2">
  <advance width="342"/>
  <unicode hex="026C"/>
  <outline>
    <contour>
      <point x="369" y="335" type="line"/>
      <point x="330" y="300"/>
      <point x="290" y="276"/>
      <point x="245" y="266" type="curve"/>
      <point x="213" y="104" type="line" smooth="yes"/>
      <point x="208" y="78"/>
      <point x="214" y="53"/>
      <point x="240" y="53" type="curve" smooth="yes" name="n07"/>
      <point x="253" y="53"/>
      <point x="295" y="63"/>
      <point x="340" y="84" type="curve"/>
      <point x="340" y="29" type="line"/>
      <point x="279" y="0"/>
      <point x="233" y="-12"/>
      <point x="181" y="-12" type="curve" smooth="yes" name="n14"/>
      <point x="115" y="-12"/>
      <point x="76" y="19"/>
      <point x="76" y="66" type="curve" smooth="yes"/>
      <point x="76" y="77"/>
      <point x="77" y="89"/>
      <point x="80" y="102" type="curve"/>
      <point x="112" y="266" type="line"/>
      <point x="39" y="278"/>
      <point x="-10" y="316"/>
      <point x="-10" y="370" type="curve" smooth="yes" name="n24"/>
      <point x="-10" y="435"/>
      <point x="33" y="492"/>
      <point x="128" y="492" type="curve" smooth="yes" name="n27"/>
      <point x="135" y="492"/>
      <point x="146" y="490"/>
      <point x="155" y="488" type="curve"/>
      <point x="188" y="661" type="line"/>
      <point x="101" y="669" type="line"/>
      <point x="101" y="705" type="line"/>
      <point x="269" y="737" type="line" name="n34"/>
      <point x="336" y="737" type="line"/>
      <point x="257" y="331" type="line"/>
      <point x="271" y="338"/>
      <point x="290" y="342"/>
      <point x="327" y="378" type="curve"/>
    </contour>
    <contour>
      <point x="144" y="430" type="line"/>
      <point x="139" y="434"/>
      <point x="134" y="437"/>
      <point x="126" y="437" type="curve" smooth="yes" name="n43"/>
      <point x="87" y="437"/>
      <point x="62" y="413"/>
      <point x="62" y="375" type="curve" smooth="yes" name="n46"/>
      <point x="62" y="352"/>
      <point x="91" y="333"/>
      <point x="123" y="324" type="curve"/>
    </contour>
  </outline>
</glyph>
<glyph name="uni026F" format="2">
  <advance width="826"/>
  <unicode hex="026F"/>
  <outline>
    <contour>
      <point x="794" y="488" type="line"/>
      <point x="705" y="63" type="line"/>
      <point x="789" y="55" type="line"/>
      <point x="789" y="21" type="line"/>
      <point x="625" y="-12" type="line"/>
      <point x="556" y="-12" type="line"/>
      <point x="568" y="45" type="line"/>
      <point x="520" y="12"/>
      <point x="466" y="-12"/>
      <point x="420" y="-12" type="curve" smooth="yes"/>
      <point x="365" y="-12"/>
      <point x="333" y="22"/>
      <point x="318" y="56" type="curve"/>
      <point x="266" y="17"/>
      <point x="199" y="-12"/>
      <point x="146" y="-12" type="curve" smooth="yes" name="n15"/>
      <point x="76" y="-12"/>
      <point x="23" y="39"/>
      <point x="40" y="119" type="curve" smooth="yes"/>
      <point x="96" y="388" type="line" smooth="yes"/>
      <point x="102" y="415"/>
      <point x="96" y="438"/>
      <point x="72" y="438" type="curve" smooth="yes"/>
      <point x="57" y="438"/>
      <point x="16" y="427"/>
      <point x="-12" y="413" type="curve"/>
      <point x="-12" y="458" type="line"/>
      <point x="38" y="485"/>
      <point x="84" y="500" name="n28"/>
      <point x="136" y="500" type="curve" smooth="yes"/>
      <point x="197" y="500"/>
      <point x="247" y="475"/>
      <point x="237" y="426" type="curve" smooth="yes"/>
      <point x="182" y="160" type="line" smooth="yes"/>
      <point x="169" y="98"/>
      <point x="174" y="66"/>
      <point x="200" y="66" type="curve" smooth="yes" name="n36"/>
      <point x="259" y="66"/>
      <point x="303" y="125"/>
      <point x="317" y="146" type="curve"/>
      <point x="389" y="488" type="line"/>
      <point x="522" y="488" type="line"/>
      <point x="453" y="159" type="line"/>
      <point x="444" y="120"/>
      <point x="433" y="66"/>
      <point x="477" y="66" type="curve" smooth="yes"/>
      <point x="518" y="66"/>
      <point x="564" y="118"/>
      <point x="590" y="149" type="curve"/>
      <point x="661" y="488" type="line"/>
    </contour>
  </outline>
</glyph>
<glyph name="uni0270" format="2">
  <advance width="826"/>
  <unicode hex="0270"/>
  <outline>
    <contour>
      <point x="794" y="488" type="line"/>
      <point x="659" y="-155" type="line"/>
      <point x="743" y="-163" type="line"/>
      <point x="743" y="-197" type="line"/>
      <point x="578" y="-229" type="line" name="n04"/>
      <point x="509" y="-229" type="line"/>
      <point x="568" y="45" type="line"/>
      <point x="520" y="12"/>
      <point x="466" y="-12"/>
      <point x="420" y="-12" type="curve" smooth="yes"/>
      <point x="365" y="-12"/>
      <point x="333" y="22"/>
      <point x="318" y="56" type="curve"/>
      <point x="266" y="17"/>
      <point x="199" y="-12"/>
      <point x="146" y="-12" type="curve" smooth="yes" name="n15"/>
      <point x="76" y="-12"/>
      <point x="23" y="39"/>
      <point x="40" y="119" type="curve" smooth="yes"/>
      <point x="96" y="388" type="line" smooth="yes"/>
      <point x="102" y="415"/>
      <point x="96" y="438"/>
      <point x="72" y="438" type="curve" smooth="yes"/>
      <point x="57" y="438"/>
      <point x="16" y="427"/>
      <point x="-12" y="413" type="curve"/>
      <point x="-12" y="458" type="line"/>
      <point x="38" y="485"/>
      <point x="84" y="500" name="n28"/>
      <point x="136" y="500" type="curve" smooth="yes"/>
      <point x="197" y="500"/>
      <point x="247" y="475"/>
      <point x="237" y="426" type="curve" smooth="yes"/>
      <point x="182" y="160" type="line" smooth="yes"/>
      <point x="169" y="98"/>
      <point x="174" y="66"/>
      <point x="200" y="66" type="curve" smooth="yes" name="n36"/>
      <point x="259" y="66"/>
      <point x="303" y="125"/>
      <point x="317" y="146" type="curve"/>
      <point x="389" y="488" type="line"/>
      <point x="522" y="488" type="line"/>
      <point x="453" y="159" type="line"/>
      <point x="444" y="120"/>
      <point x="433" y="66"/>
      <point x="477" y="66" type="curve" smooth="yes"/>
      <point x="518" y="66"/>
      <point x="564" y="118"/>
      <point x="590" y="149" type="curve"/>
      <point x="661" y="488" type="line"/>
    </contour>
  </outline>
</glyph>
<glyph name="uni0272" format="2">
  <advance width="578"/>
  <unicode hex="0272"/>
  <outline>
    <contour>
      <point x="574" y="23" type="line"/>
      <point x="539" y="6"/>
      <point x="464" y="-12" name="n02"/>
      <point x="418" y="-12" type="curve" smooth="yes"/>
      <point x="374" y="-12"/>
      <point x="306" y="-2"/>
      <point x="317" y="51" type="curve" smooth="yes"/>
      <point x="378" y="356" type="line" smooth="yes"/>
      <point x="388" y="405"/>
      <point x="375" y="421"/>
      <point x="354" y="421" type="curve" smooth="yes" name="n10"/>
      <point x="323" y="421"/>
      <point x="270" y="382"/>
      <point x="228" y="339" type="curve"/>
      <point x="157" y="-2" type="line" smooth="yes"/>
      <point x="127" y="-146"/>
      <point x="38" y="-229" name="n16"/>
      <point x="-90" y="-229" type="curve" smooth="yes"/>
      <point x="-154" y="-229"/>
      <point x="-171" y="-188"/>
      <point x="-171" y="-154" type="curve" smooth="yes"/>
      <point x="-171" y="-109"/>
      <point x="-117" y="-73"/>
      <point x="-92" y="-73" type="curve"/>
      <point x="-38" y="-148" type="line"/>
      <point x="-17" y="-146"/>
      <point x="5" y="-93"/>
      <point x="18" y="-33" type="curve"/>
      <point x="112" y="425" type="line"/>
      <point x="28" y="433" type="line"/>
      <point x="28" y="467" type="line"/>
      <point x="192" y="500" type="line"/>
      <point x="261" y="500" type="line"/>
      <point x="249" y="442" type="line"/>
      <point x="298" y="475"/>
      <point x="358" y="500"/>
      <point x="410" y="500" type="curve" smooth="yes" name="n36"/>
      <point x="510" y="500"/>
      <point x="535" y="454"/>
      <point x="519" y="369" type="curve" smooth="yes"/>
      <point x="465" y="88" type="line" smooth="yes"/>
      <point x="459" y="55"/>
      <point x="479" y="49"/>
      <point x="489" y="49" type="curve" smooth="yes"/>
      <point x="510" y="49"/>
      <point x="542" y="58"/>
      <point x="572" y="71" type="curve"/>
    </contour>
  </outline>
</glyph>
<glyph name="uni0273" format="2">
  <advance width="578"/>
  <unicode hex="0273"/>
  <outline>
    <contour>
      <point x="593" y="-145" type="curve" smooth="yes"/>
      <point x="593" y="-197"/>
      <point x="544" y="-229" name="n02"/>
      <point x="482" y="-229" type="curve" smooth="yes"/>
      <point x="356" y="-229"/>
      <point x="295" y="-173"/>
      <point x="295" y="-89" type="curve" smooth="yes" name="n06"/>
      <point x="295" y="-73"/>
      <point x="300" y="-34"/>
      <point x="306" y="-4" type="curve" smooth="yes"/>
      <point x="378" y="356" type="line" smooth="yes"/>
      <point x="388" y="405"/>
      <point x="375" y="421"/>
      <point x="354" y="421" type="curve" smooth="yes" name="n13"/>
      <point x="323" y="421"/>
      <point x="270" y="382"/>
      <point x="228" y="339" type="curve"/>
      <point x="157" y="0" type="line" name="n17"/>
      <point x="24" y="0" type="line"/>
      <point x="112" y="425" type="line"/>
      <point x="28" y="433" type="line"/>
      <point x="28" y="467" type="line"/>
      <point x="192" y="500" type="line"/>
      <point x="261" y="500" type="line"/>
      <point x="249" y="442" type="line"/>
      <point x="298" y="475"/>
      <point x="358" y="500"/>
      <point x="410" y="500" type="curve" smooth="yes" name="n27"/>
      <point x="510" y="500"/>
      <point x="535" y="454"/>
      <point x="519" y="369" type="curve" smooth="yes"/>
      <point x="447" y="-7" type="line" smooth="yes"/>
      <point x="439" y="-48"/>
      <point x="427" y="-105"/>
      <point x="427" y="-123" type="curve" smooth="yes" name="n34"/>
      <point x="427" y="-141"/>
      <point x="449" y="-156"/>
      <point x="465" y="-158" type="curve"/>
      <point x="528" y="-94" type="line"/>
      <point x="556" y="-99"/>
      <point x="593" y="-108"/>
    </contour>
  </outline>
</glyph>
<glyph name="uni0279" format="2">
  <advance width="405"/>
  <unicode hex="0279"/>
  <outline>
    <contour>
      <point x="386" y="488" type="line" name="n00"/>
      <point x="298" y="64" type="line"/>
      <point x="382" y="56" type="line"/>
      <point x="382" y="21" type="line"/>
      <point x="216" y="-12" type="line"/>
      <point x="147" y="-12" type="line"/>
      <point x="161" y="55" type="line"/>
      <point x="125" y="18"/>
      <point x="75" y="-12"/>
      <point x="24" y="-12" type="curve" smooth="yes" name="n09"/>
      <point x="-28" y="-12"/>
      <point x="-51" y="30"/>
      <point x="-51" y="59" type="curve" smooth="yes"/>
      <point x="-51" y="105"/>
      <point x="-24" y="127"/>
      <point x="43" y="127" type="curve" name="n15"/>
      <point x="70" y="74" type="line"/>
      <point x="133" y="105"/>
      <point x="185" y="164"/>
      <point x="198" y="224" type="curve" smooth="yes"/>
      <point x="253" y="488" type="line"/>
    </contour>
  </outline>
</glyph>
<glyph name="uni027A" format="2">
  <advance width="405"/>
  <unicode hex="027A"/>
  <outline>
    <contour>
      <point x="435" y="737" type="line" name="n00"/>
      <point x="298" y="64" type="line"/>
      <point x="382" y="56" type="line"/>
      <point x="382" y="21" type="line"/>
      <point x="216" y="-12" type="line"/>
      <point x="147" y="-12" type="line"/>
      <point x="161" y="55" type="line"/>
      <point x="125" y="18"/>
      <point x="75" y="-12"/>
      <point x="24" y="-12" type="curve" smooth="yes" name="n09"/>
      <point x="-28" y="-12"/>
      <point x="-51" y="30"/>
      <point x="-51" y="59" type="curve" smooth="yes"/>
      <point x="-51" y="105"/>
      <point x="-24" y="127"/>
      <point x="43" y="127" type="curve" name="n15"/>
      <point x="70" y="74" type="line"/>
      <point x="133" y="105"/>
      <point x="186" y="164"/>
      <point x="198" y="224" type="curve" smooth="yes"/>
      <point x="286" y="661" type="line"/>
      <point x="198" y="669" type="line"/>
      <point x="198" y="705" type="line"/>
      <point x="367" y="737" type="line"/>
    </contour>
  </outline>
</glyph>
<glyph name="uni027B" format="2">
  <advance width="405"/>
  <unicode hex="027B"/>
  <outline>
    <contour>
      <point x="437" y="-159" type="curve" smooth="yes" name="n00"/>
      <point x="437" y="-196"/>
      <point x="402" y="-229" name="n02"/>
      <point x="340" y="-229" type="curve" smooth="yes"/>
      <point x="201" y="-229"/>
      <point x="141" y="-153"/>
      <point x="141" y="-70" type="curve" smooth="yes" name="n06"/>
      <point x="141" y="-56"/>
      <point x="141" y="-43"/>
      <point x="144" y="-29" type="curve"/>
      <point x="144" y="-29"/>
      <point x="155" y="28"/>
      <point x="161" y="55" type="curve"/>
      <point x="125" y="18"/>
      <point x="75" y="-12"/>
      <point x="24" y="-12" type="curve" smooth="yes" name="n15"/>
      <point x="-28" y="-12"/>
      <point x="-51" y="30"/>
      <point x="-51" y="59" type="curve" smooth="yes"/>
      <point x="-51" y="105"/>
      <point x="-24" y="127"/>
      <point x="43" y="127" type="curve" name="n21"/>
      <point x="70" y="74" type="line"/>
      <point x="133" y="105"/>
      <point x="185" y="164"/>
      <point x="198" y="224" type="curve" smooth="yes"/>
      <point x="253" y="488" type="line" name="n26"/>
      <point x="386" y="488" type="line"/>
      <point x="281" y="-19" type="line" smooth="yes"/>
      <point x="274" y="-50"/>
      <point x="270" y="-79" name="hr01"/>
      <point x="270" y="-104" type="curve" smooth="yes" name="n31"/>
      <point x="270" y="-128"/>
      <point x="283" y="-162"/>
      <point x="309" y="-161" type="curve"/>
      <point x="376" y="-86" type="line"/>
      <point x="419" y="-103"/>
      <point x="437" y="-125" name="hr02"/>
    </contour>
  </outline>
</glyph>
<glyph name="uni027C" format="2">
  <advance width="418"/>
  <unicode hex="027C"/>
  <outline>
    <contour>
      <point x="456" y="429" type="curve" smooth="yes"/>
      <point x="456" y="383"/>
      <point x="429" y="360"/>
      <point x="361" y="360" type="curve" name="n03"/>
      <point x="334" y="414" type="line"/>
      <point x="271" y="383"/>
      <point x="219" y="324"/>
      <point x="207" y="264" type="curve"/>
      <point x="105" y="-218" type="line" name="n08"/>
      <point x="-28" y="-218" type="line"/>
      <point x="106" y="423" type="line"/>
      <point x="22" y="432" type="line"/>
      <point x="22" y="467" type="line"/>
      <point x="188" y="500" type="line"/>
      <point x="257" y="500" type="line"/>
      <point x="244" y="433" type="line"/>
      <point x="280" y="470"/>
      <point x="330" y="500"/>
      <point x="380" y="500" type="curve" smooth="yes" name="n18"/>
      <point x="432" y="500"/>
      <point x="456" y="458"/>
    </contour>
  </outline>
</glyph>
<glyph name="uni0280" format="2">
  <advance width="546"/>
  <unicode hex="0280"/>
  <outline>
    <contour>
      <point x="526" y="4" type="line"/>
      <point x="499" y="-7"/>
      <point x="476" y="-12"/>
      <point x="446" y="-12" type="curve" smooth="yes" name="n03"/>
      <point x="345" y="-12"/>
      <point x="320" y="32"/>
      <point x="302" y="107" type="curve" smooth="yes"/>
      <point x="292" y="149"/>
      <point x="282" y="206"/>
      <point x="225" y="206" type="curve" smooth="yes" name="n09"/>
      <point x="222.003" y="206"/>
      <point x="206.416" y="206"/>
      <point x="204" y="206" type="curve"/>
      <point x="172" y="63" type="line" smooth="yes"/>
      <point x="171" y="58"/>
      <point x="173" y="49"/>
      <point x="188" y="48" type="curve"/>
      <point x="188" y="48"/>
      <point x="204" y="46"/>
      <point x="232" y="44" type="curve"/>
      <point x="232" y="0" type="line" name="n20"/>
      <point x="-20" y="0" type="line"/>
      <point x="-20" y="44" type="line"/>
      <point x="8" y="46"/>
      <point x="28" y="48"/>
      <point x="28" y="48" type="curve"/>
      <point x="41" y="49"/>
      <point x="47" y="55"/>
      <point x="48" y="63" type="curve"/>
      <point x="127" y="425" type="line"/>
      <point x="129" y="430"/>
      <point x="128" y="439"/>
      <point x="115" y="440" type="curve"/>
      <point x="115" y="440"/>
      <point x="96" y="441"/>
      <point x="69" y="443" type="curve"/>
      <point x="69" y="488" type="line" name="n36"/>
      <point x="305" y="488" type="line" smooth="yes"/>
      <point x="412" y="488"/>
      <point x="499" y="456"/>
      <point x="499" y="372" type="curve" smooth="yes" name="n40"/>
      <point x="499" y="298"/>
      <point x="433" y="252"/>
      <point x="349" y="227" type="curve"/>
      <point x="402" y="202"/>
      <point x="410" y="166"/>
      <point x="424" y="117" type="curve" smooth="yes"/>
      <point x="442" y="53"/>
      <point x="458" y="45" name="hr02"/>
      <point x="526" y="45" type="curve" name="n49"/>
    </contour>
    <contour>
      <point x="366" y="362" type="curve" smooth="yes" name="n50"/>
      <point x="366" y="426"/>
      <point x="296" y="439"/>
      <point x="271" y="437" type="curve"/>
      <point x="254" y="437" type="line"/>
      <point x="215" y="258" type="line"/>
      <point x="222" y="258"/>
      <point x="229" y="259"/>
      <point x="229" y="259" type="curve" name="n58"/>
      <point x="290" y="263"/>
      <point x="366" y="286"/>
    </contour>
  </outline>
</glyph>
<glyph name="uni0282" format="2">
  <advance width="415"/>
  <unicode hex="0282"/>
  <outline>
    <contour>
      <point x="394" y="423" type="curve" smooth="yes"/>
      <point x="394" y="378"/>
      <point x="371" y="358"/>
      <point x="310" y="354" type="curve"/>
      <point x="259" y="441" type="line"/>
      <point x="259" y="441"/>
      <point x="248" y="445"/>
      <point x="233" y="445" type="curve" smooth="yes" name="n07"/>
      <point x="193" y="445"/>
      <point x="191" y="408"/>
      <point x="191" y="383" type="curve" smooth="yes" name="n10"/>
      <point x="191" y="342"/>
      <point x="237" y="304"/>
      <point x="280" y="271" type="curve" smooth="yes"/>
      <point x="325" y="236"/>
      <point x="368" y="197"/>
      <point x="368" y="148" type="curve" smooth="yes" name="n16"/>
      <point x="368" y="71"/>
      <point x="295" y="-12"/>
      <point x="145" y="-12" type="curve" smooth="yes" name="n19"/>
      <point x="104" y="-12"/>
      <point x="73" y="-5"/>
      <point x="49" y="6" type="curve"/>
      <point x="25" y="-117" type="line" smooth="yes"/>
      <point x="19" y="-151"/>
      <point x="40" y="-178"/>
      <point x="70" y="-178" type="curve"/>
      <point x="148" y="-94" type="line"/>
      <point x="176" y="-100"/>
      <point x="205" y="-119" name="hr01"/>
      <point x="205" y="-154" type="curve" smooth="yes" name="n30"/>
      <point x="205" y="-205"/>
      <point x="159" y="-230" name="n32"/>
      <point x="97" y="-230" type="curve" smooth="yes"/>
      <point x="1" y="-230"/>
      <point x="-48" y="-195"/>
      <point x="-48" y="-139" type="curve" smooth="yes" name="n36"/>
      <point x="-48" y="-131"/>
      <point x="-48" y="-126"/>
      <point x="-44" y="-109" type="curve"/>
      <point x="3" y="138" type="line"/>
      <point x="66" y="138" type="line"/>
      <point x="92" y="71"/>
      <point x="95" y="37"/>
      <point x="175" y="37" type="curve" smooth="yes" name="n44"/>
      <point x="215" y="37"/>
      <point x="235" y="67"/>
      <point x="235" y="114" type="curve" smooth="yes" name="n47"/>
      <point x="235" y="155"/>
      <point x="202" y="183"/>
      <point x="153" y="220" type="curve" smooth="yes"/>
      <point x="111" y="252"/>
      <point x="70" y="296" name="hr02"/>
      <point x="70" y="346" type="curve" smooth="yes" name="n53"/>
      <point x="70" y="440"/>
      <point x="165" y="500"/>
      <point x="272" y="500" type="curve" smooth="yes" name="n56"/>
      <point x="355" y="500"/>
      <point x="394" y="448"/>
    </contour>
  </outline>
</glyph>
<glyph name="uni028C" format="2">
  <advance width="508"/>
  <unicode hex="028C"/>
  <outline>
    <contour>
      <point x="513" y="23" type="line"/>
      <point x="395" y="-12" type="line"/>
      <point x="325" y="-11"/>
      <point x="287" y="13"/>
      <point x="282" y="63" type="curve" smooth="yes"/>
      <point x="255" y="321" type="line"/>
      <point x="206" y="255"/>
      <point x="162" y="204"/>
      <point x="136" y="141" type="curve"/>
      <point x="164" y="14" type="line"/>
      <point x="147" y="-3"/>
      <point x="116" y="-12"/>
      <point x="85" y="-12" type="curve" smooth="yes"/>
      <point x="38" y="-12"/>
      <point x="2" y="13"/>
      <point x="2" y="52" type="curve" smooth="yes"/>
      <point x="2" y="86"/>
      <point x="17" y="115"/>
      <point x="24" y="127" type="curve" smooth="yes"/>
      <point x="114" y="291"/>
      <point x="237" y="429"/>
      <point x="302" y="500" type="curve" name="n21"/>
      <point x="400" y="500" type="line"/>
      <point x="383" y="466"/>
      <point x="376" y="441"/>
      <point x="377" y="419" type="curve"/>
      <point x="377" y="411"/>
      <point x="398" y="132"/>
      <point x="419" y="79" type="curve" smooth="yes"/>
      <point x="425" y="64"/>
      <point x="426" y="62"/>
      <point x="444" y="62" type="curve"/>
      <point x="444" y="62"/>
      <point x="479" y="60"/>
      <point x="513" y="59" type="curve"/>
    </contour>
  </outline>
</glyph>
<glyph name="uni0293" format="2">
  <advance width="515"/>
  <unicode hex="0293"/>
  <outline>
    <contour>
      <point x="549" y="447" type="line"/>
      <point x="271" y="194" type="line" name="n01"/>
      <point x="382" y="181"/>
      <point x="452" y="117"/>
      <point x="452" y="13" type="curve" smooth="yes" name="n04"/>
      <point x="452" y="-74"/>
      <point x="404" y="-127"/>
      <point x="332" y="-170" type="curve"/>
      <point x="335.579" y="-178.41"/>
      <point x="348.848" y="-209.592"/>
      <point x="352" y="-217" type="curve"/>
      <point x="282" y="-254" type="line"/>
      <point x="278.976" y="-245.987"/>
      <point x="265.68" y="-210.752"/>
      <point x="262" y="-201" type="curve"/>
      <point x="226" y="-225"/>
      <point x="187" y="-229"/>
      <point x="146" y="-229" type="curve" smooth="yes" name="n17"/>
      <point x="-11" y="-229"/>
      <point x="-35" y="-172"/>
      <point x="-35" y="-105" type="curve" smooth="yes" name="n20"/>
      <point x="-35" y="-46"/>
      <point x="33" y="-7"/>
      <point x="113" y="-7" type="curve" smooth="yes" name="n23"/>
      <point x="186" y="-7"/>
      <point x="243" y="-41"/>
      <point x="281" y="-86" type="curve"/>
      <point x="302" y="-58"/>
      <point x="314" y="-23"/>
      <point x="314" y="13" type="curve" smooth="yes" name="n29"/>
      <point x="314" y="75"/>
      <point x="260" y="126"/>
      <point x="214" y="141" type="curve" name="n32"/>
      <point x="167" y="79" type="line"/>
      <point x="87" y="146" type="line"/>
      <point x="364" y="390" type="line"/>
      <point x="337" y="389"/>
      <point x="299" y="393"/>
      <point x="278" y="393" type="curve" smooth="yes" name="n38"/>
      <point x="227" y="393"/>
      <point x="195" y="416" name="hr01"/>
      <point x="167" y="416" type="curve" smooth="yes" name="n41"/>
      <point x="151" y="416"/>
      <point x="144" y="404"/>
      <point x="136" y="391" type="curve"/>
      <point x="187" y="329" type="line"/>
      <point x="174" y="308"/>
      <point x="137" y="290" name="hr02"/>
      <point x="113" y="290" type="curve" smooth="yes" name="n48"/>
      <point x="77" y="290"/>
      <point x="39" y="321"/>
      <point x="39" y="354" type="curve" smooth="yes"/>
      <point x="39" y="423"/>
      <point x="96" y="500"/>
      <point x="196" y="500" type="curve" smooth="yes" name="n54"/>
      <point x="273" y="500"/>
      <point x="343" y="449"/>
      <point x="390" y="449" type="curve" smooth="yes"/>
      <point x="394" y="449"/>
      <point x="410" y="453"/>
      <point x="413" y="454" type="curve"/>
      <point x="458" y="516" type="line"/>
    </contour>
    <contour>
      <point x="229" y="-143" type="curve"/>
      <point x="201" y="-100"/>
      <point x="156" y="-72"/>
      <point x="108" y="-72" type="curve" smooth="yes" name="n65"/>
      <point x="84" y="-72"/>
      <point x="57" y="-90"/>
      <point x="57" y="-114" type="curve" smooth="yes" name="n68"/>
      <point x="57" y="-163"/>
      <point x="140" y="-178"/>
      <point x="158" y="-178" type="curve" smooth="yes" name="n71"/>
      <point x="181" y="-178"/>
      <point x="202" y="-164"/>
    </contour>
  </outline>
</glyph>
<glyph name="uni0294" format="2">
  <advance width="479"/>
  <unicode hex="0294"/>
  <outline>
    <contour>
      <point x="493" y="534" type="curve" smooth="yes" name="n00"/>
      <point x="493" y="414"/>
      <point x="386" y="311"/>
      <point x="272" y="288" type="curve"/>
      <point x="264" y="246"/>
      <point x="231" y="80"/>
      <point x="231" y="80" type="curve"/>
      <point x="229" y="66"/>
      <point x="237" y="56"/>
      <point x="257" y="55" type="curve" smooth="yes"/>
      <point x="316" y="52" type="line"/>
      <point x="316" y="0" type="line" name="n11"/>
      <point x="6" y="0" type="line"/>
      <point x="6" y="52" type="line"/>
      <point x="66" y="55" type="line" smooth="yes"/>
      <point x="82" y="56"/>
      <point x="95" y="67"/>
      <point x="98" y="80" type="curve"/>
      <point x="142" y="303" type="line"/>
      <point x="246" y="333"/>
      <point x="357" y="420"/>
      <point x="357" y="536" type="curve" smooth="yes" name="n21"/>
      <point x="357" y="579"/>
      <point x="340" y="627"/>
      <point x="289" y="627" type="curve" smooth="yes" name="n24"/>
      <point x="271" y="627"/>
      <point x="258" y="625"/>
      <point x="241" y="616" type="curve"/>
      <point x="189" y="531" type="line"/>
      <point x="175" y="525"/>
      <point x="159" y="522"/>
      <point x="144" y="522" type="curve" smooth="yes"/>
      <point x="119" y="522"/>
      <point x="97" y="534"/>
      <point x="97" y="562" type="curve" smooth="yes"/>
      <point x="97" y="658"/>
      <point x="225" y="687"/>
      <point x="300" y="687" type="curve" smooth="yes" name="n37"/>
      <point x="395" y="687"/>
      <point x="493" y="643"/>
    </contour>
  </outline>
</glyph>
